<?xml version="1.0" encoding="utf-8"?>
<!-- Generator: Adobe Illustrator 25.0.0, SVG Export Plug-In . SVG Version: 6.00 Build 0)  -->
<svg version="1.1" id="Capa_1" xmlns="http://www.w3.org/2000/svg" xmlns:xlink="http://www.w3.org/1999/xlink" x="0px" y="0px"
	 viewBox="0 0 910.5 250.6" style="enable-background:new 0 0 910.5 250.6;" xml:space="preserve">
<style type="text/css">
	.st0{fill:none;stroke:#A9A9A9;stroke-miterlimit:10;}
	.st1{opacity:0.1;fill:#4DE8A6;enable-background:new    ;}
	.st2{opacity:0.1;fill:#258459;enable-background:new    ;}
	.st3{opacity:0.8;fill:#FCFCFC;enable-background:new    ;}
	.st4{opacity:0.1;fill:#F3943B;enable-background:new    ;}
	.st5{opacity:0.1;fill:#E8E046;enable-background:new    ;}
	.st6{opacity:0.1;fill:#F9FF0B;enable-background:new    ;}
	.st7{opacity:0.1;fill:#6D6D6D;enable-background:new    ;}
	.st8{opacity:0.1;fill:#6297B2;enable-background:new    ;}
	.st9{opacity:0.1;fill:#2F5E70;enable-background:new    ;}
	.st10{opacity:0.1;fill:#A9A9A9;enable-background:new    ;}
	.st11{opacity:0.1;fill:#515151;enable-background:new    ;}
	.st12{opacity:0.1;fill:none;stroke:#514225;stroke-miterlimit:10;enable-background:new    ;}
	.st13{opacity:0.1;fill:#29D8EF;enable-background:new    ;}
	.st14{opacity:0.1;fill:#24929B;enable-background:new    ;}
	.st15{opacity:0.1;fill:#3EADFF;enable-background:new    ;}
	.st16{opacity:0.1;fill:#247EB5;enable-background:new    ;}
	.st17{opacity:0.1;fill:#E5E51F;enable-background:new    ;}
	.st18{opacity:0.1;fill:#CECB4D;enable-background:new    ;}
	.st19{opacity:0.1;fill:#7A2B2B;enable-background:new    ;}
	.st20{opacity:5.000000e-02;fill:#FF3131;enable-background:new    ;}
	.st21{opacity:0.1;fill:#7F1DFF;enable-background:new    ;}
	.st22{opacity:0.1;fill:#2E0077;enable-background:new    ;}
	.st23{opacity:0.1;fill:#5B3913;enable-background:new    ;}
	.st24{opacity:0.1;fill:#44382E;enable-background:new    ;}
	.st25{opacity:0.1;fill:#14AF73;enable-background:new    ;}
	.st26{opacity:0.1;fill:#34D4E0;enable-background:new    ;}
	.st27{opacity:0.5;fill:none;stroke:#DB3535;stroke-miterlimit:10;enable-background:new    ;}
	.st28{opacity:0.5;fill:none;stroke:#E6B200;stroke-miterlimit:10;enable-background:new    ;}
	.st29{opacity:0.1;fill:#87E237;enable-background:new    ;}
	.st30{opacity:0.1;fill:#A2C935;enable-background:new    ;}
	.st31{opacity:0.1;fill:none;stroke:#664C10;stroke-miterlimit:10;enable-background:new    ;}
	.st32{opacity:0.1;fill:#00A13A;enable-background:new    ;}
	.st33{opacity:0.1;fill:#2290D3;enable-background:new    ;}
	.st34{opacity:5.000000e-02;fill:#2290D3;enable-background:new    ;}
	.st35{fill:none;}
	.st36{opacity:0.1;fill:#5E5E5E;enable-background:new    ;}
	.st37{opacity:0.1;fill:#DB3535;enable-background:new    ;}
	.st38{opacity:0.1;fill:#44841F;enable-background:new    ;}
	.st39{opacity:0.1;fill:#5CB130;enable-background:new    ;}
	.st40{opacity:0.1;fill:#5B5B5B;enable-background:new    ;}
	.st41{opacity:0.1;fill:none;stroke:#A9A9A9;stroke-miterlimit:10;enable-background:new    ;}
	.st42{opacity:0.1;fill:none;stroke:#0BAEFF;stroke-miterlimit:10;enable-background:new    ;}
	.st43{opacity:0.1;fill:none;stroke:#0E4866;stroke-miterlimit:10;enable-background:new    ;}
	.st44{opacity:0.1;fill:none;stroke:#2290D3;stroke-miterlimit:10;enable-background:new    ;}
	.st45{opacity:0.1;fill:#A1D331;enable-background:new    ;}
	.st46{opacity:0.1;fill:#5F771C;enable-background:new    ;}
	.st47{opacity:0.1;fill:#666666;enable-background:new    ;}
</style>
<line class="st0" x1="0" y1="217.7" x2="910.5" y2="217.7"/>
<rect x="18" y="109.8" class="st0" width="70.4" height="107.8"/>
<rect x="15" y="109.8" class="st1" width="70.4" height="107.8"/>
<rect x="23" y="109.8" class="st2" width="70.4" height="107.8"/>
<rect x="25.6" y="116.6" class="st3" width="14.5" height="10.3"/>
<rect x="45.6" y="116.6" class="st0" width="14.5" height="10.3"/>
<rect x="65.6" y="116.6" class="st4" width="14.5" height="10.3"/>
<rect x="25.6" y="130.6" class="st5" width="14.5" height="10.3"/>
<rect x="45.6" y="130.6" class="st0" width="14.5" height="10.3"/>
<rect x="65.6" y="130.6" class="st5" width="14.5" height="10.3"/>
<rect x="25.6" y="144.6" class="st5" width="14.5" height="10.3"/>
<rect x="45.6" y="144.6" class="st5" width="14.5" height="10.3"/>
<rect x="65.6" y="144.6" class="st5" width="14.5" height="10.3"/>
<rect x="25.6" y="158.6" class="st5" width="14.5" height="10.3"/>
<rect x="45.6" y="158.6" class="st5" width="14.5" height="10.3"/>
<rect x="65.6" y="158.6" class="st5" width="14.5" height="10.3"/>
<rect x="25.6" y="171.6" class="st0" width="14.5" height="10.3"/>
<rect x="45.6" y="171.6" class="st5" width="14.5" height="10.3"/>
<rect x="25.6" y="130.6" class="st5" width="14.5" height="10.3"/>
<rect x="65.6" y="130.6" class="st5" width="14.5" height="10.3"/>
<rect x="25.6" y="144.6" class="st5" width="14.5" height="10.3"/>
<rect x="45.6" y="144.6" class="st5" width="14.5" height="10.3"/>
<rect x="65.6" y="144.6" class="st5" width="14.5" height="10.3"/>
<rect x="25.6" y="158.6" class="st5" width="14.5" height="10.3"/>
<rect x="45.6" y="158.6" class="st5" width="14.5" height="10.3"/>
<rect x="65.6" y="158.6" class="st5" width="14.5" height="10.3"/>
<rect x="45.6" y="171.6" class="st5" width="14.5" height="10.3"/>
<rect x="21.6" y="130.6" class="st6" width="14.5" height="10.3"/>
<rect x="61.6" y="130.6" class="st6" width="14.5" height="10.3"/>
<rect x="21.6" y="144.6" class="st6" width="14.5" height="10.3"/>
<rect x="41.6" y="144.6" class="st6" width="14.5" height="10.3"/>
<rect x="61.6" y="144.6" class="st6" width="14.5" height="10.3"/>
<rect x="21.6" y="158.6" class="st6" width="14.5" height="10.3"/>
<rect x="41.6" y="158.6" class="st6" width="14.5" height="10.3"/>
<rect x="61.6" y="158.6" class="st6" width="14.5" height="10.3"/>
<rect x="41.6" y="171.6" class="st6" width="14.5" height="10.3"/>
<rect x="65.6" y="171.6" class="st0" width="14.5" height="10.3"/>
<rect x="25.6" y="184.6" class="st0" width="14.5" height="10.3"/>
<rect x="31.9" y="200.1" class="st0" width="19.4" height="17.6"/>
<rect x="56.9" y="200.1" class="st6" width="19.4" height="17.6"/>
<rect x="58.9" y="200.1" class="st5" width="19.4" height="17.6"/>
<rect x="45.6" y="184.6" class="st3" width="14.5" height="10.3"/>
<rect x="65.6" y="184.6" class="st0" width="14.5" height="10.3"/>
<rect x="23" y="95.6" class="st0" width="59.7" height="14.3"/>
<rect x="26" y="97.6" class="st7" width="59.7" height="14.3"/>
<line class="st0" x1="31.9" y1="102.7" x2="72.9" y2="102.7"/>
<rect x="86.9" y="72.2" class="st0" width="50.7" height="145.5"/>
<rect x="89.9" y="72.2" class="st8" width="50.7" height="145.5"/>
<rect x="82.9" y="72.2" class="st9" width="50.7" height="145.5"/>
<line class="st0" x1="99" y1="84" x2="126.6" y2="84"/>
<line class="st0" x1="99" y1="98" x2="126.6" y2="98"/>
<line class="st0" x1="99" y1="112" x2="126.6" y2="112"/>
<line class="st0" x1="99" y1="125" x2="126.6" y2="125"/>
<line class="st0" x1="99" y1="139" x2="126.6" y2="139"/>
<line class="st0" x1="99" y1="152" x2="126.6" y2="152"/>
<line class="st0" x1="99" y1="166" x2="126.6" y2="166"/>
<line class="st0" x1="99" y1="179" x2="126.6" y2="179"/>
<line class="st0" x1="99" y1="193" x2="126.6" y2="193"/>
<rect x="102.1" y="202.2" class="st0" width="21.1" height="15.4"/>
<rect x="104.1" y="202.2" class="st10" width="21.1" height="15.4"/>
<rect x="100.1" y="202.2" class="st11" width="21.1" height="15.4"/>
<rect x="86.9" y="64.7" class="st0" width="50.7" height="7.5"/>
<rect x="89.9" y="66.7" class="st4" width="50.7" height="7.5"/>
<line class="st0" x1="99.8" y1="45.1" x2="99.8" y2="64.7"/>
<circle class="st0" cx="152.8" cy="157.9" r="21.9"/>
<line class="st0" x1="152.8" y1="152" x2="152.8" y2="217.7"/>
<polyline class="st0" points="143.9,160 152.8,172.8 162.5,161.1 "/>
<path class="st0" d="M191.5,155.2c0,8-6.5,14.5-14.4,14.5c-8,0-14.5-6.5-14.5-14.4l0,0c0,0-1-17.3,14.4-34.6
	C177.1,120.6,191.6,137.1,191.5,155.2z"/>
<line class="st0" x1="177" y1="136" x2="177" y2="217.7"/>
<line class="st0" x1="185.6" y1="147.6" x2="177" y2="158.9"/>
<polyline class="st12" points="141.9,160 150.8,172.8 160.5,161.1 "/>
<line class="st12" x1="183.6" y1="147.6" x2="175" y2="158.9"/>
<path class="st0" d="M60.2,63.5c0,4.7-3.8,8.5-8.5,8.5H31.6c-4.7,0-8.6-3.8-8.6-8.5s3.8-8.6,8.5-8.6c1.2,0,2.5,0.3,3.6,0.8
	c1.3-5.2,6.6-8.4,11.8-7.1c3.4,0.8,6,3.4,7,6.8C57.6,56.4,60.1,59.7,60.2,63.5z"/>
<path class="st0" d="M219.4,70.8c0,4.7-3.8,8.5-8.5,8.5h-20.1c-4.7,0-8.6-3.8-8.6-8.5s3.8-8.6,8.5-8.6c1.2,0,2.5,0.3,3.6,0.8
	c1.3-5.2,6.5-8.5,11.8-7.2c3.4,0.8,6.2,3.5,7.1,6.9C216.9,63.7,219.4,67,219.4,70.8z"/>
<path class="st0" d="M587.3,81.2c0,4.7-3.8,8.5-8.5,8.5h-20.1c-4.7,0-8.6-3.8-8.6-8.5s3.8-8.6,8.5-8.6c1.2,0,2.5,0.3,3.6,0.8
	c1.3-5.2,6.5-8.5,11.8-7.2c3.4,0.8,6.2,3.5,7.1,6.9C584.8,74.1,587.3,77.4,587.3,81.2z"/>
<path class="st0" d="M864.1,113.9c0,3.3-2.6,6-5.9,6h-14c-3.3,0-6-2.7-6-6s2.7-6,6-6c0.9,0,1.7,0.2,2.5,0.6c0.9-3.7,4.6-5.9,8.2-5
	c2.4,0.6,4.3,2.4,5,4.8C862.3,109,864.1,111.3,864.1,113.9z"/>
<path class="st0" d="M195.8,207.9c0,5.4-4.4,9.8-9.8,9.8h-23c-5.4-0.2-9.7-4.7-9.5-10.1c0.2-5.2,4.3-9.3,9.5-9.5
	c1.4,0,2.8,0.3,4.1,0.9c1.4-6,7.5-9.7,13.5-8.3c4,0.9,7.1,4,8.2,7.9C192.9,199.8,195.8,203.6,195.8,207.9z"/>
<path class="st0" d="M205.8,212.3c0,3-2.4,5.4-5.4,5.4h-12.7c-3-0.1-5.3-2.7-5.2-5.6c0.1-2.8,2.4-5.1,5.2-5.2c0.8,0,1.6,0.2,2.3,0.5
	c0.7-3.3,4-5.4,7.4-4.7c2.3,0.5,4.1,2.2,4.6,4.5C204.3,207.8,205.8,209.9,205.8,212.3z"/>
<path class="st0" d="M169.7,23c0,7-5.7,12.7-12.7,12.7h-30.1c-7.1,0-12.8-5.7-12.9-12.8s5.7-12.8,12.8-12.9c1.9,0,3.7,0.4,5.4,1.2
	c1.9-7.8,9.8-12.7,17.6-10.8c5.2,1.2,9.3,5.2,10.7,10.3C166,12.3,169.7,17.3,169.7,23z"/>
<path class="st13" d="M590.3,81.2c0,4.7-3.8,8.5-8.5,8.5h-20.1c-4.7,0-8.6-3.8-8.6-8.5s3.8-8.6,8.5-8.6c1.2,0,2.5,0.3,3.6,0.8
	c1.3-5.2,6.5-8.5,11.8-7.2c3.4,0.8,6.2,3.5,7.1,6.9C587.8,74.1,590.3,77.4,590.3,81.2z"/>
<path class="st13" d="M867.1,113.9c0,3.3-2.6,6-5.9,6h-14c-3.3,0-6-2.7-6-6s2.7-6,6-6c0.9,0,1.7,0.2,2.5,0.6c0.9-3.7,4.6-5.9,8.2-5
	c2.4,0.6,4.3,2.4,5,4.8C865.3,109,867.1,111.3,867.1,113.9z"/>
<path class="st13" d="M172.7,23c0,7-5.7,12.7-12.7,12.7h-30.1c-7.1,0-12.8-5.7-12.9-12.8s5.7-12.8,12.8-12.9c1.9,0,3.7,0.4,5.4,1.2
	c1.9-7.8,9.8-12.7,17.6-10.8c5.2,1.2,9.3,5.2,10.7,10.3C169,12.3,172.7,17.3,172.7,23z"/>
<path class="st14" d="M583.3,81.2c0,4.7-3.8,8.5-8.5,8.5h-20.1c-4.7,0-8.6-3.8-8.6-8.5s3.8-8.6,8.5-8.6c1.2,0,2.5,0.3,3.6,0.8
	c1.3-5.2,6.5-8.5,11.8-7.2c3.4,0.8,6.2,3.5,7.1,6.9C580.8,74.1,583.3,77.4,583.3,81.2z"/>
<path class="st14" d="M860.1,113.9c0,3.3-2.6,6-5.9,6h-14c-3.3,0-6-2.7-6-6s2.7-6,6-6c0.9,0,1.7,0.2,2.5,0.6c0.9-3.7,4.6-5.9,8.2-5
	c2.4,0.6,4.3,2.4,5,4.8C858.3,109,860.1,111.3,860.1,113.9z"/>
<path class="st14" d="M165.7,23c0,7-5.7,12.7-12.7,12.7h-30.1c-7.1,0-12.8-5.7-12.9-12.8s5.7-12.8,12.8-12.9c1.9,0,3.7,0.4,5.4,1.2
	c1.9-7.8,9.8-12.7,17.6-10.8c5.2,1.2,9.3,5.2,10.7,10.3C162,12.3,165.7,17.3,165.7,23z"/>
<path class="st0" d="M667,60c0,7-5.7,12.7-12.7,12.7h-30c-7.1,0-12.8-5.7-12.9-12.8s5.7-12.8,12.8-12.9c1.9,0,3.7,0.4,5.4,1.2
	c1.9-7.8,9.8-12.7,17.6-10.8c5.2,1.2,9.3,5.2,10.7,10.3C663.3,49.4,667,54.4,667,60z"/>
<path class="st15" d="M63.2,63.5c0,4.7-3.8,8.5-8.5,8.5H34.6c-4.7,0-8.6-3.8-8.6-8.5s3.8-8.6,8.5-8.6c1.2,0,2.5,0.3,3.6,0.8
	c1.3-5.2,6.6-8.4,11.8-7.1c3.4,0.8,6,3.4,7,6.8C60.6,56.4,63.1,59.7,63.2,63.5z"/>
<path class="st15" d="M222.4,70.8c0,4.7-3.8,8.5-8.5,8.5h-20.1c-4.7,0-8.6-3.8-8.6-8.5s3.8-8.6,8.5-8.6c1.2,0,2.5,0.3,3.6,0.8
	c1.3-5.2,6.5-8.5,11.8-7.2c3.4,0.8,6.2,3.5,7.1,6.9C219.9,63.7,222.4,67,222.4,70.8z"/>
<path class="st15" d="M670,60c0,7-5.7,12.7-12.7,12.7h-30c-7.1,0-12.8-5.7-12.9-12.8s5.7-12.8,12.8-12.9c1.9,0,3.7,0.4,5.4,1.2
	c1.9-7.8,9.8-12.7,17.6-10.8c5.2,1.2,9.3,5.2,10.7,10.3C666.3,49.4,670,54.4,670,60z"/>
<path class="st16" d="M57.2,63.5c0,4.7-3.8,8.5-8.5,8.5H28.6c-4.7,0-8.6-3.8-8.6-8.5s3.8-8.6,8.5-8.6c1.2,0,2.5,0.3,3.6,0.8
	c1.3-5.2,6.6-8.4,11.8-7.1c3.4,0.8,6,3.4,7,6.8C54.6,56.4,57.1,59.7,57.2,63.5z"/>
<path class="st16" d="M216.4,70.8c0,4.7-3.8,8.5-8.5,8.5h-20.1c-4.7,0-8.6-3.8-8.6-8.5s3.8-8.6,8.5-8.6c1.2,0,2.5,0.3,3.6,0.8
	c1.3-5.2,6.5-8.5,11.8-7.2c3.4,0.8,6.2,3.5,7.1,6.9C213.9,63.7,216.4,67,216.4,70.8z"/>
<path class="st16" d="M664,60c0,7-5.7,12.7-12.7,12.7h-30c-7.1,0-12.8-5.7-12.9-12.8s5.7-12.8,12.8-12.9c1.9,0,3.7,0.4,5.4,1.2
	c1.9-7.8,9.8-12.7,17.6-10.8c5.2,1.2,9.3,5.2,10.7,10.3C660.3,49.4,664,54.4,664,60z"/>
<rect x="204.5" y="98" class="st0" width="8.3" height="119.7"/>
<rect x="212.8" y="98" class="st10" width="12" height="119.7"/>
<rect x="224.8" y="98" class="st0" width="26.7" height="119.7"/>
<rect x="221.8" y="98" class="st17" width="26.7" height="119.7"/>
<rect x="230.8" y="98" class="st18" width="26.7" height="119.7"/>
<rect x="231.5" y="101.2" class="st0" width="13.4" height="10.1"/>
<rect x="231.5" y="116.2" class="st3" width="13.4" height="10.1"/>
<rect x="231.5" y="131.1" class="st5" width="13.4" height="10.1"/>
<rect x="231.5" y="146.1" class="st3" width="13.4" height="10.1"/>
<rect x="231.5" y="161.1" class="st4" width="13.4" height="10.1"/>
<rect x="231.5" y="176.1" class="st5" width="13.4" height="10.1"/>
<rect x="231.5" y="191.1" class="st0" width="13.4" height="10.1"/>
<rect x="230" y="205.4" class="st0" width="8.3" height="12.3"/>
<rect x="238.3" y="205.4" class="st3" width="8.3" height="12.3"/>
<rect x="251.5" y="72" class="st0" width="54.5" height="145.7"/>
<rect x="255.5" y="72" class="st19" width="54.5" height="145.7"/>
<rect x="248.5" y="72" class="st20" width="57.5" height="145.7"/>
<rect x="257" y="77.8" class="st0" width="43.6" height="11.3"/>
<rect x="257" y="94.8" class="st5" width="43.6" height="11.3"/>
<rect x="257" y="111.8" class="st4" width="43.6" height="11.3"/>
<rect x="257" y="128.8" class="st3" width="43.6" height="11.3"/>
<rect x="257" y="146.8" class="st3" width="43.6" height="11.3"/>
<rect x="257" y="163.8" class="st0" width="43.6" height="11.3"/>
<rect x="257" y="181.8" class="st5" width="43.6" height="11.3"/>
<rect x="231.5" y="133.1" class="st6" width="13.4" height="10.1"/>
<rect x="231.5" y="178.1" class="st6" width="13.4" height="10.1"/>
<rect x="257" y="96.8" class="st6" width="43.6" height="11.3"/>
<rect x="257" y="183.8" class="st6" width="43.6" height="11.3"/>
<rect x="257" y="198.8" class="st0" width="43.6" height="11.3"/>
<polygon class="st0" points="306,217.7 341.5,217.7 341.5,40.6 306,64.6 "/>
<polygon class="st21" points="310,217.7 345.5,217.7 345.5,40.6 310,64.6 "/>
<polygon class="st22" points="301,217.7 336.5,217.7 336.5,40.6 301,64.6 "/>
<line class="st0" x1="313.9" y1="72" x2="313.9" y2="146.1"/>
<line class="st0" x1="323.7" y1="64.3" x2="323.7" y2="173.5"/>
<line class="st0" x1="332.2" y1="57" x2="332.2" y2="198.8"/>
<polyline class="st0" points="353.5,163.2 381.6,93.2 385,97.1 395.3,93.2 395.3,100.1 402.5,93.2 408.9,97.5 411.9,93.2 429,128.2 
	"/>
<polyline class="st23" points="350.5,163.2 378.6,93.2 382,97.1 392.3,93.2 392.3,100.1 399.5,93.2 405.9,97.5 408.9,93.2 
	426,128.2 "/>
<polyline class="st24" points="355.5,163.2 383.6,93.2 387,97.1 397.3,93.2 397.3,100.1 404.5,93.2 410.9,97.5 413.9,93.2 
	431,128.2 "/>
<polyline class="st0" points="470.4,144 437.5,109.5 425.3,120.7 "/>
<polyline class="st25" points="473.4,144 440.5,109.5 428.3,120.7 "/>
<polyline class="st26" points="467.4,144 434.5,109.5 422.3,120.7 "/>
<line class="st0" x1="389.1" y1="73.6" x2="393.4" y2="84"/>
<line class="st0" x1="404.1" y1="84" x2="407.6" y2="73.6"/>
<line class="st27" x1="405.1" y1="84" x2="408.6" y2="73.6"/>
<line class="st0" x1="405.8" y1="102" x2="411.6" y2="115.5"/>
<line class="st28" x1="387.1" y1="73.6" x2="391.4" y2="84"/>
<line class="st28" x1="403.8" y1="102" x2="409.6" y2="115.5"/>
<line class="st0" x1="399.1" y1="102" x2="397" y2="109.5"/>
<line class="st0" x1="391.3" y1="102" x2="385.8" y2="115.5"/>
<line class="st0" x1="399.1" y1="112.4" x2="405.8" y2="128.2"/>
<line class="st27" x1="392.3" y1="102" x2="386.8" y2="115.5"/>
<line class="st27" x1="400.1" y1="112.4" x2="406.8" y2="128.2"/>
<path class="st0" d="M426.8,163c0,6.9-5.6,12.6-12.5,12.6s-12.6-5.6-12.6-12.6c0,0-0.9-15,12.5-30C414.3,133,426.9,147.3,426.8,163z
	"/>
<path class="st26" d="M193.5,155.2c0,8-6.5,14.5-14.4,14.5c-8,0-14.5-6.5-14.5-14.4l0,0c0,0-1-17.3,14.4-34.6
	C179.1,120.6,193.6,137.1,193.5,155.2z"/>
<path class="st26" d="M428.8,163c0,6.9-5.6,12.6-12.5,12.6s-12.6-5.6-12.6-12.6c0,0-0.9-15,12.5-30C416.3,133,428.9,147.3,428.8,163
	z"/>
<path class="st25" d="M188.5,155.2c0,8-6.5,14.5-14.4,14.5c-8,0-14.5-6.5-14.5-14.4l0,0c0,0-1-17.3,14.4-34.6
	C174.1,120.6,188.6,137.1,188.5,155.2z"/>
<path class="st25" d="M423.8,163c0,6.9-5.6,12.6-12.5,12.6s-12.6-5.6-12.6-12.6c0,0-0.9-15,12.5-30C411.3,133,423.9,147.3,423.8,163
	z"/>
<line class="st0" x1="414.3" y1="146.3" x2="414.3" y2="217.3"/>
<polyline class="st0" points="407,154.3 414.3,167.2 421.6,156.4 "/>
<path class="st0" d="M447.7,185.4c0.2,5.2-3.9,9.6-9.1,9.8c-5.2,0.2-9.6-3.9-9.8-9.1c0-0.2,0-0.4,0-0.6c0,0-0.7-11.3,9.4-22.6
	C438.3,162.8,447.8,173.6,447.7,185.4z"/>
<circle class="st29" cx="154.8" cy="157.9" r="21.9"/>
<path class="st29" d="M449.7,185.4c0.2,5.2-3.9,9.6-9.1,9.8c-5.2,0.2-9.6-3.9-9.8-9.1c0-0.2,0-0.4,0-0.6c0,0-0.7-11.3,9.4-22.6
	C440.3,162.8,449.8,173.6,449.7,185.4z"/>
<circle class="st30" cx="149.8" cy="157.9" r="21.9"/>
<path class="st30" d="M444.7,185.4c0.2,5.2-3.9,9.6-9.1,9.8c-5.2,0.2-9.6-3.9-9.8-9.1c0-0.2,0-0.4,0-0.6c0,0-0.7-11.3,9.4-22.6
	C435.3,162.8,444.8,173.6,444.7,185.4z"/>
<line class="st0" x1="438.3" y1="175.1" x2="438.3" y2="217.3"/>
<line class="st31" x1="154.8" y1="152" x2="154.8" y2="217.7"/>
<line class="st31" x1="179" y1="136" x2="179" y2="217.7"/>
<line class="st31" x1="416.3" y1="146.3" x2="416.3" y2="217.3"/>
<line class="st31" x1="440.3" y1="175.1" x2="440.3" y2="217.3"/>
<polyline class="st0" points="432.8,178.9 438.3,188.6 443.8,180.5 "/>
<polyline class="st12" points="405,154.3 412.3,167.2 419.6,156.4 "/>
<polyline class="st12" points="430.8,178.9 436.3,188.6 441.8,180.5 "/>
<path class="st0" d="M391,208c0,5.3,4.3,9.6,9.6,9.5h22.6c5.3,0,9.7-4.3,9.7-9.6c0-5.3-4.3-9.7-9.6-9.7c-1.4,0-2.8,0.3-4.1,0.9
	c-1.4-5.9-7.4-9.5-13.3-8.1c-3.8,0.9-6.9,3.9-8,7.7C393.8,199.9,391,203.7,391,208z"/>
<path class="st32" d="M191.8,207.9c0,5.4-4.4,9.8-9.8,9.8h-23c-5.4-0.2-9.7-4.7-9.5-10.1c0.2-5.2,4.3-9.3,9.5-9.5
	c1.4,0,2.8,0.3,4.1,0.9c1.4-6,7.5-9.7,13.5-8.3c4,0.9,7.1,4,8.2,7.9C188.9,199.8,191.8,203.6,191.8,207.9z"/>
<path class="st32" d="M387,208c0,5.3,4.3,9.6,9.6,9.5h22.6c5.3,0,9.7-4.3,9.7-9.6c0-5.3-4.3-9.7-9.6-9.7c-1.4,0-2.8,0.3-4.1,0.9
	c-1.4-5.9-7.4-9.5-13.3-8.1c-3.8,0.9-6.9,3.9-8,7.7C389.8,199.9,387,203.7,387,208z"/>
<path class="st32" d="M199.8,207.9c0,5.4-4.4,9.8-9.8,9.8h-23c-5.4-0.2-9.7-4.7-9.5-10.1c0.2-5.2,4.3-9.3,9.5-9.5
	c1.4,0,2.8,0.3,4.1,0.9c1.4-6,7.5-9.7,13.5-8.3c4,0.9,7.1,4,8.2,7.9C196.9,199.8,199.8,203.6,199.8,207.9z"/>
<path class="st32" d="M395,208c0,5.3,4.3,9.6,9.6,9.5h22.6c5.3,0,9.7-4.3,9.7-9.6c0-5.3-4.3-9.7-9.6-9.7c-1.4,0-2.8,0.3-4.1,0.9
	c-1.4-5.9-7.4-9.5-13.3-8.1c-3.8,0.9-6.9,3.9-8,7.7C397.8,199.9,395,203.7,395,208z"/>
<path class="st0" d="M591.4,212.7c0,2.8,2.2,5,5,5h11.7c2.8,0,5-2.3,5-5c0-2.8-2.3-5-5-5c-0.7,0-1.4,0.2-2,0.4
	c-0.8-3.1-3.9-4.9-7-4.1c-1.9,0.5-3.5,2-4,3.9C592.9,208.5,591.4,210.5,591.4,212.7z"/>
<path class="st0" d="M390.2,192.7c-5.1,9-16.6,12.1-25.5,6.9c-2.9-1.7-5.3-4-6.9-6.9H390.2z"/>
<path class="st33" d="M374,192.7h-16.2v-11.1l0.3-4.9c0.2-4.4,3.8-7.8,8.2-7.7c4.2,0.1,7.5,3.5,7.7,7.7V192.7v-16"/>
<path class="st33" d="M390,192.7h-16.2v-11.1l0.3-4.9c0.2-4.4,3.8-7.8,8.2-7.7c4.2,0.1,7.5,3.5,7.7,7.7V192.7v-16"/>
<path class="st34" d="M374,192.7h-16.2v-7.5l0.3-3.3c0.2-3,3.8-5.3,8.2-5.2c4.2,0.1,7.5,2.4,7.7,5.2V192.7v-10.9"/>
<path class="st34" d="M390,192.7h-16.2v-7.5l0.3-3.3c0.2-3,3.8-5.3,8.2-5.2c4.2,0.1,7.5,2.4,7.7,5.2V192.7v-10.9"/>
<path class="st33" d="M368.9,192.7h-8.6v-4.5l0.1-2c0.1-1.8,2-3.2,4.4-3.1c2.2,0.1,4,1.4,4.1,3.1V192.7v-6.5"/>
<path class="st33" d="M386.4,192.7h-8.6v-4.5l0.1-2c0.1-1.8,2-3.2,4.4-3.1c2.2,0.1,4,1.4,4.1,3.1V192.7v-6.5"/>
<path class="st0" d="M363.1,217.7c3.5-6,11.2-8.1,17.2-4.7c1.9,1.1,3.5,2.7,4.7,4.7H363.1z"/>
<line class="st0" x1="363.3" y1="217.7" x2="385.2" y2="217.7"/>
<line class="st0" x1="370.8" y1="211.8" x2="370.8" y2="201.9"/>
<path class="st10" d="M387.2,192.7c-5.1,9-16.6,12.1-25.5,6.9c-2.9-1.7-5.3-4-6.9-6.9H387.2z"/>
<path class="st10" d="M360.1,217.7c3.5-6,11.2-8.1,17.2-4.7c1.9,1.1,3.5,2.7,4.7,4.7H360.1z"/>
<line class="st35" x1="367.8" y1="211.8" x2="367.8" y2="201.9"/>
<path class="st36" d="M393.2,192.7c-5.1,9-16.6,12.1-25.5,6.9c-2.9-1.7-5.3-4-6.9-6.9H393.2z"/>
<path class="st36" d="M366.1,217.7c3.5-6,11.2-8.1,17.2-4.7c1.9,1.1,3.5,2.7,4.7,4.7H366.1z"/>
<line class="st0" x1="377.4" y1="211.8" x2="377.4" y2="201.8"/>
<line class="st0" x1="374" y1="192.7" x2="374" y2="176.7"/>
<path class="st0" d="M389.8,181.1v-4.4c0-4.4-3.5-7.9-7.9-7.9s-7.9,3.5-7.9,7.9l0,0"/>
<path class="st0" d="M357.8,181.6l0.3-4.9c0.2-4.4,3.8-7.8,8.2-7.7c4.2,0.1,7.5,3.5,7.7,7.7"/>
<path class="st0" d="M362.6,188.9c0,0,1.5-8.6,4.8-4.8c0,0,1.7,1.2,1.7,8.6"/>
<path class="st0" d="M384.1,188.9c0,0-1.5-8.6-4.8-4.8c0,0-1.7,1.2-1.7,8.6"/>
<circle class="st0" cx="344.9" cy="246.5" r="3.5"/>
<circle class="st0" cx="455.1" cy="229" r="5.4"/>
<line class="st0" x1="441" y1="235.7" x2="349.5" y2="235.7"/>
<circle class="st0" cx="726" cy="213.1" r="3.5"/>
<circle class="st0" cx="615.8" cy="230.7" r="5.4"/>
<circle class="st37" cx="346.9" cy="246.5" r="3.5"/>
<circle class="st37" cx="457.1" cy="229" r="5.4"/>
<circle class="st37" cx="617.8" cy="230.7" r="5.4"/>
<line class="st0" x1="629.8" y1="223.9" x2="721.3" y2="223.9"/>
<path class="st0" d="M545.5,154.3c0,0-27.5,7-52.3-11.9c-2.2-1.7-3.2-4.5-2.5-7.1c1.2-4.6,4.5-11.1,12.9-10.7c3,0.1,5.8-1.8,6.7-4.7
	c1.9-6.4,7.1-15.3,20.2-10.5c2.5,0.9,5.3,0.3,7.2-1.7c4-4.2,11.6-9.4,18.6-0.8c1.5,1.9,4,2.8,6.3,2.4c2.6-0.4,5.9-0.2,7.8,2.7
	c1.4,2.4,4.1,3.6,6.8,3.1c3.3-0.7,7.3,0.3,10.2,7.2c1,2.4,3.3,4,5.9,4.1c4.9,0.3,12,3,11.9,16.1c-0.1,14.6-13,12.6-20,10.4
	c-2.3-0.7-4.8,0.4-5.8,2.5c-2.2,4.9-8.3,10.4-19.4,5.2"/>
<path class="st32" d="M551.5,153.3c0,0-27.5,7-52.3-11.9c-2.2-1.7-3.2-4.5-2.5-7.1c1.2-4.6,4.5-11.1,12.9-10.7
	c3,0.1,5.8-1.8,6.7-4.7c1.9-6.4,7.1-15.3,20.2-10.5c2.5,0.9,5.3,0.3,7.2-1.7c4-4.2,11.6-9.4,18.6-0.8c1.5,1.9,4,2.8,6.3,2.4
	c2.6-0.4,5.9-0.2,7.8,2.7c1.4,2.4,4.1,3.6,6.8,3.1c3.3-0.7,7.3,0.3,10.2,7.2c1,2.4,3.3,4,5.9,4.1c4.9,0.3,12,3,11.9,16.1
	c-0.1,14.6-13,12.6-20,10.4c-2.3-0.7-4.8,0.4-5.8,2.5c-2.2,4.9-8.3,10.4-19.4,5.2"/>
<path class="st32" d="M543.5,158.3c0,0-27.5,7-52.3-11.9c-2.2-1.7-3.2-4.5-2.5-7.1c1.2-4.6,4.5-11.1,12.9-10.7
	c3,0.1,5.8-1.8,6.7-4.7c1.9-6.4,7.1-15.3,20.2-10.5c2.5,0.9,5.3,0.3,7.2-1.7c4-4.2,11.6-9.4,18.6-0.8c1.5,1.9,4,2.8,6.3,2.4
	c2.6-0.4,5.9-0.2,7.8,2.7c1.4,2.4,4.1,3.6,6.8,3.1c3.3-0.7,7.3,0.3,10.2,7.2c1,2.4,3.3,4,5.9,4.1c4.9,0.3,12,3,11.9,16.1
	c-0.1,14.6-13,12.6-20,10.4c-2.3-0.7-4.8,0.4-5.8,2.5c-2.2,4.9-8.3,10.4-19.4,5.2"/>
<path class="st0" d="M517.6,136.6c0,0,17.7-3.4,27,10.1c0,0,15.5-4.8,15.5,7"/>
<path class="st12" d="M516.6,138.6c0,0,17.7-3.4,27,10.1c0,0,15.5-4.8,15.5,7"/>
<path class="st0" d="M533.7,131.3c7.7,2.3,15.9,2.3,23.7,0"/>
<line class="st0" x1="546.6" y1="217.7" x2="546.6" y2="133"/>
<line class="st31" x1="548.6" y1="217.7" x2="548.6" y2="133"/>
<path class="st0" d="M577.3,141.5c0,0-11.3-1.2-17.2,12.3v63.9"/>
<path class="st31" d="M579.3,141.5c0,0-11.3-1.2-17.2,12.3v63.9"/>
<line class="st12" x1="150.8" y1="152" x2="150.8" y2="217.7"/>
<line class="st12" x1="175" y1="136" x2="175" y2="217.7"/>
<line class="st12" x1="412.3" y1="146.3" x2="412.3" y2="217.3"/>
<line class="st12" x1="436.3" y1="175.1" x2="436.3" y2="217.3"/>
<line class="st12" x1="544.6" y1="217.7" x2="544.6" y2="133"/>
<path class="st12" d="M575.3,141.5c0,0-11.3-1.2-17.2,12.3v63.9"/>
<path class="st0" d="M510.2,210.1c0,4.2-3.4,7.6-7.6,7.6h-36.1c-4.2-0.2-7.4-3.7-7.3-7.8c0.1-4,3.3-7.1,7.3-7.3h0.4
	c0.4-3.9,3.7-6.8,7.5-6.8c1,0,2.1,0.2,3,0.6c1.3-4,5.6-6.1,9.6-4.7c2.2,0.8,4,2.5,4.7,4.7c0.9-0.4,2-0.6,3-0.6
	c3.9,0,7.1,2.9,7.5,6.8h0.4C506.9,202.6,510.3,206,510.2,210.1z"/>
<path class="st38" d="M202.8,212.3c0,3-2.4,5.4-5.4,5.4h-12.7c-3-0.1-5.3-2.7-5.2-5.6c0.1-2.8,2.4-5.1,5.2-5.2
	c0.8,0,1.6,0.2,2.3,0.5c0.7-3.3,4-5.4,7.4-4.7c2.3,0.5,4.1,2.2,4.6,4.5C201.3,207.8,202.8,209.9,202.8,212.3z"/>
<path class="st38" d="M588.4,212.7c0,2.8,2.2,5,5,5h11.7c2.8,0,5-2.3,5-5c0-2.8-2.3-5-5-5c-0.7,0-1.4,0.2-2,0.4
	c-0.8-3.1-3.9-4.9-7-4.1c-1.9,0.5-3.5,2-4,3.9C589.9,208.5,588.4,210.5,588.4,212.7z"/>
<path class="st25" d="M507.2,210.1c0,4.2-3.4,7.6-7.6,7.6h-36.1c-4.2-0.2-7.4-3.7-7.3-7.8c0.1-4,3.3-7.1,7.3-7.3h0.4
	c0.4-3.9,3.7-6.8,7.5-6.8c1,0,2.1,0.2,3,0.6c1.3-4,5.6-6.1,9.6-4.7c2.2,0.8,4,2.5,4.7,4.7c0.9-0.4,2-0.6,3-0.6
	c3.9,0,7.1,2.9,7.5,6.8h0.4C503.9,202.6,507.3,206,507.2,210.1z"/>
<path class="st39" d="M208.8,212.3c0,3-2.4,5.4-5.4,5.4h-12.7c-3-0.1-5.3-2.7-5.2-5.6c0.1-2.8,2.4-5.1,5.2-5.2
	c0.8,0,1.6,0.2,2.3,0.5c0.7-3.3,4-5.4,7.4-4.7c2.3,0.5,4.1,2.2,4.6,4.5C207.3,207.8,208.8,209.9,208.8,212.3z"/>
<path class="st39" d="M594.4,212.7c0,2.8,2.2,5,5,5h11.7c2.8,0,5-2.3,5-5c0-2.8-2.3-5-5-5c-0.7,0-1.4,0.2-2,0.4
	c-0.8-3.1-3.9-4.9-7-4.1c-1.9,0.5-3.5,2-4,3.9C595.9,208.5,594.4,210.5,594.4,212.7z"/>
<path class="st26" d="M513.2,210.1c0,4.2-3.4,7.6-7.6,7.6h-36.1c-4.2-0.2-7.4-3.7-7.3-7.8c0.1-4,3.3-7.1,7.3-7.3h0.4
	c0.4-3.9,3.7-6.8,7.5-6.8c1,0,2.1,0.2,3,0.6c1.3-4,5.6-6.1,9.6-4.7c2.2,0.8,4,2.5,4.7,4.7c0.9-0.4,2-0.6,3-0.6
	c3.9,0,7.1,2.9,7.5,6.8h0.4C509.9,202.6,513.3,206,513.2,210.1z"/>
<rect x="689.7" y="194.9" class="st0" width="7.9" height="22.8"/>
<rect x="692.7" y="194.9" class="st10" width="7.9" height="22.8"/>
<rect x="687.7" y="194.9" class="st40" width="7.9" height="22.8"/>
<path class="st0" d="M713.1,130.6H706c-0.8,0-1.5,0.2-2.2,0.6c-2.8,1.6-10.2,6.1-10.2,9.8v53.8"/>
<path class="st0" d="M674.1,130.7h7.1c0.8,0,1.5,0.2,2.2,0.6c2.8,1.6,10.2,6.1,10.2,9.8v53.8"/>
<path class="st41" d="M711.1,130.6H704c-0.8,0-1.5,0.2-2.2,0.6c-2.8,1.6-10.2,6.1-10.2,9.8v53.8"/>
<path class="st41" d="M672.1,130.7h7.1c0.8,0,1.5,0.2,2.2,0.6c2.8,1.6,10.2,6.1,10.2,9.8v53.8"/>
<circle class="st0" cx="675.7" cy="141.8" r="8.2"/>
<line class="st0" x1="683" y1="138.3" x2="668.3" y2="138.3"/>
<circle class="st0" cx="711.7" cy="141.8" r="8.2"/>
<circle class="st6" cx="675.7" cy="141.8" r="8.2"/>
<circle class="st6" cx="711.7" cy="141.8" r="8.2"/>
<line class="st0" x1="719" y1="138.3" x2="704.3" y2="138.3"/>
<line class="st0" x1="480" y1="138.3" x2="465.3" y2="138.3"/>
<line class="st42" x1="480" y1="139.3" x2="465.3" y2="139.3"/>
<line class="st43" x1="480" y1="141.3" x2="465.3" y2="141.3"/>
<line class="st44" x1="480" y1="140.3" x2="465.3" y2="140.3"/>
<line class="st0" x1="614.8" y1="204.7" x2="664.8" y2="204.7"/>
<line class="st0" x1="614.8" y1="203.7" x2="664.8" y2="203.7"/>
<line class="st0" x1="618.3" y1="195.3" x2="660.5" y2="195.3"/>
<line class="st0" x1="618.3" y1="198.3" x2="660.5" y2="198.3"/>
<line class="st0" x1="618.3" y1="201.3" x2="660.5" y2="201.3"/>
<line class="st0" x1="618.3" y1="192.3" x2="660.5" y2="192.3"/>
<polyline class="st0" points="618.3,204.7 618.3,189.3 660.5,189.3 660.2,204.7 "/>
<polyline class="st0" points="620.1,204.7 616.3,210.3 616.3,217.7 "/>
<polyline class="st0" points="658.3,204.7 662.1,210.3 662.1,217.7 "/>
<line class="st0" x1="616.3" y1="212.8" x2="662.1" y2="212.8"/>
<rect x="771.5" y="108.5" class="st0" width="59.2" height="109.2"/>
<rect x="768.5" y="108.5" class="st45" width="59.2" height="109.2"/>
<rect x="774.5" y="108.5" class="st46" width="59.2" height="109.2"/>
<rect x="768.2" y="103.1" class="st0" width="65.3" height="5.4"/>
<rect x="772.2" y="104.1" class="st7" width="65.3" height="5.4"/>
<rect x="813.2" y="112.5" class="st10" width="12.9" height="101.1"/>
<rect x="215.8" y="98" class="st47" width="12" height="119.7"/>
<rect x="816.2" y="112.5" class="st47" width="12.9" height="101.1"/>
<rect x="777.6" y="112.5" class="st0" width="13.2" height="13.2"/>
<rect x="796.6" y="112.5" class="st3" width="13.2" height="13.2"/>
<rect x="777.6" y="129.5" class="st5" width="13.2" height="13.2"/>
<rect x="796.6" y="129.5" class="st5" width="13.2" height="13.2"/>
<rect x="777.6" y="146.5" class="st0" width="13.2" height="13.2"/>
<rect x="796.6" y="146.5" class="st5" width="13.2" height="13.2"/>
<rect x="775.6" y="129.5" class="st6" width="13.2" height="13.2"/>
<rect x="794.6" y="129.5" class="st6" width="13.2" height="13.2"/>
<rect x="794.6" y="146.5" class="st6" width="13.2" height="13.2"/>
<rect x="777.6" y="163.5" class="st3" width="13.2" height="13.2"/>
<rect x="796.6" y="163.5" class="st0" width="13.2" height="13.2"/>
<rect x="777.6" y="180.5" class="st4" width="13.2" height="13.2"/>
<rect x="796.6" y="180.5" class="st3" width="13.2" height="13.2"/>
<rect x="777.6" y="197.5" class="st0" width="13.2" height="13.2"/>
<rect x="796.6" y="197.5" class="st4" width="13.2" height="13.2"/>
<line class="st0" x1="777.6" y1="213.6" x2="809.8" y2="213.6"/>
<polygon class="st6" points="668.3,138.3 642.3,217.7 707.7,217.7 683,138.3 "/>
<polygon class="st5" points="704.3,138.3 678.3,217.7 743.7,217.7 719,138.3 "/>
<polygon class="st4" points="684.3,138.3 658.3,217.7 723.7,217.7 699,138.3 "/>
</svg>
