<?xml version="1.0" encoding="utf-8"?>
<!-- Generator: Adobe Illustrator 24.0.1, SVG Export Plug-In . SVG Version: 6.00 Build 0)  -->
<svg version="1.1" id="Capa_1" xmlns="http://www.w3.org/2000/svg" xmlns:xlink="http://www.w3.org/1999/xlink" x="0px" y="0px"
	 viewBox="0 0 52.4 70.3" style="enable-background:new 0 0 52.4 70.3;" xml:space="preserve">
<style type="text/css">
	.st0{fill:#DB0029;}
	.st1{fill:#AD0003;stroke:#FFFFFF;stroke-width:3;stroke-miterlimit:10;}
	.st2{fill:none;stroke:#FFFFFF;stroke-width:4.6;stroke-linecap:round;stroke-linejoin:round;}
</style>
<title>doc_</title>
<g id="Capa_2_1_">
	<g id="Layer_1">
		<path class="st0" d="M9.8,68c-4.1,0-7.4-3.3-7.4-7.4V9.7c0-4.1,3.3-7.4,7.4-7.4h23.5c0.6,0,1.2,0.3,1.6,0.7l14.6,14.6
			c0.4,0.4,0.7,1,0.7,1.6v41.4c0,4.1-3.3,7.4-7.5,7.4H9.8z"/>
		<path class="st1" d="M35,1.8c-0.6,0-1.2,0.1-1.8,0.3c-1.7,0.7-2.8,2.4-2.8,4.2V12c0,5.4,4.3,9.7,9.7,9.7h5.7
			c2.5,0,4.6-2.1,4.6-4.6c0-1.2-0.5-2.3-1.3-3.2L38.2,3.1C37.4,2.3,36.2,1.8,35,1.8z"/>
		<line class="st2" x1="14.5" y1="26.9" x2="38" y2="26.9"/>
		<line class="st2" x1="14.5" y1="35.6" x2="38" y2="35.6"/>
		<line class="st2" x1="14.5" y1="44.2" x2="38" y2="44.2"/>
		<line class="st2" x1="14.5" y1="52.9" x2="38" y2="52.9"/>
	</g>
</g>
</svg>
