<?xml version="1.0" encoding="utf-8"?>
<!-- Generator: Adobe Illustrator 24.0.1, SVG Export Plug-In . SVG Version: 6.00 Build 0)  -->
<svg version="1.1" id="Capa_1" xmlns="http://www.w3.org/2000/svg" xmlns:xlink="http://www.w3.org/1999/xlink" x="0px" y="0px"
	 viewBox="0 0 81.6 69.1" style="enable-background:new 0 0 81.6 69.1;" xml:space="preserve">
<style type="text/css">
	.st0{fill:#AD0003;}
	.st1{fill:#DB0029;}
	.st2{fill:none;stroke:#FFFFFF;stroke-width:4.6;stroke-linecap:round;stroke-linejoin:round;}
</style>
<title>heart_</title>
<g id="Capa_2_1_">
	<g id="Layer_1">
		<path class="st0" d="M41.6,12.5c-0.8,0-1.5-0.3-2.1-0.9l-2.3-2.3c-7.5-7.4-19.6-7.4-27.1,0s-7.5,19.6,0,27.1l27.1,27
			c1.1,1.1,2.7,1.7,4.2,1.8L41.6,12.5z"/>
		<path class="st1" d="M40.8,12.3c0.8,0,1.5-0.3,2.1-0.9l2.3-2.3c7.7-7.2,19.8-6.8,27,1c6.9,7.4,6.8,18.7,0,26.1L45,63.3
			c-1.1,1.1-2.7,1.7-4.2,1.9C40.8,65.1,40.8,12.3,40.8,12.3z"/>
		<path class="st2" d="M69.7,26.3c-0.2-4-2.1-7.8-5.2-10.2c-2.8-2.2-6.4-3.1-9.9-2.4"/>
	</g>
</g>
</svg>
