<?xml version="1.0" encoding="utf-8"?>
<!-- Generator: Adobe Illustrator 25.0.0, SVG Export Plug-In . SVG Version: 6.00 Build 0)  -->
<svg version="1.1" id="Capa_1" xmlns="http://www.w3.org/2000/svg" xmlns:xlink="http://www.w3.org/1999/xlink" x="0px" y="0px"
	 viewBox="0 0 66.3 12.4" style="enable-background:new 0 0 66.3 12.4;" xml:space="preserve">
<style type="text/css">
	.st0{fill:#FFFFFF;stroke:#FFFFFF;stroke-width:1.5;stroke-miterlimit:10;}
	.st1{fill:#FFFFFF;}
</style>
<g id="Capa_2_1_">
	<g id="Capa_1-2">
		<path class="st0" d="M54,7c-0.6,0.3-1.2,0.6-1.7,1.1c-0.2,0.3-0.3,0.7-0.2,1c0.1,0.2,0.6,0.3,0.9,0.4c0.4,0,0.7-0.1,1-0.2
			c0,0.1,0,0.1,0,0.2c-0.2,0.2-0.5,0.4-0.8,0.4c-0.5,0.2-1.1,0.2-1.6,0.1c-0.2-0.1-0.2-0.9-0.2-1.4c0.1-0.9,0-1.2-0.8-1.6
			c-0.1-0.1-0.2-0.1-0.4-0.2c0.3-0.1,0.6-0.1,0.9-0.1c0.9-0.1,1.7-0.4,2.4-1C54.3,5,54.5,4,54.2,3.1c-0.3-0.8-1.1-1.3-1.9-1.2
			C51.7,2,51.1,2,50.5,2c-0.6,0.1-1.3,0.1-1.9,0c-1-0.3-1.9-0.7-2.9-1c-0.4,1.2-0.4,1.2,0.8,1.6c-0.6,2.1-1,4.2-1.1,6.4
			c0,0.8-0.2,0.8-0.9,0.8c-0.1-0.2-0.1-0.4-0.1-0.6c-1,0.2-1.2,0.1-1.3-0.9c0-1.5,0-3.1,0.1-4.6c0-0.5,0.5-0.9,0.8-1.4
			c0.1-0.2,0.2-0.4,0.3-0.7c-1.8,0.2-3.4,0.4-5.2,0.7c0.3,0.3,0.5,0.8,0.7,0.8c0.9-0.2,0.9,0.5,0.8,1c-0.1,1.8-0.2,3.4-0.4,5.1
			c0,0.2-0.3,0.6-0.5,0.6c-0.8,0.1-0.8,0.7-0.8,1.3c3.2-0.7,6.4-0.1,9.5-0.4c-0.2-1.4-0.3-2.9-0.5-4.5C48.6,6.4,49,6.8,49,7.4
			s0.1,1.4,0.2,2.1c0.1,1.1,0.6,1.6,1.7,1.6c0.8,0,1.6-0.1,2.3-0.3c1.2-0.3,2-1.4,2.2-2.6C55.4,7.2,54.8,6.6,54,7z M48.1,4.7
			c-0.2-0.1-0.3-0.4-0.4-0.6c0-0.2,0.3-0.4,0.5-0.4c0.5-0.2,1-0.2,1.4-0.3l0.1-0.1c0.8,0.3,1.5,0.6,2.3,0.9c0.2,0.1,0.4,0.4,0.3,0.6
			c-0.1,0.2-0.3,0.4-0.5,0.4C50.6,5.6,49.3,5.4,48.1,4.7z"/>
		<path class="st0" d="M24.6,5.5c-0.3-0.1-0.5-0.1-0.8-0.1c-2.3,0.1-2.4,0-2.9-2.2c0-0.1,0-0.1,0-0.2c-0.1-0.4,0.1-0.9,0.5-1
			c0.7-0.2,1.4-0.2,2,0.2c-0.4,0.2-0.8,0.3-1,0.4s-0.6,0.5-0.6,0.8s0.4,0.7,0.7,0.8c0.6,0.2,1.3,0.3,2,0.2c0.7,0,1.1-0.6,1.1-1.3
			c0-0.3-0.1-0.5-0.3-0.7c-0.3-0.4-0.7-0.7-1.2-0.8c-0.9-0.2-1.8-0.3-2.6-0.3c-1.7,0-3,1.3-3.1,2.9c0,0.1,0,0.2,0,0.4
			c-0.1,0.7,0.4,1.4,1.2,1.5c0.1,0,0.2,0,0.3,0c0.5,0,1.1-0.1,1.7-0.1c0.6,0,1.1,0.4,1.2,0.9c0.1,0.4,0.2,0.9,0.3,1.3
			c0.1,0.6,0.1,1.2-0.6,1.5c-0.8,0.4-1.7,0.4-2.5,0c0.3-0.1,0.5-0.2,0.8-0.4c0.3-0.1,0.5-0.3,0.8-0.5c0.7-0.7,0.5-1.7-0.5-1.8
			c-0.8-0.1-1.6-0.1-2.4,0.1c-0.7,0.2-1.1,1-0.9,1.7c0.1,0.2,0.1,0.3,0.3,0.5c0.3,0.4,0.8,0.8,1.3,1.1c1.3,0.5,2.7,0.6,4.1,0.2
			C25.4,10.3,26,9.1,26,7C26,6.1,25.6,5.6,24.6,5.5z"/>
		<path class="st0" d="M37.1,1.9c-0.4,0-0.8-0.1-1.2-0.1c-1.8,0.2-3.6,0.4-5.4-0.5h-0.1c-0.1,0.5,0,0.9,0,1.4c0.1,0.2,0.7,0.1,1,0.2
			c-0.3,2.2-0.3,4.5,0.1,6.7c0,0.5-0.1,0.8-0.6,1s-0.5,0.4-0.3,0.9l4.1-1c-0.4-1.2-0.8-2.3-1.2-3.5c0,0,0.1,0,0.2-0.1
			c0.2,0.1,0.3,0.3,0.5,0.4c1.2,0.9,2.8,0.7,3.7-0.5c0,0,0,0,0,0C38.8,6,39.1,5,39,4C39,2.9,38.2,2,37.1,1.9z M37.5,5
			c-1.2,0.8-2.8,0.9-4.1,0.3c-0.5-0.2-0.5-0.6,0-1c0.7-0.5,1.6-0.8,2.5-0.8c0.5,0.1,1,0.2,1.5,0.4C38,4.1,38,4.7,37.5,5z"/>
		<path class="st0" d="M16.2,2.4c-2.1-0.9-5.1-0.8-6.3,2.3C9.7,5.3,9.5,6.1,9.4,6.8c0,1.3,0.5,2.6,1.3,3.6c0.9,1.3,2.7,1.6,4,0.7
			c0.1-0.1,0.3-0.2,0.4-0.3c1.7-1.7,2.6-4,2.4-6.4C17.5,3.5,17,2.7,16.2,2.4z M15.8,7.4c-0.6,0.8-1.6,1.3-2.6,1.3
			c-0.1,0-0.3,0-0.4-0.1c-1-0.1-1.9-0.8-2.2-1.8c-0.1-0.8,0.6-1.6,1.7-2c1.1-0.5,2.3-0.3,3.2,0.4c0.7,0.4,0.9,1.3,0.5,1.9
			C15.9,7.2,15.8,7.3,15.8,7.4L15.8,7.4z"/>
		<path class="st0" d="M7.7,5.7C6.9,5.8,6.1,6.1,5.5,6.7C4.9,7.4,5,8.2,5.9,8.5c0.4,0.1,0.9,0.2,1.4,0.1c0.3-0.1,0.7-0.3,1-0.4
			C8.2,8.4,8.2,8.6,8.1,8.7c-0.5,0.7-1.4,1.1-2.3,1c-0.7,0-1.3-0.5-1.4-1.2C4.2,8,4.1,7.4,4.2,6.8c0.3-1.7,0.6-3.4,0.9-5.1L0.8,1.2
			C0.7,1.8,0.8,2,1.3,2.1s0.5,0.4,0.5,0.8c-0.2,2.3,0,4.5,0.6,6.7c-1.3,0.2-1.3,0.2-0.9,1.6c0.6-0.2,1.2-0.3,1.8-0.4
			c1.4,0,2.7,0.1,4.1,0.2C7.6,11,8,11,8,10.9C8.9,9.6,9.2,8,8.8,6.5c0-0.5-0.5-0.9-1-0.8C7.8,5.7,7.8,5.7,7.7,5.7z"/>
		<path class="st0" d="M63.6,7.8c-0.3-1.2-0.6-2.3-1.1-3.5s-0.8-2.2-1.2-3.2c-1,0.3-1.9,0.5-2.9,0.7c-0.2,2.6-0.9,5-2.1,7.3
			c-0.2-0.1-0.4-0.2-0.6-0.2c-0.2,0.3-0.4,0.6-0.5,0.9c1.3,0.4,2.5,0.8,3.8,1.1c0.1-0.4,0.1-0.9,0.1-1.3l-1.4-0.2
			c0.3-0.9,0.6-1.8,0.9-2.7c0.7,0.1,1.3,0.2,1.9,0.2s0.7,0.3,0.7,0.8v2.9c0.9-0.1,1.8-0.2,2.7-0.2c0.9,0,1,0.1,1.3-1.1
			C64,9.5,63.9,8.6,63.6,7.8z M60.6,5.6c-0.3,0.1-0.7,0.2-1,0.2c-0.2-0.2-0.7-0.3-0.9-0.6s0-0.9,0.5-1.2c0.3-0.2,0.6-0.3,0.9-0.4
			c0.5-0.1,1-0.1,1.2,0.6C61.5,4.8,61.2,5.4,60.6,5.6L60.6,5.6z"/>
		<path class="st1" d="M54,7c-0.6,0.3-1.2,0.6-1.7,1.1c-0.2,0.3-0.3,0.7-0.2,1c0.1,0.2,0.6,0.3,0.9,0.4c0.4,0,0.7-0.1,1-0.2
			c0,0.1,0,0.1,0,0.2c-0.2,0.2-0.5,0.4-0.8,0.4c-0.5,0.2-1.1,0.2-1.6,0.1c-0.2-0.1-0.2-0.9-0.2-1.4c0.1-0.9,0-1.2-0.8-1.6
			c-0.1-0.1-0.2-0.1-0.4-0.2c0.3-0.1,0.6-0.1,0.9-0.1c0.9-0.1,1.7-0.4,2.4-1C54.3,5,54.5,4,54.2,3.1c-0.3-0.8-1.1-1.3-1.9-1.2
			C51.7,2,51.1,2,50.5,2c-0.6,0.1-1.3,0.1-1.9,0c-1-0.3-1.9-0.7-2.9-1c-0.4,1.2-0.4,1.2,0.8,1.6c-0.6,2.1-1,4.2-1.1,6.4
			c0,0.8-0.2,0.8-0.9,0.8c-0.1-0.2-0.1-0.4-0.1-0.6c-1,0.2-1.2,0.1-1.3-0.9c0-1.5,0-3.1,0.1-4.6c0-0.5,0.5-0.9,0.8-1.4
			c0.1-0.2,0.2-0.4,0.3-0.7c-1.8,0.2-3.4,0.4-5.2,0.7c0.3,0.3,0.5,0.8,0.7,0.8c0.9-0.2,0.9,0.5,0.8,1c-0.1,1.8-0.2,3.4-0.4,5.1
			c0,0.2-0.3,0.6-0.5,0.6c-0.8,0.1-0.8,0.7-0.8,1.3c3.2-0.7,6.4-0.1,9.5-0.4c-0.2-1.4-0.3-2.9-0.5-4.5C48.6,6.4,49,6.8,49,7.4
			s0.1,1.4,0.2,2.1c0.1,1.1,0.6,1.6,1.7,1.6c0.8,0,1.6-0.1,2.3-0.3c1.2-0.3,2-1.4,2.2-2.6C55.4,7.2,54.8,6.6,54,7z M48.1,4.7
			c-0.2-0.1-0.3-0.4-0.4-0.6c0-0.2,0.3-0.4,0.5-0.4c0.5-0.2,1-0.2,1.4-0.3l0.1-0.1c0.8,0.3,1.5,0.6,2.3,0.9c0.2,0.1,0.4,0.4,0.3,0.6
			c-0.1,0.2-0.3,0.4-0.5,0.4C50.6,5.6,49.3,5.4,48.1,4.7z"/>
		<path class="st1" d="M24.6,5.5c-0.3-0.1-0.5-0.1-0.8-0.1c-2.3,0.1-2.4,0-2.9-2.2c0-0.1,0-0.1,0-0.2c-0.1-0.4,0.1-0.9,0.5-1
			c0.7-0.2,1.4-0.2,2,0.2c-0.4,0.2-0.8,0.3-1,0.4s-0.6,0.5-0.6,0.8s0.4,0.7,0.7,0.8c0.6,0.2,1.3,0.3,2,0.2c0.7,0,1.1-0.6,1.1-1.3
			c0-0.3-0.1-0.5-0.3-0.7c-0.3-0.4-0.7-0.7-1.2-0.8c-0.9-0.2-1.8-0.3-2.6-0.3c-1.7,0-3,1.3-3.1,2.9c0,0.1,0,0.2,0,0.4
			c-0.1,0.7,0.4,1.4,1.2,1.5c0.1,0,0.2,0,0.3,0c0.5,0,1.1-0.1,1.7-0.1c0.6,0,1.1,0.4,1.2,0.9c0.1,0.4,0.2,0.9,0.3,1.3
			c0.1,0.6,0.1,1.2-0.6,1.5c-0.8,0.4-1.7,0.4-2.5,0c0.3-0.1,0.5-0.2,0.8-0.4c0.3-0.1,0.5-0.3,0.8-0.5c0.7-0.7,0.5-1.7-0.5-1.8
			c-0.8-0.1-1.6-0.1-2.4,0.1c-0.7,0.2-1.1,1-0.9,1.7c0.1,0.2,0.1,0.3,0.3,0.5c0.3,0.4,0.8,0.8,1.3,1.1c1.3,0.5,2.7,0.6,4.1,0.2
			C25.4,10.3,26,9.1,26,7C26,6.1,25.6,5.6,24.6,5.5z"/>
		<path class="st1" d="M37.1,1.9c-0.4,0-0.8-0.1-1.2-0.1c-1.8,0.2-3.6,0.4-5.4-0.5h-0.1c-0.1,0.5,0,0.9,0,1.4c0.1,0.2,0.7,0.1,1,0.2
			c-0.3,2.2-0.3,4.5,0.1,6.7c0,0.5-0.1,0.8-0.6,1s-0.5,0.4-0.3,0.9l4.1-1c-0.4-1.2-0.8-2.3-1.2-3.5c0,0,0.1,0,0.2-0.1
			c0.2,0.1,0.3,0.3,0.5,0.4c1.2,0.9,2.8,0.7,3.7-0.5c0,0,0,0,0,0C38.8,6,39.1,5,39,4C39,2.9,38.2,2,37.1,1.9z M37.5,5
			c-1.2,0.8-2.8,0.9-4.1,0.3c-0.5-0.2-0.5-0.6,0-1c0.7-0.5,1.6-0.8,2.5-0.8c0.5,0.1,1,0.2,1.5,0.4C38,4.1,38,4.7,37.5,5z"/>
		<path class="st1" d="M16.2,2.4c-2.1-0.9-5.1-0.8-6.3,2.3C9.7,5.3,9.5,6.1,9.4,6.8c0,1.3,0.5,2.6,1.3,3.6c0.9,1.3,2.7,1.6,4,0.7
			c0.1-0.1,0.3-0.2,0.4-0.3c1.7-1.7,2.6-4,2.4-6.4C17.5,3.5,17,2.7,16.2,2.4z M15.8,7.4c-0.6,0.8-1.6,1.3-2.6,1.3
			c-0.1,0-0.3,0-0.4-0.1c-1-0.1-1.9-0.8-2.2-1.8c-0.1-0.8,0.6-1.6,1.7-2c1.1-0.5,2.3-0.3,3.2,0.4c0.7,0.4,0.9,1.3,0.5,1.9
			C15.9,7.2,15.8,7.3,15.8,7.4L15.8,7.4z"/>
		<path class="st1" d="M7.7,5.7C6.9,5.8,6.1,6.1,5.5,6.7C4.9,7.4,5,8.2,5.9,8.5c0.4,0.1,0.9,0.2,1.4,0.1c0.3-0.1,0.7-0.3,1-0.4
			C8.2,8.4,8.2,8.6,8.1,8.7c-0.5,0.7-1.4,1.1-2.3,1c-0.7,0-1.3-0.5-1.4-1.2C4.2,8,4.1,7.4,4.2,6.8c0.3-1.7,0.6-3.4,0.9-5.1L0.8,1.2
			C0.7,1.8,0.8,2,1.3,2.1s0.5,0.4,0.5,0.8c-0.2,2.3,0,4.5,0.6,6.7c-1.3,0.2-1.3,0.2-0.9,1.6c0.6-0.2,1.2-0.3,1.8-0.4
			c1.4,0,2.7,0.1,4.1,0.2C7.6,11,8,11,8,10.9C8.9,9.6,9.2,8,8.8,6.5c0-0.5-0.5-0.9-1-0.8C7.8,5.7,7.8,5.7,7.7,5.7z"/>
		<path class="st1" d="M63.6,7.8c-0.3-1.2-0.6-2.3-1.1-3.5s-0.8-2.2-1.2-3.2c-1,0.3-1.9,0.5-2.9,0.7c-0.2,2.6-0.9,5-2.1,7.3
			c-0.2-0.1-0.4-0.2-0.6-0.2c-0.2,0.3-0.4,0.6-0.5,0.9c1.3,0.4,2.5,0.8,3.8,1.1c0.1-0.4,0.1-0.9,0.1-1.3l-1.4-0.2
			c0.3-0.9,0.6-1.8,0.9-2.7c0.7,0.1,1.3,0.2,1.9,0.2s0.7,0.3,0.7,0.8v2.9c0.9-0.1,1.8-0.2,2.7-0.2c0.9,0,1,0.1,1.3-1.1
			C64,9.5,63.9,8.6,63.6,7.8z M60.6,5.6c-0.3,0.1-0.7,0.2-1,0.2c-0.2-0.2-0.7-0.3-0.9-0.6s0-0.9,0.5-1.2c0.3-0.2,0.6-0.3,0.9-0.4
			c0.5-0.1,1-0.1,1.2,0.6C61.5,4.8,61.2,5.4,60.6,5.6L60.6,5.6z"/>
	</g>
</g>
</svg>
