<?xml version="1.0" encoding="utf-8"?>
<!-- Generator: Adobe Illustrator 24.0.1, SVG Export Plug-In . SVG Version: 6.00 Build 0)  -->
<svg version="1.1" id="Capa_1" xmlns="http://www.w3.org/2000/svg" xmlns:xlink="http://www.w3.org/1999/xlink" x="0px" y="0px"
	 viewBox="0 0 45 45" style="enable-background:new 0 0 45 45;" xml:space="preserve">
<style type="text/css">
	.st0{fill:#F9F9F8;}
	.st1{fill:#FFEB76;}
	.st2{fill:#050505;}
</style>
<title>sinpe</title>
<circle class="st0" cx="22.5" cy="22.5" r="22.5"/>
<g id="NICh6V">
	<path class="st1" d="M9.8,21.8c-1.4,1.9-2.6,3.9-3.7,5.9c-0.7,1.3-1.2,2.7-1.5,4.1c-0.1,0.7-0.1,1.5,0,2.2c0.2,2,2.1,3.5,4.1,3.2
		c1.8,0,3.7-0.4,5.4-1.1c1-0.4,2-0.8,2.9-1.3c0.6-0.3,0.6-0.3,1.3,0c-1,0.7-2,1.4-3,2c-2.3,1.5-4.8,2.8-7.3,3.9
		c-1.3,0.6-2.8,0.8-4.3,0.6c-1.6-0.3-2.8-1.7-2.9-3.4c0-1.5,0.2-3.1,0.8-4.5c1.1-2.8,2.5-5.4,4.4-7.8c0.9-1.2,1.8-2.3,2.6-3.5
		c0.2-0.3,0.4-0.5,0.7-0.7C9.3,21.4,9.5,21.9,9.8,21.8z"/>
	<path class="st1" d="M22.8,12.6c0.5-0.4,0.9-0.8,1.4-1.1c1.1-0.7,2.2-1.5,3.2-2.3c0.7-0.5,1.4-0.9,2.1-1.3c1.1-0.7,2.3-1.5,3.5-2.1
		c1.9-1.1,3.8-2,5.9-2.6c1-0.3,2-0.3,2.9,0c1.5,0.4,2.5,1.7,2.6,3.3c0.1,1.2-0.1,2.4-0.5,3.6c-0.7,2.1-1.6,4-2.8,5.9
		c-0.1,0.1-0.1,0.3-0.3,0.3s-0.1-0.2-0.2-0.3c-0.1-0.1-0.1-0.2-0.2-0.3c-0.4-0.7-0.5-1.5-0.2-2.3c0.3-0.8,0.3-1.7,0.2-2.5
		c-0.1-1.8-1.5-3.3-3.3-3.4c-1.1-0.1-2.2,0-3.3,0.3c-3.7,1-7.2,2.6-10.3,4.9C23.3,12.5,23.1,12.7,22.8,12.6z"/>
	<path class="st2" d="M27.1,20.2c0,1.1,0,2,0,3c0,0.3-0.1,0.4-0.4,0.4c-0.4,0-1.1,0-1.6,0c-0.3,0-0.3-0.1-0.3-0.3c0-3,0-6,0-9
		c0-0.3,0.1-0.4,0.4-0.4c0.3,0,0.8,0,1.3,0c0.7,0,0.7,0,0.7,0.7c0,0,0.1,0,0.1,0c1.3-1.1,3.2-1,4.4,0.2c0.4,0.4,0.6,0.9,0.7,1.4
		c0.3,0.9,0.3,1.8,0,2.6c-0.5,1.6-2.2,2.6-3.9,2.1C27.9,20.8,27.4,20.6,27.1,20.2z M30.1,17.4c0.1-0.9-0.6-1.7-1.4-1.8
		c0,0,0,0-0.1,0c-0.9,0-1.6,0.8-1.5,1.6c0,0,0,0.1,0,0.1c-0.1,0.8,0.4,1.6,1.3,1.8c0.8,0.1,1.6-0.4,1.8-1.3
		C30.2,17.7,30.2,17.6,30.1,17.4z"/>
	<path class="st2" d="M18.2,14.9c0.7-0.9,1.8-1.3,2.9-1c1.2,0.2,2,1.2,2,2.4c0.1,1.5,0,3,0,4.4c0,0.3-0.1,0.3-0.3,0.3
		c-0.5,0-1.1,0-1.6,0c-0.3,0-0.4-0.1-0.4-0.4c0-1.1,0-2.2,0-3.3s-0.4-1.4-1.1-1.4c-0.8,0-1.4,0.6-1.4,1.3c0,0,0,0.1,0,0.1
		c0,1.1,0,2.2,0,3.3c0,0.3-0.1,0.5-0.4,0.4c-0.4,0-1.1,0-1.6,0c-0.3,0-0.3-0.1-0.3-0.3c0-2.2,0-4.3,0-6.5c0-0.3,0.1-0.3,0.4-0.3
		c0.5,0,1,0,1.5,0c0.5,0,0.6,0.1,0.5,0.6C18.1,14.6,18.1,14.8,18.2,14.9z"/>
	<path class="st2" d="M35.5,18.1c0.2,0.9,1.2,1.5,2.1,1.2c0.3-0.1,0.5-0.2,0.7-0.4c0.4-0.3,0.6-0.2,0.9,0.1c0.1,0.1,0.2,0.2,0.3,0.3
		c0.1,0.2,0.5,0.3,0.4,0.4c-0.1,0.3-0.4,0.5-0.6,0.6c-1.4,0.9-3.1,0.9-4.5,0.2c-1.1-0.6-1.7-1.7-1.6-3c-0.2-2,1.3-3.7,3.3-3.9
		c0.4,0,0.8,0,1.1,0.1c1.9,0.3,3.1,2,2.9,3.9c0,0.4-0.2,0.3-0.4,0.3L35.5,18.1z M36.8,16.8c0.3,0,0.7,0,1,0s0.4-0.2,0.3-0.5
		c-0.2-0.6-0.7-1-1.3-0.9c-0.6,0.1-1.1,0.5-1.3,1.1c0,0.3,0.1,0.3,0.3,0.3H36.8z"/>
	<path class="st2" d="M7.6,13.8c0.9,0,1.7,0.2,2.5,0.6c0.3,0.1,0.4,0.3,0.2,0.6S10,15.9,9.7,16S9,15.8,8.6,15.7
		c-0.4-0.2-0.8-0.2-1.3-0.2c-0.3,0-0.5,0-0.6,0.3c-0.1,0.3,0.2,0.4,0.4,0.5c0.5,0.2,1.1,0.4,1.6,0.6c0.9,0.2,1.6,0.9,1.6,1.8
		c0.1,1-0.5,1.9-1.5,2.2c-1.6,0.5-3.3,0.3-4.7-0.6c-0.1-0.1-0.2-0.2,0-0.3c0.2-0.4,0.3-1,0.6-1.2c0.3-0.2,0.8,0.3,1.2,0.5
		c0.5,0.2,1.1,0.3,1.6,0.3c0.2,0,0.5-0.1,0.5-0.4c0-0.3-0.2-0.4-0.4-0.5c-0.7-0.3-1.4-0.5-2.2-0.8c-0.6-0.2-1.1-0.8-1.1-1.5
		C4.6,14.6,5.6,13.8,7.6,13.8z"/>
	<path class="st2" d="M14,17.4c0,1,0,2.1,0,3.1c0,0.3,0,0.5-0.4,0.5c-0.5,0-1,0-1.5,0c-0.3,0-0.4-0.1-0.4-0.4c0-2.1,0-4.2,0-6.3
		c0-0.3,0-0.4,0.4-0.4c0.5,0,1.1,0,1.6,0c0.3,0,0.4,0.1,0.4,0.4C14,15.3,14,16.4,14,17.4z"/>
	<path class="st2" d="M10.1,28c0.5-1,1.5-1.6,2.6-1.5c0.9,0,1.6,0.6,1.8,1.5c0.2-0.1,0.2-0.3,0.3-0.4c0.6-0.9,1.7-1.3,2.8-1
		c0.9,0.2,1.5,1,1.5,1.9c0.2,1.7,0,3.4,0.1,5.1c0,0.1,0,0.2-0.2,0.2s-0.1-0.2-0.1-0.3v-4.2c0-0.3,0-0.5,0-0.8
		c-0.1-0.8-0.3-1.5-1.2-1.7c-0.9-0.3-1.8-0.1-2.4,0.7c-0.4,0.5-0.6,1.2-0.6,1.8c0,1.3,0,2.6,0,3.9c0,0.2,0.2,0.6-0.2,0.6
		s-0.1-0.4-0.1-0.6c0-1.3,0-2.5,0-3.8c0-0.3,0-0.6,0-0.9c-0.1-0.7-0.4-1.4-1.1-1.6c-0.8-0.3-1.7-0.1-2.3,0.6
		c-0.5,0.6-0.8,1.5-0.8,2.3c0,1.3,0,2.4,0,3.7c0,0.1,0.1,0.4-0.2,0.4s-0.1-0.3-0.1-0.4v-6.4c0-0.1-0.1-0.4,0.2-0.4
		c0.3,0,0.1,0.3,0.1,0.4C10.2,27.2,10.1,27.7,10.1,28z"/>
	<path class="st2" d="M23.2,34c-0.9,0-1.7-0.5-2.2-1.3c-1.1-1.6-1.1-3.6,0-5.2c1.1-1.3,3-1.5,4.4-0.5c0.1,0.1,0.2,0.2,0.4,0.3
		c1.3,1.7,1.2,4.2-0.3,5.8C24.9,33.8,24.1,34.1,23.2,34z M20.6,30.3c0,0.8,0.2,1.7,0.7,2.4c0.9,1.3,2.6,1.6,3.9,0.7
		c0.3-0.2,0.5-0.4,0.7-0.7c0.9-1.4,0.9-3.2,0-4.6c-0.8-1.3-2.5-1.7-3.8-0.8c-0.3,0.2-0.6,0.5-0.8,0.8C20.8,28.7,20.6,29.5,20.6,30.3
		L20.6,30.3z"/>
	<path class="st2" d="M30.2,33.4c0.8-2.1,1.6-4.2,2.4-6.3c0.1-0.2,0-0.6,0.4-0.5c0.4,0.1,0,0.4-0.1,0.6c-0.8,2.1-1.5,4.1-2.3,6.2
		c-0.1,0.2,0,0.4-0.3,0.4s-0.3-0.3-0.3-0.4c-0.9-2.1-1.7-4.2-2.6-6.3c-0.1-0.1-0.3-0.4-0.1-0.5c0.3-0.1,0.3,0.2,0.4,0.4
		c0.8,2,1.6,3.9,2.4,5.9C30,33.1,30,33.3,30.2,33.4z"/>
	<path class="st2" d="M14.1,11.9c0,0.7-0.6,1.2-1.3,1.2c-0.7,0-1.2-0.6-1.2-1.3c0-0.7,0.6-1.3,1.3-1.3
		C13.5,10.6,14.1,11.1,14.1,11.9C14.1,11.9,14.1,11.9,14.1,11.9z"/>
	<path class="st2" d="M35.8,28.9v4.6c0,0.2,0.1,0.4-0.2,0.4c-0.3,0-0.1-0.3-0.1-0.4c0-3.1,0-6.1,0-9.2c0-0.1-0.1-0.4,0.1-0.4
		c0.3,0,0.2,0.3,0.2,0.4C35.8,24.3,35.8,28.9,35.8,28.9z"/>
	<path class="st2" d="M33.7,30.2c0-1.1,0-2.2,0-3.2c0-0.1-0.1-0.3,0.1-0.4c0.2,0,0.2,0.2,0.2,0.3c0,2.2,0,4.4,0,6.6
		c0,0.1,0.1,0.3-0.2,0.3s-0.1-0.2-0.2-0.3L33.7,30.2L33.7,30.2z"/>
	<path class="st2" d="M23,25.9c0.5-0.7,1.1-1.4,1.8-2L23,25.9z"/>
	<path class="st2" d="M34,24.6c-0.1,0.2,0.1,0.7-0.2,0.7s-0.2-0.4-0.2-0.7c0-0.2-0.2-0.7,0.1-0.6S33.9,24.4,34,24.6z"/>
</g>
</svg>
