<?xml version="1.0" encoding="utf-8"?>
<!-- Generator: Adobe Illustrator 24.0.1, SVG Export Plug-In . SVG Version: 6.00 Build 0)  -->
<svg version="1.1" id="Capa_1" xmlns="http://www.w3.org/2000/svg" xmlns:xlink="http://www.w3.org/1999/xlink" x="0px" y="0px"
	 viewBox="0 0 89.9 61.7" style="enable-background:new 0 0 89.9 61.7;" xml:space="preserve">
<style type="text/css">
	.st0{fill:#EB3648;}
	.st1{fill:#AD0003;}
	.st2{fill:#FFFFFF;}
	.st3{fill:#AD0003;stroke:#FFFFFF;stroke-width:2;stroke-miterlimit:10;}
	.st4{fill:none;stroke:#FFFFFF;stroke-width:4.6;stroke-linecap:round;stroke-linejoin:round;}
</style>
<title>truck_</title>
<g id="Capa_2_1_">
	<g id="Layer_1">
		<path class="st0" d="M8.8,52c-1.3,0-2.3-1-2.3-2.3V34.8c0-3.7,1.6-7.2,4.3-9.7l8-7.3c2.7-2.5,6.2-3.8,9.9-3.8h19.9
			c1.3,0,2.3,1,2.3,2.3v33.4c0,1.3-1,2.3-2.3,2.3H8.8z"/>
		<path class="st1" d="M48.5,49.7H8.8V34.8c0-2,0.6-4,1.7-5.8h38V49.7z"/>
		<path class="st2" d="M34.5,30.6H20c-0.5,0.1-1.1-0.3-1.1-0.8c-0.1-0.4,0.1-0.8,0.5-1l5-4c1.5-1.2,3.3-1.8,5.2-1.8h4.3"/>
		<path class="st3" d="M21.2,59.4c-4.7,0-8.6-3.8-8.6-8.6c0-4.7,3.8-8.6,8.6-8.6c4.7,0,8.6,3.8,8.6,8.5l0,0
			C29.7,55.6,25.9,59.4,21.2,59.4z"/>
		<path class="st0" d="M50.8,52.2c-10.5,0-13.3-0.6-14.5-1.2c-0.8-0.4-1.3-1.2-1.3-2.1V11.4c0-5,4.1-9.1,9.1-9.1h34.5
			c5,0,9.1,4.1,9.1,9.1v31.4c0,5-4.1,9.1-9.1,9.1h-17C61.5,52,56.3,52.2,50.8,52.2L50.8,52.2z"/>
		<path class="st1" d="M85.3,29v13.9c0,3.8-3.1,6.8-6.8,6.8h-17c0,0-20.8,0.8-24.2-0.8V29H85.3z"/>
		<path class="st4" d="M78.5,22.8v-7.7c0-2.1-1.7-3.8-3.8-3.8H61"/>
		<path class="st3" d="M62.7,59.4c-4.7,0-8.6-3.8-8.6-8.6c0-4.7,3.8-8.6,8.6-8.6c4.7,0,8.6,3.8,8.6,8.6l0,0
			C71.3,55.6,67.4,59.4,62.7,59.4z"/>
	</g>
</g>
</svg>
