<svg xmlns="http://www.w3.org/2000/svg" xmlns:xlink="http://www.w3.org/1999/xlink" viewBox="0 0 783.37 1044"><defs><style>.cls-1{opacity:0.5;fill:url(#Degradado_sin_nombre_50);}.cls-2{fill:url(#Degradado_sin_nombre_26);}.cls-3,.cls-6{font-size:33.25px;}.cls-28,.cls-3,.cls-6{fill:#c4c4c4;}.cls-15,.cls-3,.cls-6{font-family:MyriadPro-Regular, Myriad Pro;}.cls-3{letter-spacing:0.01em;}.cls-4{letter-spacing:0em;}.cls-5{letter-spacing:0em;}.cls-7{letter-spacing:-0.03em;}.cls-8{letter-spacing:-0.01em;}.cls-9{letter-spacing:-0.01em;}.cls-10{letter-spacing:-0.01em;}.cls-11{letter-spacing:0.01em;}.cls-12{letter-spacing:-0.01em;}.cls-13{letter-spacing:0em;}.cls-14,.cls-29{fill:#dbdbdb;}.cls-15{font-size:43.74px;letter-spacing:0.06em;}.cls-16{fill:#db0029;}.cls-17,.cls-18,.cls-19,.cls-20,.cls-22,.cls-23,.cls-30,.cls-31{fill:none;}.cls-17,.cls-18,.cls-19,.cls-26,.cls-27{stroke:#fff;}.cls-17,.cls-18,.cls-19,.cls-23,.cls-31{stroke-linecap:round;}.cls-17,.cls-18,.cls-19,.cls-22,.cls-23,.cls-30,.cls-31{stroke-linejoin:round;}.cls-17{stroke-width:4.6px;}.cls-18{stroke-width:8px;}.cls-19,.cls-27{stroke-width:3px;}.cls-21,.cls-26,.cls-27{fill:#ad0003;}.cls-22,.cls-23,.cls-33{stroke:#000;}.cls-22,.cls-23,.cls-30,.cls-31{stroke-width:6px;}.cls-24{fill:#eb3648;}.cls-25{fill:#fff;}.cls-26,.cls-27,.cls-33{stroke-miterlimit:10;}.cls-26{stroke-width:2px;}.cls-29{opacity:0.6;}.cls-30,.cls-31{stroke:#ad0003;}.cls-32{opacity:0.7;}.cls-33{stroke-width:4px;}.cls-34{fill:url(#Degradado_sin_nombre_77);}.cls-35{fill:#eb445a;}.cls-36{fill:#2dd36f;}.cls-37{fill:#3dc2ff;}</style><linearGradient id="Degradado_sin_nombre_50" x1="401.11" y1="1044" x2="401.11" gradientUnits="userSpaceOnUse"><stop offset="0" stop-color="#fff" stop-opacity="0"/><stop offset="0.15" stop-color="#e8ebec" stop-opacity="0.5"/><stop offset="0.5" stop-color="#e8ebec" stop-opacity="0.5"/><stop offset="0.85" stop-color="#e8ebec" stop-opacity="0.5"/><stop offset="1" stop-color="#fff" stop-opacity="0"/></linearGradient><linearGradient id="Degradado_sin_nombre_26" x1="327.11" y1="1044" x2="327.11" gradientUnits="userSpaceOnUse"><stop offset="0" stop-color="#fff" stop-opacity="0"/><stop offset="0.15" stop-color="#fff"/><stop offset="0.5" stop-color="#fff"/><stop offset="0.85" stop-color="#fff"/><stop offset="1" stop-color="#fff" stop-opacity="0"/></linearGradient><radialGradient id="Degradado_sin_nombre_77" cx="325.71" cy="198.12" r="100.61" gradientUnits="userSpaceOnUse"><stop offset="0.19" stop-color="#ffc409" stop-opacity="0"/><stop offset="0.64" stop-color="#ffc409" stop-opacity="0"/><stop offset="0.68" stop-color="#ffc409" stop-opacity="0.02"/><stop offset="0.72" stop-color="#ffc409" stop-opacity="0.08"/><stop offset="0.77" stop-color="#ffc409" stop-opacity="0.19"/><stop offset="0.83" stop-color="#ffc409" stop-opacity="0.33"/><stop offset="0.88" stop-color="#ffc409" stop-opacity="0.52"/><stop offset="0.94" stop-color="#ffc409" stop-opacity="0.74"/><stop offset="1" stop-color="#ffc409"/></radialGradient></defs><g id="Capa_2" data-name="Capa 2"><g id="Capa_1-2" data-name="Capa 1"><rect class="cls-1" x="18.86" width="764.51" height="1044"/><rect class="cls-2" x="20.02" width="614.18" height="1044"/><text class="cls-3" transform="translate(191.25 418.06)">M<tspan class="cls-4" x="27.13" y="0">i cue</tspan><tspan class="cls-5" x="91.84" y="0">n</tspan><tspan class="cls-4" x="110.17" y="0">ta</tspan></text><text class="cls-6" transform="translate(191.25 584.32)"><tspan class="cls-7">P</tspan><tspan x="16.83" y="0">ago</tspan></text><text class="cls-6" transform="translate(191.25 736.73)">Di<tspan class="cls-8" x="29.93" y="0">r</tspan><tspan x="40.47" y="0">e</tspan><tspan class="cls-9" x="57.13" y="0">c</tspan><tspan x="71.83" y="0">ciones de e</tspan><tspan class="cls-10" x="227.22" y="0">n</tspan><tspan x="245.24" y="0">vío</tspan></text><text class="cls-6" transform="translate(191.25 889.15)"><tspan class="cls-11">H</tspan><tspan x="22.01" y="0">is</tspan><tspan class="cls-12" x="42.96" y="0">t</tspan><tspan x="53.77" y="0">o</tspan><tspan class="cls-13" x="72.03" y="0">r</tspan><tspan x="83.03" y="0">ial de pedidos</tspan></text><circle class="cls-14" cx="163.49" cy="197" r="57.83"/><circle class="cls-14" cx="325.14" cy="197" r="57.83"/><circle class="cls-14" cx="489.03" cy="197" r="57.83"/><text class="cls-15" transform="translate(312.61 206.52)">0</text><g id="Capa_2-2" data-name="Capa 2"><g id="Layer_1" data-name="Layer 1"><path class="cls-16" d="M86.29,549.4h50.9a7.47,7.47,0,0,1,7.5,7.4v32.9a7.49,7.49,0,0,1-7.5,7.5H86.29a7.41,7.41,0,0,1-7.4-7.5V556.8A7.26,7.26,0,0,1,86.29,549.4Z"/><line class="cls-17" x1="133.69" y1="562.7" x2="88.29" y2="562.7"/><line class="cls-18" x1="129.19" y1="586.3" x2="92.09" y2="586.3"/><line class="cls-19" x1="132.59" y1="569.3" x2="117.69" y2="569.3"/></g></g><g id="Capa_2-3" data-name="Capa 2"><g id="Layer_1-2" data-name="Layer 1"><path class="cls-16" d="M143.33,225.15a9,9,0,0,1-9-9V188a2,2,0,0,1,.85-1.71l27.39-21.49a2,2,0,0,1,2.67,0l26.82,21a2,2,0,0,1,.85,1.72v28.62a9,9,0,0,1-9,9Z"/><path class="cls-20" d="M163.87,166.47l26.83,21v28.62a6.82,6.82,0,0,1-6.85,6.85H143.33a6.82,6.82,0,0,1-6.85-6.85V188l27.39-21.49m0-4.38a4.54,4.54,0,0,0-2.66.95l-27.48,21.4a4.49,4.49,0,0,0-1.72,3.43V216a11.24,11.24,0,0,0,11.23,11.22h40.51A11.25,11.25,0,0,0,195,216V187.49a4.21,4.21,0,0,0-1.72-3.43l-26.63-21a4.09,4.09,0,0,0-2.76-.95Z"/><path class="cls-16" d="M201.44,191.86l-34.81-28.72a4.41,4.41,0,0,0-6.08,0l-34.91,28.72a4.31,4.31,0,0,0,6.09,6.09h0l31.86-25.78L195.45,198a4.22,4.22,0,0,0,6-.19,4.39,4.39,0,0,0,0-5.9Z"/><path class="cls-21" d="M136.39,190.91a2.15,2.15,0,0,1-2.19-2.19V166.37a4.26,4.26,0,0,1,4.28-4.28H141a4.26,4.26,0,0,1,4.28,4.28h0v22.26a2.16,2.16,0,0,1-2.18,2.19h0l-6.66.09Z"/><path class="cls-20" d="M141,164.37a2.13,2.13,0,0,1,2.1,2.1h0v22.25h-6.57V166.37a2.11,2.11,0,0,1,2.1-2.09h0l2.37.09m0-4.37h-2.47a6.47,6.47,0,0,0-6.47,6.47v22.25a4.43,4.43,0,0,0,4.38,4.38H143a4.43,4.43,0,0,0,4.38-4.38h0V166.37A6.32,6.32,0,0,0,141,160Z"/><path class="cls-21" d="M163.3,166.85,136.39,188v28.15a6.82,6.82,0,0,0,6.85,6.85H163.3Z"/><path class="cls-21" d="M163.3,161.9a4.13,4.13,0,0,0-2.85,1.24l-34.81,28.72a4.31,4.31,0,0,0,6.09,6.09h0l31.57-25.59Z"/></g></g><g id="Capa_2-4" data-name="Capa 2"><g id="Capa_1-2-2" data-name="Capa 1-2"><polyline class="cls-22" points="283.78 186.29 303.25 227 351.01 227 366.39 186.29"/><line class="cls-23" x1="287.52" y1="195.96" x2="280.76" y2="199.22"/><line class="cls-23" x1="362.76" y1="195.96" x2="369.52" y2="199.22"/></g></g><g id="Capa_2-5" data-name="Capa 2"><g id="Layer_1-3" data-name="Layer 1"><path class="cls-21" d="M489.73,175.77a2.88,2.88,0,0,1-2.1-.9l-2.3-2.3a19.16,19.16,0,1,0-27.1,27.1l27.1,27a6.67,6.67,0,0,0,4.2,1.8Z"/><path class="cls-16" d="M488.93,175.57a2.88,2.88,0,0,0,2.1-.9l2.3-2.3a19.14,19.14,0,0,1,27,27.1l-27.2,27.1a7.38,7.38,0,0,1-4.2,1.9Z"/><path class="cls-17" d="M517.83,189.57a13.82,13.82,0,0,0-5.2-10.2,12.15,12.15,0,0,0-9.9-2.4"/></g></g><g id="Capa_2-6" data-name="Capa 2"><g id="Layer_1-4" data-name="Layer 1"><path class="cls-24" d="M73.49,747.53a2.26,2.26,0,0,1-2.3-2.3v-14.9a13.25,13.25,0,0,1,4.3-9.7l8-7.3a14.43,14.43,0,0,1,9.9-3.8h19.9a2.26,2.26,0,0,1,2.3,2.3v33.4a2.26,2.26,0,0,1-2.3,2.3Z"/><path class="cls-21" d="M113.19,745.23H73.49v-14.9a11.16,11.16,0,0,1,1.7-5.8h38Z"/><path class="cls-25" d="M99.19,726.13H84.69a.94.94,0,0,1-1.1-.8.88.88,0,0,1,.5-1l5-4a8.22,8.22,0,0,1,5.2-1.8h4.3"/><path class="cls-26" d="M85.89,754.93a8.6,8.6,0,1,1,8.6-8.7h0A8.69,8.69,0,0,1,85.89,754.93Z"/><path class="cls-24" d="M115.49,747.73c-10.5,0-13.3-.6-14.5-1.2a2.33,2.33,0,0,1-1.3-2.1v-37.5a9.13,9.13,0,0,1,9.1-9.1h34.5a9.13,9.13,0,0,1,9.1,9.1v31.4a9.13,9.13,0,0,1-9.1,9.1h-17c-.1.1-5.3.3-10.8.3Z"/><path class="cls-21" d="M150,724.53v13.9a6.81,6.81,0,0,1-6.8,6.8h-17s-20.8.8-24.2-.8v-19.9Z"/><path class="cls-17" d="M143.19,718.33v-7.7a3.8,3.8,0,0,0-3.8-3.8h-13.7"/><path class="cls-26" d="M127.39,754.93a8.6,8.6,0,1,1,8.6-8.6h0A8.6,8.6,0,0,1,127.39,754.93Z"/></g></g><g id="Capa_2-7" data-name="Capa 2"><g id="Layer_1-5" data-name="Layer 1"><path class="cls-16" d="M95.19,919.73a7.38,7.38,0,0,1-7.4-7.4v-50.9a7.38,7.38,0,0,1,7.4-7.4h23.5a2.36,2.36,0,0,1,1.6.7l14.6,14.6a2.36,2.36,0,0,1,.7,1.6v41.4a7.41,7.41,0,0,1-7.5,7.4Z"/><path class="cls-27" d="M120.39,853.53a5.66,5.66,0,0,0-1.8.3,4.57,4.57,0,0,0-2.8,4.2v5.7a9.65,9.65,0,0,0,9.7,9.7h5.7a4.65,4.65,0,0,0,4.6-4.6,4.82,4.82,0,0,0-1.3-3.2l-10.9-10.8A4.63,4.63,0,0,0,120.39,853.53Z"/><line class="cls-17" x1="99.89" y1="878.63" x2="123.39" y2="878.63"/><line class="cls-17" x1="99.89" y1="887.33" x2="123.39" y2="887.33"/><line class="cls-17" x1="99.89" y1="895.93" x2="123.39" y2="895.93"/><line class="cls-17" x1="99.89" y1="904.63" x2="123.39" y2="904.63"/></g></g><g id="Capa_2-8" data-name="Capa 2"><g id="Layer_1-6" data-name="Layer 1"><path class="cls-16" d="M111.64,398.08a9.29,9.29,0,0,1-6.7-2.8,9.52,9.52,0,0,1-2.8-6.8,9.29,9.29,0,0,1,2.8-6.7,9.6,9.6,0,0,1,13.5,0,9.47,9.47,0,0,1,2.8,6.7,9.7,9.7,0,0,1-2.8,6.8A9.52,9.52,0,0,1,111.64,398.08Z"/><path class="cls-21" d="M111.64,381.28a7.17,7.17,0,0,0-7.2,7.2,7.34,7.34,0,0,0,2.1,5.2,6.94,6.94,0,0,0,5.1,2.1Z"/><path class="cls-16" d="M111.74,439.58a16.07,16.07,0,0,1-11.9-4.9,16.3,16.3,0,0,1-4.9-12,16.07,16.07,0,0,1,4.9-11.9,16.9,16.9,0,0,1,23.9,0,16.07,16.07,0,0,1,4.9,11.9,16.46,16.46,0,0,1-4.9,12A16.69,16.69,0,0,1,111.74,439.58Z"/><path class="cls-21" d="M111.74,409.88a12.64,12.64,0,0,0-12.8,12.8,12.68,12.68,0,0,0,3.7,9.2,13,13,0,0,0,9.1,3.8Z"/><line class="cls-17" x1="113.54" y1="386.68" x2="111.94" y2="386.68"/><path class="cls-17" d="M115.34,413.78s7.9,5.7,2.9,15.7"/></g></g><rect class="cls-1" x="18.86" width="764.51" height="1044"/><rect class="cls-2" x="20.02" width="614.18" height="1044"/><path class="cls-28" d="M212.66,408.21c-.16-3.12-.36-6.88-.33-9.67h-.1c-.76,2.62-1.69,5.42-2.82,8.51l-4,10.87h-2.2l-3.62-10.67c-1.06-3.16-2-6.05-2.59-8.71H197c-.07,2.79-.23,6.55-.43,9.91l-.6,9.61h-2.76l1.56-22.41h3.69l3.83,10.84c.93,2.75,1.69,5.21,2.26,7.54h.1c.56-2.26,1.36-4.72,2.36-7.54l4-10.84h3.69l1.4,22.41h-2.83Z"/><path class="cls-28" d="M224.07,397.44a1.81,1.81,0,0,1-3.62,0,1.78,1.78,0,0,1,1.83-1.83A1.74,1.74,0,0,1,224.07,397.44Zm-3.26,20.62V402h2.93v16.1Z"/><path class="cls-28" d="M247.11,417.46a10.74,10.74,0,0,1-4.62.93c-4.85,0-8-3.29-8-8.21s3.39-8.55,8.64-8.55a9.79,9.79,0,0,1,4.06.83l-.66,2.26a6.81,6.81,0,0,0-3.4-.76c-3.69,0-5.68,2.72-5.68,6.08,0,3.73,2.39,6,5.58,6a8.3,8.3,0,0,0,3.6-.8Z"/><path class="cls-28" d="M264,413.67c0,1.66,0,3.12.13,4.39h-2.59l-.17-2.63h-.07a6,6,0,0,1-5.32,3c-2.52,0-5.55-1.39-5.55-7.05V402h2.93v8.91c0,3.06.93,5.12,3.59,5.12a4.24,4.24,0,0,0,3.86-2.66,4.39,4.39,0,0,0,.26-1.49V402H264Z"/><path class="cls-28" d="M270.49,410.54c.07,4,2.6,5.59,5.52,5.59a10.69,10.69,0,0,0,4.46-.83l.5,2.09a13,13,0,0,1-5.36,1c-4.95,0-7.91-3.26-7.91-8.11s2.86-8.68,7.55-8.68c5.25,0,6.65,4.62,6.65,7.58a11.63,11.63,0,0,1-.1,1.36Zm8.58-2.09c0-1.87-.76-4.76-4.06-4.76-2.95,0-4.25,2.73-4.48,4.76Z"/><path class="cls-28" d="M285.52,406.32c0-1.66,0-3-.13-4.36H288l.17,2.66h.07a5.9,5.9,0,0,1,5.32-3c2.22,0,5.68,1.33,5.68,6.85v9.61H296.3v-9.28c0-2.59-1-4.76-3.73-4.76a4.16,4.16,0,0,0-3.92,3,4.24,4.24,0,0,0-.2,1.36v9.68h-2.93Z"/><path class="cls-28" d="M307.37,397.34V402h4.19v2.23h-4.19v8.68c0,2,.57,3.12,2.19,3.12a6.53,6.53,0,0,0,1.7-.2l.13,2.2a7.18,7.18,0,0,1-2.59.4,4.06,4.06,0,0,1-3.16-1.23c-.83-.87-1.13-2.3-1.13-4.19v-8.78H302V402h2.49v-3.85Z"/><path class="cls-28" d="M323.76,418.06l-.23-2h-.1a6,6,0,0,1-4.92,2.39,4.58,4.58,0,0,1-4.92-4.62c0-3.89,3.46-6,9.68-6v-.34c0-1.33-.37-3.72-3.66-3.72a7.93,7.93,0,0,0-4.19,1.2l-.67-1.93A10,10,0,0,1,320,401.6c4.92,0,6.12,3.36,6.12,6.58v6a22.68,22.68,0,0,0,.26,3.86Zm-.43-8.22c-3.19-.06-6.81.5-6.81,3.63a2.59,2.59,0,0,0,2.75,2.79,4,4,0,0,0,3.89-2.69,2.77,2.77,0,0,0,.17-.93Z"/><path class="cls-28" d="M193.78,562.18a33.84,33.84,0,0,1,5.55-.43c2.86,0,4.95.66,6.28,1.86a6,6,0,0,1,2,4.69,6.57,6.57,0,0,1-1.73,4.78,9.3,9.3,0,0,1-6.85,2.47,10.32,10.32,0,0,1-2.33-.2v9h-2.89ZM196.67,573a10,10,0,0,0,2.4.23c3.49,0,5.61-1.7,5.61-4.79S202.59,564,199.4,564a12.37,12.37,0,0,0-2.73.23Z"/><path class="cls-28" d="M219.42,584.32l-.24-2h-.1a6,6,0,0,1-4.92,2.4,4.58,4.58,0,0,1-4.92-4.62c0-3.89,3.46-6,9.68-6v-.33c0-1.33-.37-3.72-3.66-3.72a8,8,0,0,0-4.19,1.19l-.66-1.93a10,10,0,0,1,5.28-1.43c4.92,0,6.12,3.36,6.12,6.59v6a22.49,22.49,0,0,0,.27,3.85Zm-.44-8.21c-3.19-.07-6.81.5-6.81,3.63a2.59,2.59,0,0,0,2.76,2.79,4,4,0,0,0,3.89-2.7,3,3,0,0,0,.16-.93Z"/><path class="cls-28" d="M240.4,568.23c-.07,1.16-.13,2.46-.13,4.42V582c0,3.69-.74,6-2.3,7.34a8.49,8.49,0,0,1-5.85,1.93,10.3,10.3,0,0,1-5.35-1.33l.73-2.23a9,9,0,0,0,4.72,1.27c3,0,5.19-1.56,5.19-5.62v-1.8h-.07a5.75,5.75,0,0,1-5.12,2.7c-4,0-6.85-3.4-6.85-7.85,0-5.45,3.56-8.55,7.25-8.55a5.36,5.36,0,0,1,5,2.8h.06l.14-2.43Zm-3,6.35a4.26,4.26,0,0,0-4.25-4.42c-2.8,0-4.79,2.36-4.79,6.08,0,3.16,1.59,5.79,4.75,5.79a4.28,4.28,0,0,0,4.06-3,5,5,0,0,0,.23-1.57Z"/><path class="cls-28" d="M259.69,576.14c0,6-4.13,8.55-8,8.55-4.35,0-7.71-3.19-7.71-8.28,0-5.39,3.52-8.55,8-8.55C256.56,567.86,259.69,571.22,259.69,576.14Zm-12.77.17c0,3.52,2,6.18,4.88,6.18s4.89-2.62,4.89-6.25c0-2.72-1.36-6.18-4.82-6.18S246.92,573.25,246.92,576.31Z"/><path class="cls-28" d="M193.78,714.62a42.32,42.32,0,0,1,6.15-.46c4.16,0,7.11,1,9.08,2.79s3.16,4.42,3.16,8a11.88,11.88,0,0,1-3.23,8.71c-2.09,2.09-5.55,3.22-9.91,3.22a48.3,48.3,0,0,1-5.25-.26Zm2.89,19.82a18.61,18.61,0,0,0,2.93.17c6.18,0,9.54-3.46,9.54-9.51,0-5.29-3-8.65-9.08-8.65a16.23,16.23,0,0,0-3.39.3Z"/><path class="cls-28" d="M219.08,716.12a1.71,1.71,0,0,1-1.86,1.79,1.73,1.73,0,0,1-1.76-1.79,1.78,1.78,0,0,1,1.83-1.83A1.73,1.73,0,0,1,219.08,716.12Zm-3.25,20.61V720.64h2.92v16.09Z"/><path class="cls-28" d="M223.61,725.66c0-1.89,0-3.52-.14-5H226l.1,3.16h.14a4.82,4.82,0,0,1,4.45-3.52,3.46,3.46,0,0,1,.83.09v2.76a4.8,4.8,0,0,0-1-.1c-2.07,0-3.53,1.57-3.93,3.76a9.1,9.1,0,0,0-.13,1.36v8.58h-2.89Z"/><path class="cls-28" d="M235.78,729.22c.06,4,2.59,5.59,5.52,5.59a10.49,10.49,0,0,0,4.45-.84l.5,2.1a13.1,13.1,0,0,1-5.35,1c-5,0-7.92-3.26-7.92-8.12s2.86-8.67,7.55-8.67c5.25,0,6.65,4.62,6.65,7.58a11.82,11.82,0,0,1-.1,1.36Zm8.58-2.1c0-1.86-.77-4.75-4.06-4.75-3,0-4.26,2.73-4.49,4.75Z"/><path class="cls-28" d="M262.28,736.13a10.75,10.75,0,0,1-4.62.94c-4.86,0-8-3.3-8-8.22s3.39-8.54,8.65-8.54a9.7,9.7,0,0,1,4,.83l-.66,2.26a6.8,6.8,0,0,0-3.39-.76c-3.69,0-5.69,2.72-5.69,6.08,0,3.72,2.4,6,5.59,6a8.25,8.25,0,0,0,3.59-.8Z"/><path class="cls-28" d="M277,736.13a10.75,10.75,0,0,1-4.62.94c-4.86,0-8-3.3-8-8.22s3.39-8.54,8.65-8.54a9.74,9.74,0,0,1,4.05.83l-.66,2.26a6.8,6.8,0,0,0-3.39-.76c-3.69,0-5.69,2.72-5.69,6.08,0,3.72,2.39,6,5.59,6a8.25,8.25,0,0,0,3.59-.8Z"/><path class="cls-28" d="M283.66,716.12a1.81,1.81,0,0,1-3.62,0,1.78,1.78,0,0,1,1.83-1.83A1.74,1.74,0,0,1,283.66,716.12Zm-3.26,20.61V720.64h2.93v16.09Z"/><path class="cls-28" d="M302.75,728.55c0,6-4.13,8.55-8,8.55-4.35,0-7.71-3.19-7.71-8.28,0-5.39,3.52-8.54,8-8.54C299.62,720.28,302.75,723.63,302.75,728.55Zm-12.77.17c0,3.52,2,6.18,4.89,6.18s4.88-2.62,4.88-6.25c0-2.72-1.36-6.18-4.82-6.18S290,725.66,290,728.72Z"/><path class="cls-28" d="M306.44,725c0-1.67,0-3-.13-4.36h2.59l.17,2.66h.06a5.92,5.92,0,0,1,5.32-3c2.23,0,5.69,1.33,5.69,6.84v9.61h-2.93v-9.27c0-2.6-1-4.76-3.72-4.76a4.15,4.15,0,0,0-3.92,3,4.08,4.08,0,0,0-.2,1.37v9.67h-2.93Z"/><path class="cls-28" d="M326.52,729.22c.07,4,2.6,5.59,5.52,5.59a10.51,10.51,0,0,0,4.46-.84l.5,2.1a13.14,13.14,0,0,1-5.35,1c-5,0-7.92-3.26-7.92-8.12s2.86-8.67,7.55-8.67c5.25,0,6.65,4.62,6.65,7.58a11.82,11.82,0,0,1-.1,1.36Zm8.58-2.1c0-1.86-.76-4.75-4.05-4.75-3,0-4.26,2.73-4.49,4.75Z"/><path class="cls-28" d="M341.16,733.74A7.59,7.59,0,0,0,345,734.9c2.13,0,3.13-1.06,3.13-2.39s-.83-2.16-3-3c-2.9-1-4.26-2.63-4.26-4.55,0-2.6,2.09-4.72,5.55-4.72a8.08,8.08,0,0,1,4,1l-.73,2.13a6.26,6.26,0,0,0-3.29-.93c-1.73,0-2.7,1-2.7,2.19s1,1.93,3.06,2.73c2.79,1.06,4.22,2.46,4.22,4.85,0,2.83-2.19,4.83-6,4.83a9.2,9.2,0,0,1-4.52-1.1Z"/><path class="cls-28" d="M375.67,713.13v19.45c0,1.43,0,3.06.13,4.15h-2.62l-.14-2.79H373a6,6,0,0,1-5.49,3.16c-3.89,0-6.88-3.29-6.88-8.18,0-5.35,3.29-8.64,7.21-8.64a5.38,5.38,0,0,1,4.86,2.46h.07v-9.61Zm-2.92,14.06a5.16,5.16,0,0,0-.14-1.23,4.3,4.3,0,0,0-4.22-3.39c-3,0-4.82,2.66-4.82,6.22,0,3.26,1.59,6,4.75,6a4.4,4.4,0,0,0,4.29-3.49,5.1,5.1,0,0,0,.14-1.27Z"/><path class="cls-28" d="M382.16,729.22c.06,4,2.59,5.59,5.52,5.59a10.49,10.49,0,0,0,4.45-.84l.5,2.1a13.1,13.1,0,0,1-5.35,1c-5,0-7.92-3.26-7.92-8.12s2.86-8.67,7.55-8.67c5.26,0,6.65,4.62,6.65,7.58a11.82,11.82,0,0,1-.1,1.36Zm8.58-2.1c0-1.86-.77-4.75-4.06-4.75-3,0-4.26,2.73-4.49,4.75Z"/><path class="cls-28" d="M405.87,729.22c.06,4,2.59,5.59,5.52,5.59a10.49,10.49,0,0,0,4.45-.84l.5,2.1a13.1,13.1,0,0,1-5.35,1c-5,0-7.92-3.26-7.92-8.12s2.86-8.67,7.55-8.67c5.25,0,6.65,4.62,6.65,7.58a11.82,11.82,0,0,1-.1,1.36Zm8.57-2.1c0-1.86-.76-4.75-4.05-4.75-3,0-4.26,2.73-4.49,4.75Z"/><path class="cls-28" d="M420.9,725c0-1.67,0-3-.14-4.36h2.6l.16,2.66h.07a5.92,5.92,0,0,1,5.32-3c2.23,0,5.69,1.33,5.69,6.84v9.61h-2.93v-9.27c0-2.6-1-4.76-3.73-4.76a4.17,4.17,0,0,0-3.92,3,4.35,4.35,0,0,0-.2,1.37v9.67H420.9Z"/><path class="cls-28" d="M440.05,720.64l3.16,9c.53,1.47,1,2.8,1.3,4.13h.1c.36-1.33.83-2.66,1.36-4.13l3.12-9h3.06l-6.31,16.09H443l-6.11-16.09Z"/><path class="cls-28" d="M460.87,713.69l-4.06,4.76h-2.1l2.93-4.76Zm-6,23V720.64h2.93v16.09Z"/><path class="cls-28" d="M477.26,728.55c0,6-4.12,8.55-8,8.55-4.36,0-7.72-3.19-7.72-8.28,0-5.39,3.53-8.54,8-8.54C474.13,720.28,477.26,723.63,477.26,728.55Zm-12.77.17c0,3.52,2,6.18,4.89,6.18s4.89-2.62,4.89-6.25c0-2.72-1.37-6.18-4.83-6.18S464.49,725.66,464.49,728.72Z"/><path class="cls-28" d="M196.67,866.74v9.37h10.84v-9.37h2.93v22.41h-2.93V878.64H196.67v10.51h-2.89V866.74Z"/><path class="cls-28" d="M219,868.53a1.81,1.81,0,0,1-3.62,0,1.78,1.78,0,0,1,1.83-1.83A1.74,1.74,0,0,1,219,868.53Zm-3.26,20.62v-16.1h2.93v16.1Z"/><path class="cls-28" d="M223.07,886.15a7.66,7.66,0,0,0,3.86,1.17c2.13,0,3.13-1.07,3.13-2.4s-.83-2.16-3-3c-2.89-1-4.25-2.62-4.25-4.55,0-2.59,2.09-4.72,5.55-4.72a8,8,0,0,1,4,1l-.73,2.12a6.3,6.3,0,0,0-3.3-.93c-1.72,0-2.69,1-2.69,2.2s1,1.93,3.06,2.72c2.79,1.07,4.22,2.46,4.22,4.86,0,2.82-2.19,4.82-6,4.82a9.12,9.12,0,0,1-4.52-1.1Z"/><path class="cls-28" d="M240.17,868.43v4.62h4.19v2.23h-4.19V884c0,2,.56,3.12,2.19,3.12a6.62,6.62,0,0,0,1.7-.19l.13,2.19a7.22,7.22,0,0,1-2.59.4,4,4,0,0,1-3.16-1.23c-.83-.87-1.13-2.3-1.13-4.19v-8.78h-2.5v-2.23h2.5V869.2Z"/><path class="cls-28" d="M262,881c0,5.95-4.12,8.54-8,8.54-4.36,0-7.71-3.19-7.71-8.28,0-5.38,3.52-8.54,8-8.54C258.89,872.69,262,876.05,262,881Zm-12.77.16c0,3.53,2,6.19,4.89,6.19s4.89-2.63,4.89-6.25c0-2.73-1.36-6.19-4.82-6.19S249.24,878.07,249.24,881.13Z"/><path class="cls-28" d="M265.7,878.07c0-1.89,0-3.52-.13-5h2.56l.1,3.16h.13a4.84,4.84,0,0,1,4.46-3.52,3,3,0,0,1,.83.1v2.76a4.22,4.22,0,0,0-1-.1c-2.06,0-3.52,1.56-3.92,3.75a8,8,0,0,0-.13,1.37v8.58h-2.9Z"/><path class="cls-28" d="M280,868.53a1.81,1.81,0,0,1-3.62,0,1.78,1.78,0,0,1,1.83-1.83A1.74,1.74,0,0,1,280,868.53Zm-3.26,20.62v-16.1h2.93v16.1Z"/><path class="cls-28" d="M293.4,889.15l-.23-2h-.1a6,6,0,0,1-4.92,2.39,4.58,4.58,0,0,1-4.92-4.62c0-3.89,3.46-6,9.68-6v-.34c0-1.33-.37-3.72-3.66-3.72a7.93,7.93,0,0,0-4.19,1.2l-.67-1.93a10,10,0,0,1,5.29-1.43c4.92,0,6.12,3.36,6.12,6.58v6a22.68,22.68,0,0,0,.26,3.86Zm-.43-8.22c-3.19-.06-6.81.5-6.81,3.63a2.59,2.59,0,0,0,2.76,2.79,4,4,0,0,0,3.89-2.69,3,3,0,0,0,.16-.93Z"/><path class="cls-28" d="M300.52,865.54h2.93v23.61h-2.93Z"/><path class="cls-28" d="M329.32,865.54V885c0,1.43,0,3.06.13,4.16h-2.63l-.13-2.8h-.07a5.93,5.93,0,0,1-5.48,3.16c-3.89,0-6.89-3.29-6.89-8.18,0-5.35,3.3-8.64,7.22-8.64a5.36,5.36,0,0,1,4.85,2.46h.07v-9.61Zm-2.93,14.06a5.2,5.2,0,0,0-.13-1.23A4.31,4.31,0,0,0,322,875c-3,0-4.82,2.66-4.82,6.22,0,3.26,1.6,5.95,4.76,5.95a4.4,4.4,0,0,0,4.29-3.49,5.08,5.08,0,0,0,.13-1.26Z"/><path class="cls-28" d="M335.8,881.63c.07,4,2.6,5.59,5.52,5.59a10.69,10.69,0,0,0,4.46-.83l.49,2.09a12.93,12.93,0,0,1-5.35,1c-4.95,0-7.91-3.26-7.91-8.11s2.86-8.68,7.55-8.68c5.25,0,6.65,4.62,6.65,7.58a11.63,11.63,0,0,1-.1,1.36Zm8.58-2.09c0-1.86-.77-4.76-4.06-4.76-3,0-4.25,2.73-4.48,4.76Z"/><path class="cls-28" d="M357.88,878.31c0-2.06-.06-3.73-.13-5.26h2.63l.13,2.76h.06a6.34,6.34,0,0,1,5.72-3.12c3.89,0,6.82,3.29,6.82,8.18,0,5.78-3.52,8.64-7.32,8.64a5.66,5.66,0,0,1-5-2.52h-.07v8.74h-2.89Zm2.89,4.29a6.16,6.16,0,0,0,.14,1.19,4.51,4.51,0,0,0,4.39,3.43c3.09,0,4.88-2.53,4.88-6.22,0-3.22-1.69-6-4.78-6a4.67,4.67,0,0,0-4.43,3.62,4.78,4.78,0,0,0-.2,1.2Z"/><path class="cls-28" d="M378.43,881.63c.07,4,2.59,5.59,5.52,5.59a10.69,10.69,0,0,0,4.46-.83l.5,2.09a13,13,0,0,1-5.36,1c-4.95,0-7.91-3.26-7.91-8.11s2.86-8.68,7.55-8.68c5.25,0,6.65,4.62,6.65,7.58a11.63,11.63,0,0,1-.1,1.36Zm8.58-2.09c0-1.86-.76-4.76-4.06-4.76-3,0-4.25,2.73-4.48,4.76Z"/><path class="cls-28" d="M407.36,865.54V885c0,1.43,0,3.06.13,4.16h-2.62l-.14-2.8h-.06a6,6,0,0,1-5.49,3.16c-3.89,0-6.88-3.29-6.88-8.18,0-5.35,3.29-8.64,7.21-8.64a5.38,5.38,0,0,1,4.86,2.46h.06v-9.61Zm-2.93,14.06a5.2,5.2,0,0,0-.13-1.23,4.3,4.3,0,0,0-4.22-3.39c-3,0-4.82,2.66-4.82,6.22,0,3.26,1.59,5.95,4.75,5.95a4.4,4.4,0,0,0,4.29-3.49,5.08,5.08,0,0,0,.13-1.26Z"/><path class="cls-28" d="M415.48,868.53a1.82,1.82,0,0,1-3.63,0,1.79,1.79,0,0,1,1.83-1.83A1.74,1.74,0,0,1,415.48,868.53Zm-3.26,20.62v-16.1h2.92v16.1Z"/><path class="cls-28" d="M433.9,865.54V885c0,1.43,0,3.06.13,4.16H431.4l-.13-2.8h-.07a5.93,5.93,0,0,1-5.48,3.16c-3.89,0-6.89-3.29-6.89-8.18,0-5.35,3.3-8.64,7.22-8.64a5.36,5.36,0,0,1,4.85,2.46H431v-9.61ZM431,879.6a5.2,5.2,0,0,0-.13-1.23,4.31,4.31,0,0,0-4.23-3.39c-3,0-4.82,2.66-4.82,6.22,0,3.26,1.6,5.95,4.76,5.95a4.4,4.4,0,0,0,4.29-3.49,5.08,5.08,0,0,0,.13-1.26Z"/><path class="cls-28" d="M453.32,881c0,5.95-4.13,8.54-8,8.54-4.35,0-7.71-3.19-7.71-8.28,0-5.38,3.52-8.54,8-8.54C450.19,872.69,453.32,876.05,453.32,881Zm-12.77.16c0,3.53,2,6.19,4.89,6.19s4.88-2.63,4.88-6.25c0-2.73-1.36-6.19-4.82-6.19S440.55,878.07,440.55,881.13Z"/><path class="cls-28" d="M456.61,886.15a7.6,7.6,0,0,0,3.86,1.17c2.12,0,3.12-1.07,3.12-2.4s-.83-2.16-3-3c-2.89-1-4.26-2.62-4.26-4.55,0-2.59,2.1-4.72,5.56-4.72a7.89,7.89,0,0,1,4,1l-.73,2.12a6.23,6.23,0,0,0-3.29-.93c-1.73,0-2.69,1-2.69,2.2s1,1.93,3.06,2.72c2.79,1.07,4.22,2.46,4.22,4.86,0,2.82-2.2,4.82-6,4.82a9.12,9.12,0,0,1-4.52-1.1Z"/><circle class="cls-29" cx="163.49" cy="197" r="57.83"/><circle class="cls-29" cx="325.14" cy="197" r="57.83"/><circle class="cls-29" cx="489.03" cy="197" r="57.83"/><path class="cls-21" d="M331.56,181.32H320.71l-1.1,7.3a15,15,0,0,1,2.32-.17,12,12,0,0,1,6.13,1.53,8.1,8.1,0,0,1,4.06,7.3c0,5.56-4.41,9.72-10.58,9.72a14,14,0,0,1-7.09-1.75l1-2.93a12.73,12.73,0,0,0,6.08,1.57c3.63,0,6.74-2.36,6.74-6.17s-2.49-6.3-8.18-6.3a29.57,29.57,0,0,0-3.94.31L318,178.08h13.61Z"/><g id="Capa_2-9" data-name="Capa 2"><g id="Capa_1-2-3" data-name="Capa 1-2"><polyline class="cls-30" points="283.78 186.29 303.25 227 351.01 227 366.39 186.29"/><line class="cls-31" x1="287.52" y1="195.96" x2="280.76" y2="199.22"/><line class="cls-31" x1="362.76" y1="195.96" x2="369.52" y2="199.22"/></g></g><g id="Capa_2-10" data-name="Capa 2" class="cls-32"><g id="Layer_1-7" data-name="Layer 1"><path class="cls-33" d="M86,549h50.9a7.47,7.47,0,0,1,7.5,7.4v32.9a7.49,7.49,0,0,1-7.5,7.5H86a7.41,7.41,0,0,1-7.4-7.5v-32.9A7.26,7.26,0,0,1,86,549Z"/><line class="cls-17" x1="133.4" y1="562.33" x2="88" y2="562.33"/><line class="cls-18" x1="128.9" y1="585.93" x2="91.8" y2="585.93"/><line class="cls-19" x1="132.3" y1="568.93" x2="117.4" y2="568.93"/></g></g><g id="Capa_2-11" data-name="Capa 2" class="cls-32"><g id="Layer_1-8" data-name="Layer 1"><path class="cls-14" d="M73.2,747.17a2.26,2.26,0,0,1-2.3-2.3V730a13.25,13.25,0,0,1,4.3-9.7l8-7.3a14.43,14.43,0,0,1,9.9-3.8H113a2.26,2.26,0,0,1,2.3,2.3v33.4a2.26,2.26,0,0,1-2.3,2.3Z"/><path class="cls-33" d="M112.9,744.87H73.2V730a11.16,11.16,0,0,1,1.7-5.8h38Z"/><path class="cls-25" d="M98.9,725.77H84.4a.94.94,0,0,1-1.1-.8.88.88,0,0,1,.5-1l5-4a8.22,8.22,0,0,1,5.2-1.8h4.3"/><path class="cls-33" d="M85.6,754.57a8.6,8.6,0,1,1,8.6-8.7h0A8.69,8.69,0,0,1,85.6,754.57Z"/><path class="cls-14" d="M115.2,747.37c-10.5,0-13.3-.6-14.5-1.2a2.33,2.33,0,0,1-1.3-2.1v-37.5a9.13,9.13,0,0,1,9.1-9.1H143a9.13,9.13,0,0,1,9.1,9.1V738a9.13,9.13,0,0,1-9.1,9.1H126c-.1.1-5.3.3-10.8.3Z"/><path class="cls-33" d="M149.7,724.17v13.9a6.81,6.81,0,0,1-6.8,6.8h-17s-20.8.8-24.2-.8v-19.9Z"/><path class="cls-17" d="M142.9,718v-7.7a3.8,3.8,0,0,0-3.8-3.8H125.4"/><path class="cls-33" d="M127.1,754.57a8.6,8.6,0,1,1,8.6-8.6h0A8.6,8.6,0,0,1,127.1,754.57Z"/></g></g><g id="Capa_2-12" data-name="Capa 2" class="cls-32"><g id="Layer_1-9" data-name="Layer 1"><path class="cls-14" d="M201.15,197.4a4.22,4.22,0,0,1-6,.19l-2.57-2.08v20.24a9,9,0,0,1-9,9H143a9,9,0,0,1-9-9V195.52l-2.56,2.07a4.31,4.31,0,1,1-6.09-6.09l34.9-28.72a4.42,4.42,0,0,1,6.09,0l34.81,28.72A4.39,4.39,0,0,1,201.15,197.4Z"/><path d="M163,161.54V224.6H140.94a6.81,6.81,0,0,1-6.84-6.85V195.81l-2.66,1.78a4.31,4.31,0,1,1-6.09-6.09l8.56-7.06V166a4.26,4.26,0,0,1,4.28-4.28h2.47a4.26,4.26,0,0,1,4.28,4.28v9.33l15.22-12.56A4.13,4.13,0,0,1,163,161.54Z"/></g></g><g id="Capa_2-13" data-name="Capa 2" class="cls-32"><g id="Layer_1-10" data-name="Layer 1"><path d="M489.43,175.41a2.88,2.88,0,0,1-2.1-.9l-2.3-2.3a19.16,19.16,0,0,0-27.1,27.1l27.1,27a6.67,6.67,0,0,0,4.2,1.8Z"/><path class="cls-14" d="M488.63,175.21a2.88,2.88,0,0,0,2.1-.9L493,172a19.14,19.14,0,0,1,27,27.1l-27.2,27.1a7.38,7.38,0,0,1-4.2,1.9Z"/><path class="cls-17" d="M517.53,189.21a13.82,13.82,0,0,0-5.2-10.2,12.15,12.15,0,0,0-9.9-2.4"/></g></g><g id="Capa_2-14" data-name="Capa 2" class="cls-32"><g id="Layer_1-11" data-name="Layer 1"><path class="cls-14" d="M112.35,397.72a9.29,9.29,0,0,1-6.7-2.8,9.52,9.52,0,0,1-2.8-6.8,9.29,9.29,0,0,1,2.8-6.7,9.6,9.6,0,0,1,13.5,0,9.47,9.47,0,0,1,2.8,6.7,9.7,9.7,0,0,1-2.8,6.8A9.52,9.52,0,0,1,112.35,397.72Z"/><path class="cls-33" d="M112.35,380.92a7.17,7.17,0,0,0-7.2,7.2,7.34,7.34,0,0,0,2.1,5.2,6.94,6.94,0,0,0,5.1,2.1Z"/><path class="cls-14" d="M112.45,439.22a16.07,16.07,0,0,1-11.9-4.9,16.3,16.3,0,0,1-4.9-12,16.07,16.07,0,0,1,4.9-11.9,16.9,16.9,0,0,1,23.9,0,16.07,16.07,0,0,1,4.9,11.9,16.46,16.46,0,0,1-4.9,12A16.69,16.69,0,0,1,112.45,439.22Z"/><path class="cls-33" d="M112.6,407.21a14.89,14.89,0,0,0-15.1,15.1,14.94,14.94,0,0,0,4.36,10.85,15.3,15.3,0,0,0,10.74,4.48Z"/><line class="cls-17" x1="114.25" y1="386.32" x2="112.65" y2="386.32"/><path class="cls-17" d="M116.05,413.42s7.9,5.7,2.9,15.7"/></g></g><circle class="cls-34" cx="325.71" cy="198.12" r="100.61"/><g id="Capa_2-15" data-name="Capa 2" class="cls-32"><g id="Layer_1-12" data-name="Layer 1"><path class="cls-33" d="M94.75,920.14a7.38,7.38,0,0,1-7.4-7.4v-50.9a7.38,7.38,0,0,1,7.4-7.4h23.5a2.36,2.36,0,0,1,1.6.7l14.6,14.6a2.36,2.36,0,0,1,.7,1.6v41.4a7.41,7.41,0,0,1-7.5,7.4Z"/><path class="cls-14" d="M120,853.94a5.66,5.66,0,0,0-1.8.3,4.57,4.57,0,0,0-2.8,4.2v5.7a9.65,9.65,0,0,0,9.7,9.7h5.7a4.65,4.65,0,0,0,4.6-4.6,4.82,4.82,0,0,0-1.3-3.2l-10.9-10.8A4.63,4.63,0,0,0,120,853.94Z"/><line class="cls-17" x1="99.45" y1="879.04" x2="122.95" y2="879.04"/><line class="cls-17" x1="99.45" y1="887.74" x2="122.95" y2="887.74"/><line class="cls-17" x1="99.45" y1="896.34" x2="122.95" y2="896.34"/><line class="cls-17" x1="99.45" y1="905.04" x2="122.95" y2="905.04"/></g></g><rect class="cls-35" x="409.97" y="97.21" width="9.9" height="9.9" transform="translate(829.85 204.32) rotate(-180)"/><rect class="cls-36" x="718.42" y="863.71" width="8.34" height="8.34" transform="translate(1445.18 1735.77) rotate(-180)"/><rect class="cls-37" y="549.76" width="8.34" height="8.34" transform="translate(8.34 1107.85) rotate(-180)"/></g></g></svg>