<svg xmlns="http://www.w3.org/2000/svg" xmlns:xlink="http://www.w3.org/1999/xlink" viewBox="0 0 852.53 1044"><defs><style>.cls-1{opacity:0.5;fill:url(#Degradado_sin_nombre_50);}.cls-2{fill:url(#Degradado_sin_nombre_26);}.cls-3{fill:#c4c4c4;}.cls-17,.cls-4{fill:#dbdbdb;}.cls-4{opacity:0.6;}.cls-5{opacity:0.6;}.cls-12,.cls-15,.cls-16,.cls-6,.cls-7{fill:none;stroke-linejoin:round;}.cls-14,.cls-6,.cls-7{stroke:#000;}.cls-6,.cls-7{stroke-width:6px;}.cls-12,.cls-15,.cls-16,.cls-7{stroke-linecap:round;}.cls-8{fill:#eb3648;}.cls-11,.cls-9{fill:#ad0003;}.cls-10{fill:#fff;}.cls-11,.cls-12,.cls-15,.cls-16{stroke:#fff;}.cls-11,.cls-14{stroke-miterlimit:10;}.cls-11{stroke-width:2px;}.cls-12{stroke-width:4.6px;}.cls-13{opacity:0.7;}.cls-14{stroke-width:4px;}.cls-15{stroke-width:8px;}.cls-16{stroke-width:3px;}.cls-18{fill:url(#Degradado_sin_nombre_77);}.cls-19{fill:#eb445a;}.cls-20{fill:#2dd36f;}.cls-21{fill:#3dc2ff;}</style><linearGradient id="Degradado_sin_nombre_50" x1="470.27" y1="1044" x2="470.27" gradientUnits="userSpaceOnUse"><stop offset="0" stop-color="#fff" stop-opacity="0"/><stop offset="0.15" stop-color="#e8ebec" stop-opacity="0.5"/><stop offset="0.5" stop-color="#e8ebec" stop-opacity="0.5"/><stop offset="0.85" stop-color="#e8ebec" stop-opacity="0.5"/><stop offset="1" stop-color="#fff" stop-opacity="0"/></linearGradient><linearGradient id="Degradado_sin_nombre_26" x1="396.27" y1="1044" x2="396.27" gradientUnits="userSpaceOnUse"><stop offset="0" stop-color="#fff" stop-opacity="0"/><stop offset="0.15" stop-color="#fff"/><stop offset="0.5" stop-color="#fff"/><stop offset="0.85" stop-color="#fff"/><stop offset="1" stop-color="#fff" stop-opacity="0"/></linearGradient><radialGradient id="Degradado_sin_nombre_77" cx="183.93" cy="731.22" r="100.61" gradientUnits="userSpaceOnUse"><stop offset="0.19" stop-color="#ffc409" stop-opacity="0"/><stop offset="0.64" stop-color="#ffc409" stop-opacity="0"/><stop offset="0.68" stop-color="#ffc409" stop-opacity="0.02"/><stop offset="0.72" stop-color="#ffc409" stop-opacity="0.08"/><stop offset="0.77" stop-color="#ffc409" stop-opacity="0.19"/><stop offset="0.83" stop-color="#ffc409" stop-opacity="0.33"/><stop offset="0.88" stop-color="#ffc409" stop-opacity="0.52"/><stop offset="0.94" stop-color="#ffc409" stop-opacity="0.74"/><stop offset="1" stop-color="#ffc409"/></radialGradient></defs><g id="Capa_2" data-name="Capa 2"><g id="Capa_1-2" data-name="Capa 1"><rect class="cls-1" x="88.01" width="764.51" height="1044"/><rect class="cls-2" x="89.18" width="614.18" height="1044"/><path class="cls-3" d="M281.82,408.21c-.17-3.12-.37-6.88-.33-9.67h-.1c-.77,2.62-1.7,5.42-2.83,8.51l-3.95,10.87h-2.2l-3.62-10.67c-1.07-3.16-2-6.05-2.6-8.71h-.06c-.07,2.79-.24,6.55-.44,9.91l-.59,9.61h-2.76l1.56-22.41h3.69l3.82,10.84c.93,2.75,1.7,5.21,2.26,7.54h.1c.57-2.26,1.37-4.72,2.36-7.54l4-10.84h3.7l1.39,22.41h-2.82Z"/><path class="cls-3" d="M293.23,397.44a1.82,1.82,0,0,1-3.63,0,1.79,1.79,0,0,1,1.83-1.83A1.74,1.74,0,0,1,293.23,397.44ZM290,418.06V402h2.93v16.1Z"/><path class="cls-3" d="M316.27,417.46a10.74,10.74,0,0,1-4.62.93c-4.86,0-8-3.29-8-8.21s3.39-8.55,8.64-8.55a9.79,9.79,0,0,1,4.06.83l-.67,2.26a6.77,6.77,0,0,0-3.39-.76c-3.69,0-5.68,2.72-5.68,6.08,0,3.73,2.39,6,5.58,6a8.25,8.25,0,0,0,3.59-.8Z"/><path class="cls-3" d="M333.16,413.67c0,1.66,0,3.12.14,4.39h-2.6l-.16-2.63h-.07a6,6,0,0,1-5.32,3c-2.53,0-5.55-1.39-5.55-7.05V402h2.92v8.91c0,3.06.93,5.12,3.59,5.12a4.22,4.22,0,0,0,3.86-2.66,4.16,4.16,0,0,0,.27-1.49V402h2.92Z"/><path class="cls-3" d="M339.65,410.54c.07,4,2.59,5.59,5.52,5.59a10.63,10.63,0,0,0,4.45-.83l.5,2.09a12.93,12.93,0,0,1-5.35,1c-4.95,0-7.91-3.26-7.91-8.11s2.86-8.68,7.54-8.68c5.26,0,6.65,4.62,6.65,7.58a9.76,9.76,0,0,1-.1,1.36Zm8.58-2.09c0-1.87-.77-4.76-4.06-4.76-3,0-4.25,2.73-4.49,4.76Z"/><path class="cls-3" d="M354.68,406.32c0-1.66,0-3-.13-4.36h2.59l.17,2.66h.06a5.92,5.92,0,0,1,5.32-3c2.23,0,5.69,1.33,5.69,6.85v9.61h-2.93v-9.28c0-2.59-1-4.76-3.72-4.76a4.17,4.17,0,0,0-3.93,3,4.25,4.25,0,0,0-.19,1.36v9.68h-2.93Z"/><path class="cls-3" d="M376.53,397.34V402h4.19v2.23h-4.19v8.68c0,2,.56,3.12,2.19,3.12a6.53,6.53,0,0,0,1.7-.2l.13,2.2a7.22,7.22,0,0,1-2.59.4,4,4,0,0,1-3.16-1.23c-.83-.87-1.13-2.3-1.13-4.19v-8.78h-2.5V402h2.5v-3.85Z"/><path class="cls-3" d="M392.92,418.06l-.23-2h-.1a6,6,0,0,1-4.92,2.39,4.58,4.58,0,0,1-4.92-4.62c0-3.89,3.45-6,9.67-6v-.34c0-1.33-.36-3.72-3.66-3.72a8,8,0,0,0-4.19,1.2l-.66-1.93a10,10,0,0,1,5.29-1.43c4.92,0,6.11,3.36,6.11,6.58v6a22.61,22.61,0,0,0,.27,3.86Zm-.43-8.22c-3.19-.06-6.82.5-6.82,3.63a2.59,2.59,0,0,0,2.76,2.79,4,4,0,0,0,3.89-2.69,3,3,0,0,0,.17-.93Z"/><path class="cls-3" d="M262.94,562.18a33.74,33.74,0,0,1,5.55-.43c2.86,0,4.95.66,6.28,1.86a6,6,0,0,1,2,4.69,6.57,6.57,0,0,1-1.73,4.78,9.26,9.26,0,0,1-6.84,2.47,10.27,10.27,0,0,1-2.33-.2v9h-2.89ZM265.83,573a10,10,0,0,0,2.39.23c3.49,0,5.62-1.7,5.62-4.79s-2.09-4.39-5.29-4.39a12.33,12.33,0,0,0-2.72.23Z"/><path class="cls-3" d="M288.57,584.32l-.23-2h-.1a6,6,0,0,1-4.92,2.4,4.58,4.58,0,0,1-4.92-4.62c0-3.89,3.46-6,9.67-6v-.33c0-1.33-.36-3.72-3.65-3.72a8,8,0,0,0-4.19,1.19l-.67-1.93a10,10,0,0,1,5.29-1.43c4.92,0,6.12,3.36,6.12,6.59v6a22.56,22.56,0,0,0,.26,3.85Zm-.43-8.21c-3.19-.07-6.82.5-6.82,3.63a2.59,2.59,0,0,0,2.76,2.79,4,4,0,0,0,3.89-2.7,3,3,0,0,0,.17-.93Z"/><path class="cls-3" d="M309.55,568.23c-.06,1.16-.13,2.46-.13,4.42V582c0,3.69-.73,6-2.29,7.34a8.52,8.52,0,0,1-5.85,1.93,10.36,10.36,0,0,1-5.36-1.33l.73-2.23a9.06,9.06,0,0,0,4.73,1.27c3,0,5.18-1.56,5.18-5.62v-1.8h-.06a5.75,5.75,0,0,1-5.12,2.7c-4,0-6.85-3.4-6.85-7.85,0-5.45,3.55-8.55,7.24-8.55a5.34,5.34,0,0,1,5,2.8h.07l.13-2.43Zm-3,6.35a4,4,0,0,0-.17-1.33,4.22,4.22,0,0,0-4.09-3.09c-2.79,0-4.78,2.36-4.78,6.08,0,3.16,1.59,5.79,4.75,5.79a4.29,4.29,0,0,0,4.06-3,5.33,5.33,0,0,0,.23-1.57Z"/><path class="cls-3" d="M328.84,576.14c0,6-4.12,8.55-8,8.55-4.36,0-7.72-3.19-7.72-8.28,0-5.39,3.53-8.55,8-8.55C325.72,567.86,328.84,571.22,328.84,576.14Zm-12.77.17c0,3.52,2,6.18,4.89,6.18s4.89-2.62,4.89-6.25c0-2.72-1.36-6.18-4.82-6.18S316.07,573.25,316.07,576.31Z"/><path class="cls-3" d="M262.94,714.62a42.21,42.21,0,0,1,6.15-.46c4.15,0,7.11,1,9.07,2.79s3.16,4.42,3.16,8a11.87,11.87,0,0,1-3.22,8.71c-2.1,2.09-5.56,3.22-9.91,3.22a48.3,48.3,0,0,1-5.25-.26Zm2.89,19.82a18.48,18.48,0,0,0,2.92.17c6.19,0,9.55-3.46,9.55-9.51,0-5.29-3-8.65-9.08-8.65a16.09,16.09,0,0,0-3.39.3Z"/><path class="cls-3" d="M288.24,716.12a1.81,1.81,0,0,1-3.62,0,1.78,1.78,0,0,1,1.82-1.83A1.74,1.74,0,0,1,288.24,716.12ZM285,736.73V720.64h2.93v16.09Z"/><path class="cls-3" d="M292.76,725.66c0-1.89,0-3.52-.13-5h2.56l.1,3.16h.13a4.83,4.83,0,0,1,4.46-3.52,3.52,3.52,0,0,1,.83.09v2.76a4.82,4.82,0,0,0-1-.1c-2.06,0-3.52,1.57-3.92,3.76a8,8,0,0,0-.13,1.36v8.58h-2.9Z"/><path class="cls-3" d="M304.93,729.22c.07,4,2.6,5.59,5.52,5.59a10.51,10.51,0,0,0,4.46-.84l.5,2.1a13.16,13.16,0,0,1-5.36,1c-4.95,0-7.91-3.26-7.91-8.12s2.86-8.67,7.55-8.67c5.25,0,6.65,4.62,6.65,7.58a11.82,11.82,0,0,1-.1,1.36Zm8.58-2.1c0-1.86-.76-4.75-4.05-4.75-3,0-4.26,2.73-4.49,4.75Z"/><path class="cls-3" d="M331.43,736.13a10.71,10.71,0,0,1-4.62.94c-4.85,0-8-3.3-8-8.22s3.39-8.54,8.64-8.54a9.79,9.79,0,0,1,4.06.83l-.66,2.26a6.81,6.81,0,0,0-3.4-.76c-3.69,0-5.68,2.72-5.68,6.08,0,3.72,2.39,6,5.58,6a8.3,8.3,0,0,0,3.6-.8Z"/><path class="cls-3" d="M346.13,736.13a10.71,10.71,0,0,1-4.62.94c-4.85,0-8-3.3-8-8.22s3.39-8.54,8.64-8.54a9.79,9.79,0,0,1,4.06.83l-.67,2.26a6.74,6.74,0,0,0-3.39-.76c-3.69,0-5.68,2.72-5.68,6.08,0,3.72,2.39,6,5.58,6a8.21,8.21,0,0,0,3.59-.8Z"/><path class="cls-3" d="M352.82,716.12a1.82,1.82,0,0,1-3.63,0,1.79,1.79,0,0,1,1.83-1.83A1.74,1.74,0,0,1,352.82,716.12Zm-3.26,20.61V720.64h2.93v16.09Z"/><path class="cls-3" d="M371.9,728.55c0,6-4.12,8.55-8,8.55-4.35,0-7.71-3.19-7.71-8.28,0-5.39,3.52-8.54,8-8.54C368.78,720.28,371.9,723.63,371.9,728.55Zm-12.76.17c0,3.52,2,6.18,4.88,6.18s4.89-2.62,4.89-6.25c0-2.72-1.36-6.18-4.82-6.18S359.14,725.66,359.14,728.72Z"/><path class="cls-3" d="M375.6,725c0-1.67,0-3-.14-4.36h2.6l.16,2.66h.07a5.92,5.92,0,0,1,5.32-3c2.23,0,5.68,1.33,5.68,6.84v9.61h-2.92v-9.27c0-2.6-1-4.76-3.72-4.76a4.17,4.17,0,0,0-3.93,3,4.35,4.35,0,0,0-.2,1.37v9.67H375.6Z"/><path class="cls-3" d="M395.68,729.22c.07,4,2.59,5.59,5.52,5.59a10.54,10.54,0,0,0,4.46-.84l.49,2.1a13.1,13.1,0,0,1-5.35,1c-4.95,0-7.91-3.26-7.91-8.12s2.86-8.67,7.55-8.67c5.25,0,6.65,4.62,6.65,7.58a11.82,11.82,0,0,1-.1,1.36Zm8.58-2.1c0-1.86-.77-4.75-4.06-4.75-3,0-4.25,2.73-4.49,4.75Z"/><path class="cls-3" d="M410.31,733.74a7.66,7.66,0,0,0,3.86,1.16c2.13,0,3.12-1.06,3.12-2.39s-.83-2.16-3-3c-2.89-1-4.25-2.63-4.25-4.55,0-2.6,2.09-4.72,5.55-4.72a8.08,8.08,0,0,1,4,1l-.74,2.13a6.23,6.23,0,0,0-3.29-.93c-1.73,0-2.69,1-2.69,2.19s1,1.93,3.06,2.73c2.79,1.06,4.22,2.46,4.22,4.85,0,2.83-2.19,4.83-6,4.83a9.23,9.23,0,0,1-4.52-1.1Z"/><path class="cls-3" d="M444.83,713.13v19.45c0,1.43,0,3.06.13,4.15h-2.63l-.13-2.79h-.07a5.93,5.93,0,0,1-5.48,3.16c-3.89,0-6.88-3.29-6.88-8.18,0-5.35,3.29-8.64,7.21-8.64a5.36,5.36,0,0,1,4.85,2.46h.07v-9.61Zm-2.93,14.06a5.15,5.15,0,0,0-.13-1.23,4.3,4.3,0,0,0-4.22-3.39c-3,0-4.83,2.66-4.83,6.22,0,3.26,1.6,6,4.76,6a4.4,4.4,0,0,0,4.29-3.49,5.11,5.11,0,0,0,.13-1.27Z"/><path class="cls-3" d="M451.31,729.22c.07,4,2.6,5.59,5.52,5.59a10.51,10.51,0,0,0,4.46-.84l.5,2.1a13.16,13.16,0,0,1-5.36,1c-4.95,0-7.91-3.26-7.91-8.12s2.86-8.67,7.55-8.67c5.25,0,6.65,4.62,6.65,7.58a11.82,11.82,0,0,1-.1,1.36Zm8.58-2.1c0-1.86-.76-4.75-4.06-4.75-2.95,0-4.25,2.73-4.48,4.75Z"/><path class="cls-3" d="M475,729.22c.07,4,2.6,5.59,5.52,5.59A10.51,10.51,0,0,0,485,734l.5,2.1a13.16,13.16,0,0,1-5.36,1c-4.95,0-7.91-3.26-7.91-8.12s2.86-8.67,7.55-8.67c5.25,0,6.65,4.62,6.65,7.58a11.82,11.82,0,0,1-.1,1.36Zm8.58-2.1c0-1.86-.76-4.75-4.06-4.75-3,0-4.25,2.73-4.48,4.75Z"/><path class="cls-3" d="M490.05,725c0-1.67,0-3-.13-4.36h2.59l.17,2.66h.07a5.9,5.9,0,0,1,5.32-3c2.22,0,5.68,1.33,5.68,6.84v9.61h-2.92v-9.27c0-2.6-1-4.76-3.73-4.76a4.16,4.16,0,0,0-3.92,3,4.35,4.35,0,0,0-.2,1.37v9.67h-2.93Z"/><path class="cls-3" d="M509.21,720.64l3.16,9a41.82,41.82,0,0,1,1.29,4.13h.1c.37-1.33.83-2.66,1.36-4.13l3.13-9h3.06L515,736.73H512.2l-6.12-16.09Z"/><path class="cls-3" d="M530,713.69l-4,4.76h-2.1l2.93-4.76Zm-5.95,23V720.64H527v16.09Z"/><path class="cls-3" d="M546.42,728.55c0,6-4.13,8.55-8,8.55-4.35,0-7.71-3.19-7.71-8.28,0-5.39,3.52-8.54,8-8.54C543.29,720.28,546.42,723.63,546.42,728.55Zm-12.77.17c0,3.52,2,6.18,4.89,6.18s4.88-2.62,4.88-6.25c0-2.72-1.36-6.18-4.82-6.18S533.65,725.66,533.65,728.72Z"/><path class="cls-3" d="M265.83,866.74v9.37h10.84v-9.37h2.92v22.41h-2.92V878.64H265.83v10.51h-2.89V866.74Z"/><path class="cls-3" d="M288.11,868.53a1.82,1.82,0,0,1-3.63,0,1.79,1.79,0,0,1,1.83-1.83A1.74,1.74,0,0,1,288.11,868.53Zm-3.26,20.62v-16.1h2.92v16.1Z"/><path class="cls-3" d="M292.23,886.15a7.63,7.63,0,0,0,3.86,1.17c2.13,0,3.12-1.07,3.12-2.4s-.83-2.16-3-3c-2.89-1-4.25-2.62-4.25-4.55,0-2.59,2.09-4.72,5.55-4.72a7.89,7.89,0,0,1,4,1l-.73,2.12a6.23,6.23,0,0,0-3.29-.93c-1.73,0-2.69,1-2.69,2.2s1,1.93,3.06,2.72c2.79,1.07,4.22,2.46,4.22,4.86,0,2.82-2.19,4.82-6,4.82a9.12,9.12,0,0,1-4.52-1.1Z"/><path class="cls-3" d="M309.32,868.43v4.62h4.19v2.23h-4.19V884c0,2,.57,3.12,2.2,3.12a6.53,6.53,0,0,0,1.69-.19l.14,2.19a7.28,7.28,0,0,1-2.6.4,4.06,4.06,0,0,1-3.16-1.23c-.83-.87-1.13-2.3-1.13-4.19v-8.78H304v-2.23h2.49V869.2Z"/><path class="cls-3" d="M331.17,881c0,5.95-4.12,8.54-8,8.54-4.36,0-7.72-3.19-7.72-8.28,0-5.38,3.53-8.54,8-8.54C328,872.69,331.17,876.05,331.17,881Zm-12.77.16c0,3.53,2,6.19,4.89,6.19s4.89-2.63,4.89-6.25c0-2.73-1.37-6.19-4.82-6.19S318.4,878.07,318.4,881.13Z"/><path class="cls-3" d="M334.86,878.07c0-1.89,0-3.52-.13-5h2.56l.1,3.16h.13a4.82,4.82,0,0,1,4.46-3.52,3,3,0,0,1,.83.1v2.76a4.22,4.22,0,0,0-1-.1c-2.06,0-3.52,1.56-3.92,3.75a7.92,7.92,0,0,0-.14,1.37v8.58h-2.89Z"/><path class="cls-3" d="M349.13,868.53a1.82,1.82,0,0,1-3.63,0,1.79,1.79,0,0,1,1.83-1.83A1.74,1.74,0,0,1,349.13,868.53Zm-3.26,20.62v-16.1h2.92v16.1Z"/><path class="cls-3" d="M362.56,889.15l-.23-2h-.1a6,6,0,0,1-4.92,2.39,4.58,4.58,0,0,1-4.92-4.62c0-3.89,3.45-6,9.67-6v-.34c0-1.33-.36-3.72-3.66-3.72a8,8,0,0,0-4.19,1.2l-.66-1.93a10,10,0,0,1,5.29-1.43c4.92,0,6.11,3.36,6.11,6.58v6a22.61,22.61,0,0,0,.27,3.86Zm-.43-8.22c-3.19-.06-6.82.5-6.82,3.63a2.59,2.59,0,0,0,2.76,2.79,4,4,0,0,0,3.89-2.69,3,3,0,0,0,.17-.93Z"/><path class="cls-3" d="M369.68,865.54h2.92v23.61h-2.92Z"/><path class="cls-3" d="M398.47,865.54V885c0,1.43,0,3.06.14,4.16H396l-.13-2.8h-.07a6,6,0,0,1-5.49,3.16c-3.89,0-6.88-3.29-6.88-8.18,0-5.35,3.29-8.64,7.22-8.64a5.36,5.36,0,0,1,4.85,2.46h.07v-9.61Zm-2.92,14.06a5.22,5.22,0,0,0-.14-1.23,4.29,4.29,0,0,0-4.22-3.39c-3,0-4.82,2.66-4.82,6.22,0,3.26,1.6,5.95,4.75,5.95a4.39,4.39,0,0,0,4.29-3.49,5.07,5.07,0,0,0,.14-1.26Z"/><path class="cls-3" d="M405,881.63c.07,4,2.59,5.59,5.52,5.59a10.63,10.63,0,0,0,4.45-.83l.5,2.09a12.93,12.93,0,0,1-5.35,1c-5,0-7.91-3.26-7.91-8.11s2.86-8.68,7.54-8.68c5.26,0,6.65,4.62,6.65,7.58a9.76,9.76,0,0,1-.1,1.36Zm8.58-2.09c0-1.86-.77-4.76-4.06-4.76-3,0-4.26,2.73-4.49,4.76Z"/><path class="cls-3" d="M427,878.31c0-2.06-.07-3.73-.13-5.26h2.62l.14,2.76h.06a6.33,6.33,0,0,1,5.72-3.12c3.89,0,6.82,3.29,6.82,8.18,0,5.78-3.53,8.64-7.32,8.64A5.64,5.64,0,0,1,430,887h-.07v8.74H427Zm2.89,4.29a7.1,7.1,0,0,0,.13,1.19,4.53,4.53,0,0,0,4.39,3.43c3.09,0,4.89-2.53,4.89-6.22,0-3.22-1.7-6-4.79-6a4.66,4.66,0,0,0-4.42,3.62,4.78,4.78,0,0,0-.2,1.2Z"/><path class="cls-3" d="M447.59,881.63c.07,4,2.59,5.59,5.52,5.59a10.63,10.63,0,0,0,4.45-.83l.5,2.09a12.93,12.93,0,0,1-5.35,1c-5,0-7.91-3.26-7.91-8.11s2.86-8.68,7.54-8.68c5.26,0,6.65,4.62,6.65,7.58a9.76,9.76,0,0,1-.1,1.36Zm8.58-2.09c0-1.86-.77-4.76-4.06-4.76-3,0-4.26,2.73-4.49,4.76Z"/><path class="cls-3" d="M476.52,865.54V885c0,1.43,0,3.06.13,4.16H474l-.13-2.8h-.07a5.93,5.93,0,0,1-5.48,3.16c-3.89,0-6.88-3.29-6.88-8.18,0-5.35,3.29-8.64,7.21-8.64a5.36,5.36,0,0,1,4.85,2.46h.07v-9.61Zm-2.93,14.06a5.2,5.2,0,0,0-.13-1.23,4.3,4.3,0,0,0-4.22-3.39c-3,0-4.83,2.66-4.83,6.22,0,3.26,1.6,5.95,4.76,5.95a4.4,4.4,0,0,0,4.29-3.49,5.08,5.08,0,0,0,.13-1.26Z"/><path class="cls-3" d="M484.63,868.53a1.81,1.81,0,0,1-3.62,0,1.78,1.78,0,0,1,1.83-1.83A1.74,1.74,0,0,1,484.63,868.53Zm-3.26,20.62v-16.1h2.93v16.1Z"/><path class="cls-3" d="M503.05,865.54V885c0,1.43,0,3.06.14,4.16h-2.63l-.13-2.8h-.07a6,6,0,0,1-5.49,3.16c-3.89,0-6.88-3.29-6.88-8.18,0-5.35,3.29-8.64,7.22-8.64a5.36,5.36,0,0,1,4.85,2.46h.07v-9.61Zm-2.92,14.06a5.22,5.22,0,0,0-.14-1.23,4.29,4.29,0,0,0-4.22-3.39c-3,0-4.82,2.66-4.82,6.22,0,3.26,1.6,5.95,4.76,5.95a4.39,4.39,0,0,0,4.28-3.49,5.07,5.07,0,0,0,.14-1.26Z"/><path class="cls-3" d="M522.47,881c0,5.95-4.12,8.54-8,8.54-4.36,0-7.71-3.19-7.71-8.28,0-5.38,3.52-8.54,8-8.54C519.35,872.69,522.47,876.05,522.47,881Zm-12.76.16c0,3.53,2,6.19,4.88,6.19s4.89-2.63,4.89-6.25c0-2.73-1.36-6.19-4.82-6.19S509.71,878.07,509.71,881.13Z"/><path class="cls-3" d="M525.77,886.15a7.59,7.59,0,0,0,3.85,1.17c2.13,0,3.13-1.07,3.13-2.4s-.83-2.16-3-3c-2.9-1-4.26-2.62-4.26-4.55,0-2.59,2.09-4.72,5.55-4.72a8,8,0,0,1,4,1l-.73,2.12a6.26,6.26,0,0,0-3.29-.93c-1.73,0-2.7,1-2.7,2.2s1,1.93,3.06,2.72c2.8,1.07,4.23,2.46,4.23,4.86,0,2.82-2.2,4.82-6,4.82a9.09,9.09,0,0,1-4.52-1.1Z"/><circle class="cls-4" cx="232.64" cy="197" r="57.83"/><circle class="cls-4" cx="394.3" cy="197" r="57.83"/><circle class="cls-4" cx="558.19" cy="197" r="57.83"/><g class="cls-5"><path d="M402.64,192c0,9.67-3.59,15-9.89,15-5.55,0-9.32-5.21-9.41-14.62s4.12-14.78,9.89-14.78C399.23,177.6,402.64,182.94,402.64,192Zm-15.44.44c0,7.39,2.27,11.59,5.77,11.59,3.94,0,5.82-4.59,5.82-11.85,0-7-1.8-11.6-5.78-11.6C389.64,180.57,387.2,184.69,387.2,192.43Z"/></g><g id="Capa_2-2" data-name="Capa 2" class="cls-5"><g id="Capa_1-2-2" data-name="Capa 1-2"><polyline class="cls-6" points="352.94 186.29 372.41 227 420.17 227 435.55 186.29"/><line class="cls-7" x1="356.68" y1="195.96" x2="349.92" y2="199.22"/><line class="cls-7" x1="431.92" y1="195.96" x2="438.68" y2="199.22"/></g></g><g id="Capa_2-3" data-name="Capa 2"><g id="Layer_1" data-name="Layer 1"><path class="cls-8" d="M142.65,747.53a2.26,2.26,0,0,1-2.3-2.3v-14.9a13.25,13.25,0,0,1,4.3-9.7l8-7.3a14.43,14.43,0,0,1,9.9-3.8h19.9a2.26,2.26,0,0,1,2.3,2.3v33.4a2.26,2.26,0,0,1-2.3,2.3Z"/><path class="cls-9" d="M182.35,745.23h-39.7v-14.9a11.16,11.16,0,0,1,1.7-5.8h38Z"/><path class="cls-10" d="M168.35,726.13h-14.5a.94.94,0,0,1-1.1-.8.88.88,0,0,1,.5-1l5-4a8.22,8.22,0,0,1,5.2-1.8h4.3"/><path class="cls-11" d="M155.05,754.93a8.6,8.6,0,1,1,8.6-8.7h0A8.69,8.69,0,0,1,155.05,754.93Z"/><path class="cls-8" d="M184.65,747.73c-10.5,0-13.3-.6-14.5-1.2a2.33,2.33,0,0,1-1.3-2.1v-37.5a9.13,9.13,0,0,1,9.1-9.1h34.5a9.13,9.13,0,0,1,9.1,9.1v31.4a9.13,9.13,0,0,1-9.1,9.1h-17c-.1.1-5.3.3-10.8.3Z"/><path class="cls-9" d="M219.15,724.53v13.9a6.81,6.81,0,0,1-6.8,6.8h-17s-20.8.8-24.2-.8v-19.9Z"/><path class="cls-12" d="M212.35,718.33v-7.7a3.8,3.8,0,0,0-3.8-3.8h-13.7"/><path class="cls-11" d="M196.55,754.93a8.6,8.6,0,1,1,8.6-8.6h0A8.6,8.6,0,0,1,196.55,754.93Z"/></g></g><g id="Capa_2-4" data-name="Capa 2" class="cls-13"><g id="Layer_1-2" data-name="Layer 1"><path class="cls-14" d="M156,549.8h50.9a7.47,7.47,0,0,1,7.5,7.4v32.9a7.49,7.49,0,0,1-7.5,7.5H156a7.41,7.41,0,0,1-7.4-7.5V557.2A7.26,7.26,0,0,1,156,549.8Z"/><line class="cls-12" x1="203.41" y1="563.1" x2="158.01" y2="563.1"/><line class="cls-15" x1="198.91" y1="586.7" x2="161.81" y2="586.7"/><line class="cls-16" x1="202.31" y1="569.7" x2="187.41" y2="569.7"/></g></g><g id="Capa_2-5" data-name="Capa 2" class="cls-13"><g id="Layer_1-3" data-name="Layer 1"><path class="cls-14" d="M164.91,920.14a7.38,7.38,0,0,1-7.4-7.4v-50.9a7.38,7.38,0,0,1,7.4-7.4h23.5a2.36,2.36,0,0,1,1.6.7l14.6,14.6a2.36,2.36,0,0,1,.7,1.6v41.4a7.41,7.41,0,0,1-7.5,7.4Z"/><path class="cls-17" d="M190.11,853.94a5.66,5.66,0,0,0-1.8.3,4.57,4.57,0,0,0-2.8,4.2v5.7a9.65,9.65,0,0,0,9.7,9.7h5.7a4.65,4.65,0,0,0,4.6-4.6,4.82,4.82,0,0,0-1.3-3.2l-10.9-10.8A4.63,4.63,0,0,0,190.11,853.94Z"/><line class="cls-12" x1="169.61" y1="879.04" x2="193.11" y2="879.04"/><line class="cls-12" x1="169.61" y1="887.74" x2="193.11" y2="887.74"/><line class="cls-12" x1="169.61" y1="896.34" x2="193.11" y2="896.34"/><line class="cls-12" x1="169.61" y1="905.04" x2="193.11" y2="905.04"/></g></g><g id="Capa_2-6" data-name="Capa 2" class="cls-13"><g id="Layer_1-4" data-name="Layer 1"><path class="cls-17" d="M271.16,198.17a4.22,4.22,0,0,1-6,.19l-2.57-2.08v20.24a9,9,0,0,1-9,9H213.05a9,9,0,0,1-9-9V196.29l-2.56,2.07a4.31,4.31,0,0,1-6.09-6.09l34.9-28.72a4.42,4.42,0,0,1,6.09,0l34.81,28.72A4.39,4.39,0,0,1,271.16,198.17Z"/><path d="M233,162.31v63.06H211a6.81,6.81,0,0,1-6.84-6.85V196.58l-2.66,1.78a4.31,4.31,0,0,1-6.09-6.09l8.56-7.06V166.78a4.26,4.26,0,0,1,4.28-4.28h2.47a4.26,4.26,0,0,1,4.28,4.28v9.33l15.22-12.56A4.13,4.13,0,0,1,233,162.31Z"/></g></g><g id="Capa_2-7" data-name="Capa 2" class="cls-13"><g id="Layer_1-5" data-name="Layer 1"><path d="M559.44,176.18a2.88,2.88,0,0,1-2.1-.9L555,173a19.16,19.16,0,0,0-27.1,27.1l27.1,27a6.67,6.67,0,0,0,4.2,1.8Z"/><path class="cls-17" d="M558.64,176a2.88,2.88,0,0,0,2.1-.9l2.3-2.3a19.14,19.14,0,0,1,27,27.1L562.84,227a7.38,7.38,0,0,1-4.2,1.9Z"/><path class="cls-12" d="M587.54,190a13.82,13.82,0,0,0-5.2-10.2,12.15,12.15,0,0,0-9.9-2.4"/></g></g><g id="Capa_2-8" data-name="Capa 2" class="cls-13"><g id="Layer_1-6" data-name="Layer 1"><path class="cls-17" d="M182.36,398.49a9.29,9.29,0,0,1-6.7-2.8,9.52,9.52,0,0,1-2.8-6.8,9.29,9.29,0,0,1,2.8-6.7,9.6,9.6,0,0,1,13.5,0,9.47,9.47,0,0,1,2.8,6.7,9.7,9.7,0,0,1-2.8,6.8A9.52,9.52,0,0,1,182.36,398.49Z"/><path class="cls-14" d="M182.36,381.69a7.17,7.17,0,0,0-7.2,7.2,7.34,7.34,0,0,0,2.1,5.2,6.94,6.94,0,0,0,5.1,2.1Z"/><path class="cls-17" d="M182.46,440a16.07,16.07,0,0,1-11.9-4.9,16.3,16.3,0,0,1-4.9-12,16.07,16.07,0,0,1,4.9-11.9,16.9,16.9,0,0,1,23.9,0,16.07,16.07,0,0,1,4.9,11.9,16.46,16.46,0,0,1-4.9,12A16.69,16.69,0,0,1,182.46,440Z"/><path class="cls-14" d="M182.61,408a14.91,14.91,0,0,0-15.1,15.09,14.91,14.91,0,0,0,4.37,10.85,15.24,15.24,0,0,0,10.73,4.49Z"/><line class="cls-12" x1="184.26" y1="387.09" x2="182.66" y2="387.09"/><path class="cls-12" d="M186.06,414.19s7.9,5.7,2.9,15.7"/></g></g><circle class="cls-18" cx="183.93" cy="731.22" r="100.61"/><rect class="cls-19" x="2.05" y="179.1" width="9.9" height="9.9" transform="translate(142.09 309.24) rotate(135)"/><rect class="cls-20" x="761.83" y="503.78" width="8.34" height="8.34" transform="translate(1666.82 325.47) rotate(135)"/><rect class="cls-21" x="31.83" y="789.78" width="8.34" height="8.34" transform="translate(622.86 1329.89) rotate(135)"/></g></g></svg>