<svg xmlns="http://www.w3.org/2000/svg" xmlns:xlink="http://www.w3.org/1999/xlink" viewBox="0 0 875.78 1044"><defs><style>.cls-1{opacity:0.5;fill:url(#Degradado_sin_nombre_50);}.cls-2{fill:url(#Degradado_sin_nombre_26);}.cls-3{fill:#c4c4c4;}.cls-15,.cls-4{fill:#dbdbdb;}.cls-4{opacity:0.6;}.cls-5{opacity:0.6;}.cls-10,.cls-13,.cls-14,.cls-6,.cls-7{fill:none;stroke-linejoin:round;}.cls-12,.cls-6,.cls-7{stroke:#000;}.cls-6,.cls-7{stroke-width:6px;}.cls-10,.cls-13,.cls-14,.cls-7{stroke-linecap:round;}.cls-8{fill:#ad0003;}.cls-9{fill:#db0029;}.cls-10,.cls-13,.cls-14{stroke:#fff;}.cls-10{stroke-width:4.6px;}.cls-11{opacity:0.7;}.cls-12{stroke-miterlimit:10;stroke-width:4px;}.cls-13{stroke-width:8px;}.cls-14{stroke-width:3px;}.cls-16{fill:#fff;}.cls-17{fill:url(#Degradado_sin_nombre_77);}.cls-18{fill:#eb445a;}.cls-19{fill:#2dd36f;}.cls-20{fill:#3dc2ff;}</style><linearGradient id="Degradado_sin_nombre_50" x1="493.52" y1="1044" x2="493.52" gradientUnits="userSpaceOnUse"><stop offset="0" stop-color="#fff" stop-opacity="0"/><stop offset="0.15" stop-color="#e8ebec" stop-opacity="0.5"/><stop offset="0.5" stop-color="#e8ebec" stop-opacity="0.5"/><stop offset="0.85" stop-color="#e8ebec" stop-opacity="0.5"/><stop offset="1" stop-color="#fff" stop-opacity="0"/></linearGradient><linearGradient id="Degradado_sin_nombre_26" x1="419.52" y1="1044" x2="419.52" gradientUnits="userSpaceOnUse"><stop offset="0" stop-color="#fff" stop-opacity="0"/><stop offset="0.15" stop-color="#fff"/><stop offset="0.5" stop-color="#fff"/><stop offset="0.85" stop-color="#fff"/><stop offset="1" stop-color="#fff" stop-opacity="0"/></linearGradient><radialGradient id="Degradado_sin_nombre_77" cx="582.63" cy="196.38" r="100.61" gradientUnits="userSpaceOnUse"><stop offset="0.19" stop-color="#ffc409" stop-opacity="0"/><stop offset="0.64" stop-color="#ffc409" stop-opacity="0"/><stop offset="0.68" stop-color="#ffc409" stop-opacity="0.02"/><stop offset="0.72" stop-color="#ffc409" stop-opacity="0.08"/><stop offset="0.77" stop-color="#ffc409" stop-opacity="0.19"/><stop offset="0.83" stop-color="#ffc409" stop-opacity="0.33"/><stop offset="0.88" stop-color="#ffc409" stop-opacity="0.52"/><stop offset="0.94" stop-color="#ffc409" stop-opacity="0.74"/><stop offset="1" stop-color="#ffc409"/></radialGradient></defs><g id="Capa_2" data-name="Capa 2"><g id="Capa_1-2" data-name="Capa 1"><rect class="cls-1" x="111.27" width="764.51" height="1044"/><rect class="cls-2" x="112.43" width="614.18" height="1044"/><path class="cls-3" d="M305.07,408.21c-.16-3.12-.36-6.88-.33-9.67h-.1c-.76,2.63-1.7,5.42-2.83,8.51l-3.95,10.87h-2.2L292,407.25c-1.07-3.16-2-6.05-2.59-8.71h-.07c-.07,2.79-.23,6.55-.43,9.91l-.6,9.61h-2.76l1.56-22.41h3.69l3.83,10.84c.93,2.75,1.69,5.22,2.26,7.54h.1c.56-2.26,1.36-4.72,2.36-7.54l4-10.84h3.69l1.39,22.41h-2.82Z"/><path class="cls-3" d="M316.48,397.44a1.81,1.81,0,0,1-3.62,0,1.78,1.78,0,0,1,1.82-1.83A1.74,1.74,0,0,1,316.48,397.44Zm-3.26,20.62V402h2.93v16.1Z"/><path class="cls-3" d="M339.52,417.46a10.74,10.74,0,0,1-4.62.93c-4.85,0-8-3.29-8-8.21s3.39-8.55,8.64-8.55a9.79,9.79,0,0,1,4.06.83l-.66,2.26a6.81,6.81,0,0,0-3.4-.76c-3.69,0-5.68,2.72-5.68,6.08,0,3.73,2.39,6,5.58,6a8.21,8.21,0,0,0,3.59-.8Z"/><path class="cls-3" d="M356.42,413.67c0,1.66,0,3.12.13,4.39H354l-.17-2.63h-.07a6,6,0,0,1-5.32,3c-2.52,0-5.55-1.39-5.55-7.05V402h2.93v8.91c0,3.06.93,5.12,3.59,5.12a4.21,4.21,0,0,0,3.85-2.66,4.16,4.16,0,0,0,.27-1.49V402h2.93Z"/><path class="cls-3" d="M362.9,410.54c.07,4,2.59,5.59,5.52,5.59a10.69,10.69,0,0,0,4.46-.83l.49,2.09a12.93,12.93,0,0,1-5.35,1c-4.95,0-7.91-3.26-7.91-8.11s2.86-8.68,7.55-8.68c5.25,0,6.65,4.62,6.65,7.58a11.63,11.63,0,0,1-.1,1.36Zm8.58-2.09c0-1.86-.77-4.76-4.06-4.76-3,0-4.25,2.73-4.49,4.76Z"/><path class="cls-3" d="M377.93,406.32c0-1.66,0-3-.13-4.36h2.59l.17,2.66h.06a5.92,5.92,0,0,1,5.32-3c2.23,0,5.69,1.33,5.69,6.85v9.61H388.7v-9.28c0-2.59-1-4.76-3.72-4.76a4.16,4.16,0,0,0-3.92,3,4,4,0,0,0-.2,1.36v9.68h-2.93Z"/><path class="cls-3" d="M399.78,397.34V402H404v2.23h-4.19v8.68c0,2,.56,3.12,2.19,3.12a7.1,7.1,0,0,0,1.7-.19l.13,2.19a7.18,7.18,0,0,1-2.59.4,4.06,4.06,0,0,1-3.16-1.23c-.83-.87-1.13-2.3-1.13-4.19v-8.78h-2.49V402h2.49v-3.85Z"/><path class="cls-3" d="M416.17,418.06l-.23-2h-.1a6,6,0,0,1-4.92,2.39A4.58,4.58,0,0,1,406,413.8c0-3.89,3.46-6,9.67-6v-.34c0-1.33-.36-3.72-3.65-3.72a7.93,7.93,0,0,0-4.19,1.2l-.67-1.93a10,10,0,0,1,5.29-1.43c4.92,0,6.12,3.36,6.12,6.58v6a22.68,22.68,0,0,0,.26,3.86Zm-.43-8.22c-3.19-.06-6.82.5-6.82,3.63a2.59,2.59,0,0,0,2.76,2.79,4,4,0,0,0,3.89-2.69,3,3,0,0,0,.17-.93Z"/><path class="cls-3" d="M286.19,562.18a33.74,33.74,0,0,1,5.55-.43c2.86,0,4.95.66,6.28,1.86a6,6,0,0,1,2,4.69,6.61,6.61,0,0,1-1.73,4.79,9.33,9.33,0,0,1-6.85,2.46,10.27,10.27,0,0,1-2.33-.2v9h-2.89ZM289.08,573a10,10,0,0,0,2.39.23c3.5,0,5.62-1.7,5.62-4.79S295,564,291.81,564a12.37,12.37,0,0,0-2.73.23Z"/><path class="cls-3" d="M311.82,584.32l-.23-2h-.1a6,6,0,0,1-4.92,2.39,4.58,4.58,0,0,1-4.92-4.62c0-3.89,3.46-6,9.68-6v-.33c0-1.33-.37-3.72-3.66-3.72a8,8,0,0,0-4.19,1.19l-.67-1.92a10,10,0,0,1,5.29-1.43c4.92,0,6.12,3.35,6.12,6.58v6a23.63,23.63,0,0,0,.26,3.85Zm-.43-8.21c-3.19-.07-6.81.5-6.81,3.63a2.59,2.59,0,0,0,2.76,2.79,4,4,0,0,0,3.89-2.7,3,3,0,0,0,.16-.93Z"/><path class="cls-3" d="M332.81,568.23c-.07,1.16-.14,2.46-.14,4.42V582c0,3.69-.73,6-2.29,7.34a8.49,8.49,0,0,1-5.85,1.93,10.3,10.3,0,0,1-5.35-1.33l.73-2.22a9.09,9.09,0,0,0,4.72,1.26c3,0,5.18-1.56,5.18-5.62v-1.8h-.06a5.75,5.75,0,0,1-5.12,2.7c-4,0-6.85-3.39-6.85-7.85,0-5.45,3.56-8.54,7.25-8.54a5.36,5.36,0,0,1,5,2.79h.06l.14-2.43Zm-3,6.35a4,4,0,0,0-.17-1.33,4.22,4.22,0,0,0-4.09-3.09c-2.79,0-4.78,2.36-4.78,6.08,0,3.16,1.59,5.79,4.75,5.79a4.28,4.28,0,0,0,4.06-3,5.33,5.33,0,0,0,.23-1.57Z"/><path class="cls-3" d="M352.09,576.14c0,6-4.12,8.55-8,8.55-4.36,0-7.71-3.19-7.71-8.28,0-5.39,3.52-8.54,8-8.54C349,567.87,352.09,571.22,352.09,576.14Zm-12.76.17c0,3.52,2,6.18,4.88,6.18s4.89-2.62,4.89-6.25c0-2.72-1.36-6.18-4.82-6.18S339.33,573.25,339.33,576.31Z"/><path class="cls-3" d="M286.19,714.62a42.21,42.21,0,0,1,6.15-.46c4.15,0,7.11,1,9.08,2.79s3.15,4.42,3.15,8a11.87,11.87,0,0,1-3.22,8.71c-2.1,2.09-5.55,3.22-9.91,3.22a48.3,48.3,0,0,1-5.25-.26Zm2.89,19.82a18.61,18.61,0,0,0,2.93.17c6.18,0,9.54-3.46,9.54-9.51,0-5.29-3-8.65-9.08-8.65a16.09,16.09,0,0,0-3.39.3Z"/><path class="cls-3" d="M311.49,716.12a1.81,1.81,0,0,1-3.62,0,1.78,1.78,0,0,1,1.83-1.83A1.74,1.74,0,0,1,311.49,716.12Zm-3.26,20.61V720.64h2.93v16.09Z"/><path class="cls-3" d="M316,725.66c0-1.89,0-3.52-.14-5h2.56l.1,3.16h.14a4.82,4.82,0,0,1,4.45-3.52,3,3,0,0,1,.83.1v2.75a4.82,4.82,0,0,0-1-.1c-2.06,0-3.52,1.57-3.92,3.76a8,8,0,0,0-.13,1.37v8.57H316Z"/><path class="cls-3" d="M328.18,729.22c.07,4,2.6,5.59,5.52,5.59a10.51,10.51,0,0,0,4.46-.84l.5,2.1a13.1,13.1,0,0,1-5.35,1c-5,0-7.92-3.26-7.92-8.12s2.86-8.67,7.55-8.67c5.25,0,6.65,4.62,6.65,7.58a11.82,11.82,0,0,1-.1,1.36Zm8.58-2.1c0-1.86-.76-4.75-4.05-4.75-3,0-4.26,2.73-4.49,4.75Z"/><path class="cls-3" d="M354.69,736.13a10.77,10.77,0,0,1-4.63.94c-4.85,0-8-3.3-8-8.22s3.39-8.54,8.65-8.54a9.7,9.7,0,0,1,4.05.83l-.66,2.26a6.8,6.8,0,0,0-3.39-.76c-3.69,0-5.69,2.72-5.69,6.08,0,3.72,2.4,6,5.59,6a8.25,8.25,0,0,0,3.59-.8Z"/><path class="cls-3" d="M369.39,736.13a10.8,10.8,0,0,1-4.63.94c-4.85,0-8-3.3-8-8.22s3.39-8.54,8.64-8.54a9.79,9.79,0,0,1,4.06.83l-.66,2.26a6.81,6.81,0,0,0-3.4-.76c-3.69,0-5.68,2.72-5.68,6.08,0,3.72,2.39,6,5.59,6a8.25,8.25,0,0,0,3.59-.8Z"/><path class="cls-3" d="M376.07,716.12a1.81,1.81,0,0,1-3.62,0,1.78,1.78,0,0,1,1.82-1.83A1.74,1.74,0,0,1,376.07,716.12Zm-3.26,20.61V720.64h2.93v16.09Z"/><path class="cls-3" d="M395.16,728.55c0,6-4.13,8.55-8,8.55-4.35,0-7.71-3.19-7.71-8.28,0-5.39,3.52-8.54,8-8.54C392,720.28,395.16,723.63,395.16,728.55Zm-12.77.17c0,3.52,2,6.18,4.89,6.18s4.88-2.62,4.88-6.25c0-2.72-1.36-6.18-4.82-6.18S382.39,725.66,382.39,728.72Z"/><path class="cls-3" d="M398.85,725c0-1.67,0-3-.13-4.36h2.59l.16,2.66h.07a5.92,5.92,0,0,1,5.32-3c2.23,0,5.69,1.33,5.69,6.84v9.61h-2.93v-9.27c0-2.6-1-4.76-3.72-4.76a4.17,4.17,0,0,0-3.93,3,4.35,4.35,0,0,0-.2,1.37v9.67h-2.92Z"/><path class="cls-3" d="M418.93,729.22c.07,4,2.6,5.59,5.52,5.59a10.51,10.51,0,0,0,4.46-.84l.5,2.1a13.16,13.16,0,0,1-5.36,1c-4.95,0-7.91-3.26-7.91-8.12s2.86-8.67,7.55-8.67c5.25,0,6.65,4.62,6.65,7.58a11.82,11.82,0,0,1-.1,1.36Zm8.58-2.1c0-1.86-.76-4.75-4.05-4.75-3,0-4.26,2.73-4.49,4.75Z"/><path class="cls-3" d="M433.56,733.74a7.66,7.66,0,0,0,3.86,1.16c2.13,0,3.13-1.06,3.13-2.39s-.83-2.16-3-3c-2.9-1-4.26-2.63-4.26-4.55,0-2.6,2.09-4.72,5.55-4.72a8.08,8.08,0,0,1,4,1l-.73,2.13a6.3,6.3,0,0,0-3.3-.93c-1.72,0-2.69,1-2.69,2.19s1,1.93,3.06,2.73c2.79,1.06,4.22,2.46,4.22,4.85,0,2.83-2.19,4.83-6,4.83a9.23,9.23,0,0,1-4.52-1.1Z"/><path class="cls-3" d="M468.08,713.13v19.45c0,1.43,0,3.06.13,4.15h-2.62l-.14-2.79h-.06a6,6,0,0,1-5.49,3.16c-3.89,0-6.88-3.29-6.88-8.18,0-5.35,3.29-8.64,7.21-8.64a5.38,5.38,0,0,1,4.86,2.46h.06v-9.61Zm-2.93,14.06A5.2,5.2,0,0,0,465,726a4.3,4.3,0,0,0-4.22-3.39c-3,0-4.82,2.66-4.82,6.22,0,3.26,1.59,6,4.75,6a4.4,4.4,0,0,0,4.29-3.49,5.11,5.11,0,0,0,.13-1.27Z"/><path class="cls-3" d="M474.57,729.22c.06,4,2.59,5.59,5.52,5.59a10.49,10.49,0,0,0,4.45-.84l.5,2.1a13.1,13.1,0,0,1-5.35,1c-5,0-7.92-3.26-7.92-8.12s2.86-8.67,7.55-8.67c5.25,0,6.65,4.62,6.65,7.58a11.82,11.82,0,0,1-.1,1.36Zm8.57-2.1c0-1.86-.76-4.75-4.05-4.75-3,0-4.26,2.73-4.49,4.75Z"/><path class="cls-3" d="M498.27,729.22c.07,4,2.6,5.59,5.52,5.59a10.51,10.51,0,0,0,4.46-.84l.5,2.1a13.12,13.12,0,0,1-5.36,1c-4.95,0-7.91-3.26-7.91-8.12s2.86-8.67,7.55-8.67c5.25,0,6.65,4.62,6.65,7.58a11.82,11.82,0,0,1-.1,1.36Zm8.58-2.1c0-1.86-.76-4.75-4.05-4.75-3,0-4.26,2.73-4.49,4.75Z"/><path class="cls-3" d="M513.31,725c0-1.67,0-3-.14-4.36h2.6l.16,2.66H516a5.92,5.92,0,0,1,5.32-3c2.23,0,5.68,1.33,5.68,6.84v9.61h-2.92v-9.27c0-2.6-1-4.76-3.73-4.76a4.17,4.17,0,0,0-3.92,3,4.35,4.35,0,0,0-.2,1.37v9.67h-2.92Z"/><path class="cls-3" d="M532.46,720.64l3.16,9a41.82,41.82,0,0,1,1.29,4.13h.1c.37-1.33.84-2.66,1.37-4.13l3.12-9h3.06l-6.32,16.09h-2.79l-6.12-16.09Z"/><path class="cls-3" d="M553.27,713.69l-4,4.76h-2.1l2.93-4.76Zm-5.95,23V720.64h2.93v16.09Z"/><path class="cls-3" d="M569.67,728.55c0,6-4.13,8.55-8,8.55-4.35,0-7.71-3.19-7.71-8.28,0-5.39,3.53-8.54,8-8.54C566.54,720.28,569.67,723.63,569.67,728.55Zm-12.77.17c0,3.52,2,6.18,4.89,6.18s4.89-2.62,4.89-6.25c0-2.72-1.37-6.18-4.83-6.18S556.9,725.66,556.9,728.72Z"/><path class="cls-3" d="M289.08,866.74v9.37h10.84v-9.37h2.93v22.41h-2.93V878.64H289.08v10.51h-2.89V866.74Z"/><path class="cls-3" d="M311.36,868.53a1.81,1.81,0,0,1-3.62,0,1.78,1.78,0,0,1,1.82-1.83A1.74,1.74,0,0,1,311.36,868.53Zm-3.26,20.62v-16.1H311v16.1Z"/><path class="cls-3" d="M315.48,886.15a7.66,7.66,0,0,0,3.86,1.17c2.13,0,3.13-1.07,3.13-2.4s-.84-2.16-3-2.95c-2.89-1-4.25-2.63-4.25-4.56,0-2.59,2.09-4.72,5.55-4.72a8,8,0,0,1,4,1l-.73,2.12a6.4,6.4,0,0,0-3.3-.93c-1.73,0-2.69,1-2.69,2.2s1,1.93,3.06,2.72c2.79,1.07,4.22,2.46,4.22,4.86,0,2.82-2.19,4.82-6,4.82a9.12,9.12,0,0,1-4.52-1.1Z"/><path class="cls-3" d="M332.58,868.43v4.62h4.19v2.23h-4.19V884c0,2,.56,3.13,2.19,3.13a6.59,6.59,0,0,0,1.7-.2l.13,2.19a7.22,7.22,0,0,1-2.59.4,4,4,0,0,1-3.16-1.23c-.83-.87-1.13-2.29-1.13-4.19v-8.78h-2.5v-2.23h2.5V869.2Z"/><path class="cls-3" d="M354.42,881c0,5.95-4.12,8.54-8,8.54-4.36,0-7.72-3.19-7.72-8.28,0-5.38,3.53-8.54,8-8.54C351.3,872.69,354.42,876.05,354.42,881Zm-12.77.16c0,3.53,2,6.19,4.89,6.19s4.89-2.63,4.89-6.25c0-2.73-1.36-6.19-4.82-6.19S341.65,878.07,341.65,881.13Z"/><path class="cls-3" d="M358.11,878.07c0-1.89,0-3.52-.13-5h2.56l.1,3.16h.13a4.84,4.84,0,0,1,4.46-3.52,3,3,0,0,1,.83.1v2.76a4.22,4.22,0,0,0-1-.1c-2.06,0-3.52,1.56-3.92,3.76a7.75,7.75,0,0,0-.13,1.36v8.58h-2.9Z"/><path class="cls-3" d="M372.38,868.53a1.81,1.81,0,0,1-3.62,0,1.78,1.78,0,0,1,1.82-1.83A1.74,1.74,0,0,1,372.38,868.53Zm-3.26,20.62v-16.1h2.93v16.1Z"/><path class="cls-3" d="M385.81,889.15l-.23-2h-.1a6,6,0,0,1-4.92,2.39,4.58,4.58,0,0,1-4.92-4.62c0-3.89,3.46-6,9.67-6v-.34c0-1.33-.36-3.72-3.65-3.72a7.93,7.93,0,0,0-4.19,1.2l-.67-1.93a10,10,0,0,1,5.29-1.43c4.92,0,6.12,3.36,6.12,6.58v6a22.68,22.68,0,0,0,.26,3.86Zm-.43-8.22c-3.19-.06-6.82.5-6.82,3.63a2.59,2.59,0,0,0,2.76,2.79,4,4,0,0,0,3.89-2.69,3,3,0,0,0,.17-.93Z"/><path class="cls-3" d="M392.93,865.54h2.93v23.61h-2.93Z"/><path class="cls-3" d="M421.72,865.54V885c0,1.43,0,3.06.14,4.16h-2.63l-.13-2.8H419a6,6,0,0,1-5.48,3.16c-3.89,0-6.89-3.29-6.89-8.18,0-5.35,3.29-8.64,7.22-8.64a5.36,5.36,0,0,1,4.85,2.46h.07v-9.61ZM418.8,879.6a5.2,5.2,0,0,0-.13-1.23,4.31,4.31,0,0,0-4.23-3.39c-3,0-4.82,2.66-4.82,6.22,0,3.26,1.6,5.95,4.76,5.95a4.41,4.41,0,0,0,4.29-3.49,5.08,5.08,0,0,0,.13-1.26Z"/><path class="cls-3" d="M428.21,881.63c.07,4,2.59,5.59,5.52,5.59a10.72,10.72,0,0,0,4.46-.83l.49,2.09a12.93,12.93,0,0,1-5.35,1c-4.95,0-7.91-3.26-7.91-8.11s2.86-8.68,7.55-8.68c5.25,0,6.65,4.62,6.65,7.58a11.63,11.63,0,0,1-.1,1.36Zm8.58-2.09c0-1.86-.77-4.76-4.06-4.76-3,0-4.25,2.73-4.49,4.76Z"/><path class="cls-3" d="M450.29,878.31c0-2.06-.07-3.73-.13-5.26h2.62l.14,2.76H453a6.34,6.34,0,0,1,5.72-3.12c3.89,0,6.82,3.29,6.82,8.18,0,5.78-3.53,8.64-7.32,8.64a5.65,5.65,0,0,1-4.95-2.52h-.07v8.74h-2.89Zm2.89,4.29a6.16,6.16,0,0,0,.14,1.19,4.51,4.51,0,0,0,4.39,3.43c3.09,0,4.88-2.53,4.88-6.22,0-3.22-1.69-6-4.78-6a4.68,4.68,0,0,0-4.43,3.62,4.78,4.78,0,0,0-.2,1.2Z"/><path class="cls-3" d="M470.84,881.63c.07,4,2.59,5.59,5.52,5.59a10.72,10.72,0,0,0,4.46-.83l.49,2.09a12.93,12.93,0,0,1-5.35,1c-4.95,0-7.91-3.26-7.91-8.11s2.86-8.68,7.55-8.68c5.25,0,6.65,4.62,6.65,7.58a9.44,9.44,0,0,1-.11,1.36Zm8.58-2.09c0-1.86-.77-4.76-4.06-4.76-3,0-4.25,2.73-4.49,4.76Z"/><path class="cls-3" d="M499.77,865.54V885c0,1.43,0,3.06.13,4.16h-2.62l-.14-2.8h-.06a6,6,0,0,1-5.49,3.16c-3.89,0-6.88-3.29-6.88-8.18,0-5.35,3.29-8.64,7.21-8.64a5.38,5.38,0,0,1,4.86,2.46h.06v-9.61Zm-2.93,14.06a5.2,5.2,0,0,0-.13-1.23,4.3,4.3,0,0,0-4.22-3.39c-3,0-4.82,2.66-4.82,6.22,0,3.26,1.59,5.95,4.75,5.95a4.4,4.4,0,0,0,4.29-3.49,5.08,5.08,0,0,0,.13-1.26Z"/><path class="cls-3" d="M507.88,868.53a1.72,1.72,0,0,1-1.86,1.8,1.74,1.74,0,0,1-1.76-1.8,1.78,1.78,0,0,1,1.83-1.83A1.73,1.73,0,0,1,507.88,868.53Zm-3.25,20.62v-16.1h2.92v16.1Z"/><path class="cls-3" d="M526.31,865.54V885c0,1.43,0,3.06.13,4.16h-2.63l-.13-2.8h-.07a6,6,0,0,1-5.48,3.16c-3.89,0-6.89-3.29-6.89-8.18,0-5.35,3.29-8.64,7.22-8.64a5.36,5.36,0,0,1,4.85,2.46h.07v-9.61Zm-2.93,14.06a5.2,5.2,0,0,0-.13-1.23A4.31,4.31,0,0,0,519,875c-3,0-4.82,2.66-4.82,6.22,0,3.26,1.6,5.95,4.76,5.95a4.41,4.41,0,0,0,4.29-3.49,5.08,5.08,0,0,0,.13-1.26Z"/><path class="cls-3" d="M545.72,881c0,5.95-4.12,8.54-8,8.54-4.35,0-7.71-3.19-7.71-8.28,0-5.38,3.52-8.54,8-8.54C542.6,872.69,545.72,876.05,545.72,881Zm-12.76.16c0,3.53,2,6.19,4.89,6.19s4.88-2.63,4.88-6.25c0-2.73-1.36-6.19-4.82-6.19S533,878.07,533,881.13Z"/><path class="cls-3" d="M549,886.15a7.6,7.6,0,0,0,3.86,1.17c2.12,0,3.12-1.07,3.12-2.4s-.83-2.16-3-2.95c-2.89-1-4.26-2.63-4.26-4.56,0-2.59,2.1-4.72,5.56-4.72a8,8,0,0,1,4,1l-.73,2.12a6.36,6.36,0,0,0-3.29-.93c-1.73,0-2.69,1-2.69,2.2s1,1.93,3.05,2.72c2.8,1.07,4.23,2.46,4.23,4.86,0,2.82-2.2,4.82-6,4.82a9.12,9.12,0,0,1-4.52-1.1Z"/><circle class="cls-4" cx="255.9" cy="197" r="57.83"/><circle class="cls-4" cx="417.55" cy="197" r="57.83"/><circle class="cls-4" cx="581.44" cy="197" r="57.83"/><g class="cls-5"><path d="M425.89,192c0,9.67-3.59,15-9.89,15-5.55,0-9.32-5.21-9.4-14.62s4.11-14.78,9.88-14.78C422.48,177.6,425.89,182.94,425.89,192Zm-15.44.44c0,7.39,2.27,11.59,5.77,11.59,3.94,0,5.82-4.59,5.82-11.85,0-7-1.79-11.6-5.77-11.6C412.9,180.57,410.45,184.69,410.45,192.43Z"/></g><g id="Capa_2-2" data-name="Capa 2" class="cls-5"><g id="Capa_1-2-2" data-name="Capa 1-2"><polyline class="cls-6" points="376.19 186.29 395.66 227 443.42 227 458.8 186.29"/><line class="cls-7" x1="379.93" y1="195.96" x2="373.17" y2="199.22"/><line class="cls-7" x1="455.17" y1="195.96" x2="461.93" y2="199.22"/></g></g><g id="Capa_2-3" data-name="Capa 2"><g id="Layer_1" data-name="Layer 1"><path class="cls-8" d="M582.13,175.77a2.88,2.88,0,0,1-2.1-.9l-2.3-2.3a19.16,19.16,0,0,0-27.1,27.1l27.1,27a6.67,6.67,0,0,0,4.2,1.8Z"/><path class="cls-9" d="M581.33,175.57a2.88,2.88,0,0,0,2.1-.9l2.3-2.3a19.14,19.14,0,0,1,27,27.1l-27.2,27.1a7.38,7.38,0,0,1-4.2,1.9Z"/><path class="cls-10" d="M610.23,189.57a13.82,13.82,0,0,0-5.2-10.2,12.15,12.15,0,0,0-9.9-2.4"/></g></g><g id="Capa_2-4" data-name="Capa 2" class="cls-11"><g id="Layer_1-2" data-name="Layer 1"><path class="cls-12" d="M178.7,549.4h50.9a7.47,7.47,0,0,1,7.5,7.4v32.9a7.49,7.49,0,0,1-7.5,7.5H178.7a7.41,7.41,0,0,1-7.4-7.5V556.8A7.26,7.26,0,0,1,178.7,549.4Z"/><line class="cls-10" x1="226.1" y1="562.7" x2="180.7" y2="562.7"/><line class="cls-13" x1="221.6" y1="586.3" x2="184.5" y2="586.3"/><line class="cls-14" x1="225" y1="569.3" x2="210.1" y2="569.3"/></g></g><g id="Capa_2-5" data-name="Capa 2" class="cls-11"><g id="Layer_1-3" data-name="Layer 1"><path class="cls-15" d="M165.9,747.53a2.26,2.26,0,0,1-2.3-2.3v-14.9a13.25,13.25,0,0,1,4.3-9.7l8-7.3a14.43,14.43,0,0,1,9.9-3.8h19.9a2.26,2.26,0,0,1,2.3,2.3v33.4a2.26,2.26,0,0,1-2.3,2.3Z"/><path class="cls-12" d="M205.6,745.23H165.9v-14.9a11.16,11.16,0,0,1,1.7-5.8h38Z"/><path class="cls-16" d="M191.6,726.13H177.1a.94.94,0,0,1-1.1-.8.88.88,0,0,1,.5-1l5-4a8.22,8.22,0,0,1,5.2-1.8H191"/><path class="cls-12" d="M178.3,754.93a8.6,8.6,0,1,1,8.6-8.7h0A8.69,8.69,0,0,1,178.3,754.93Z"/><path class="cls-15" d="M207.9,747.73c-10.5,0-13.3-.6-14.5-1.2a2.33,2.33,0,0,1-1.3-2.1v-37.5a9.13,9.13,0,0,1,9.1-9.1h34.5a9.13,9.13,0,0,1,9.1,9.1v31.4a9.13,9.13,0,0,1-9.1,9.1h-17c-.1.1-5.3.3-10.8.3Z"/><path class="cls-12" d="M242.4,724.53v13.9a6.81,6.81,0,0,1-6.8,6.8h-17s-20.8.8-24.2-.8v-19.9Z"/><path class="cls-10" d="M235.6,718.33v-7.7a3.8,3.8,0,0,0-3.8-3.8H218.1"/><path class="cls-12" d="M219.8,754.93a8.6,8.6,0,1,1,8.6-8.6h0A8.6,8.6,0,0,1,219.8,754.93Z"/></g></g><g id="Capa_2-6" data-name="Capa 2" class="cls-11"><g id="Layer_1-4" data-name="Layer 1"><path class="cls-12" d="M187.6,919.73a7.38,7.38,0,0,1-7.4-7.4v-50.9a7.38,7.38,0,0,1,7.4-7.4h23.5a2.36,2.36,0,0,1,1.6.7l14.6,14.6a2.36,2.36,0,0,1,.7,1.6v41.4a7.41,7.41,0,0,1-7.5,7.4Z"/><path class="cls-15" d="M212.8,853.53a5.66,5.66,0,0,0-1.8.3,4.57,4.57,0,0,0-2.8,4.2v5.7a9.65,9.65,0,0,0,9.7,9.7h5.7a4.65,4.65,0,0,0,4.6-4.6,4.82,4.82,0,0,0-1.3-3.2L216,854.83A4.63,4.63,0,0,0,212.8,853.53Z"/><line class="cls-10" x1="192.3" y1="878.63" x2="215.8" y2="878.63"/><line class="cls-10" x1="192.3" y1="887.33" x2="215.8" y2="887.33"/><line class="cls-10" x1="192.3" y1="895.93" x2="215.8" y2="895.93"/><line class="cls-10" x1="192.3" y1="904.63" x2="215.8" y2="904.63"/></g></g><g id="Capa_2-7" data-name="Capa 2" class="cls-11"><g id="Layer_1-5" data-name="Layer 1"><path class="cls-15" d="M293.85,197.76a4.22,4.22,0,0,1-6,.19l-2.57-2.08v20.24a9,9,0,0,1-9,9H235.74a9,9,0,0,1-9-9V195.88L224.14,198a4.31,4.31,0,0,1-6.09-6.09L253,163.14a4.42,4.42,0,0,1,6.09,0l34.81,28.72A4.39,4.39,0,0,1,293.85,197.76Z"/><path d="M255.71,161.9V225H233.64a6.81,6.81,0,0,1-6.84-6.85V196.17L224.14,198a4.31,4.31,0,0,1-6.09-6.09l8.56-7.06V166.37a4.26,4.26,0,0,1,4.28-4.28h2.47a4.26,4.26,0,0,1,4.28,4.28v9.33l15.22-12.56A4.13,4.13,0,0,1,255.71,161.9Z"/></g></g><g id="Capa_2-8" data-name="Capa 2" class="cls-11"><g id="Layer_1-6" data-name="Layer 1"><path class="cls-15" d="M205.05,398.08a9.29,9.29,0,0,1-6.7-2.8,9.52,9.52,0,0,1-2.8-6.8,9.29,9.29,0,0,1,2.8-6.7,9.6,9.6,0,0,1,13.5,0,9.47,9.47,0,0,1,2.8,6.7,9.7,9.7,0,0,1-2.8,6.8A9.52,9.52,0,0,1,205.05,398.08Z"/><path class="cls-12" d="M205.05,381.28a7.17,7.17,0,0,0-7.2,7.2,7.34,7.34,0,0,0,2.1,5.2,6.94,6.94,0,0,0,5.1,2.1Z"/><path class="cls-15" d="M205.15,439.58a16.07,16.07,0,0,1-11.9-4.9,16.3,16.3,0,0,1-4.9-12,16.07,16.07,0,0,1,4.9-11.9,16.9,16.9,0,0,1,23.9,0,16.07,16.07,0,0,1,4.9,11.9,16.46,16.46,0,0,1-4.9,12A16.69,16.69,0,0,1,205.15,439.58Z"/><path class="cls-12" d="M205.3,407.57a14.91,14.91,0,0,0-15.1,15.1,14.91,14.91,0,0,0,4.37,10.85A15.27,15.27,0,0,0,205.3,438Z"/><line class="cls-10" x1="206.95" y1="386.68" x2="205.35" y2="386.68"/><path class="cls-10" d="M208.75,413.78s7.9,5.7,2.9,15.7"/></g></g><circle class="cls-17" cx="582.63" cy="196.38" r="100.61"/><rect class="cls-18" x="822.17" y="625.74" width="9.9" height="9.9" transform="translate(-112.95 1075.85) rotate(-62.67)"/><rect class="cls-19" x="1.45" y="548.23" width="8.34" height="8.34" transform="translate(-487.68 303.74) rotate(-62.67)"/><rect class="cls-20" x="610.23" y="54.19" width="8.34" height="8.34" transform="translate(280.44 577.36) rotate(-62.67)"/></g></g></svg>