<svg xmlns="http://www.w3.org/2000/svg" xmlns:xlink="http://www.w3.org/1999/xlink" viewBox="0 0 785.42 1044"><defs><style>.cls-1{opacity:0.5;fill:url(#Degradado_sin_nombre_50);}.cls-2{fill:url(#Degradado_sin_nombre_26);}.cls-3,.cls-6{font-size:33.25px;}.cls-28,.cls-3,.cls-6{fill:#c4c4c4;}.cls-15,.cls-3,.cls-6{font-family:MyriadPro-Regular, Myriad Pro;}.cls-3{letter-spacing:0.01em;}.cls-4{letter-spacing:0em;}.cls-5{letter-spacing:0em;}.cls-7{letter-spacing:-0.03em;}.cls-8{letter-spacing:-0.01em;}.cls-9{letter-spacing:-0.01em;}.cls-10{letter-spacing:-0.01em;}.cls-11{letter-spacing:0.01em;}.cls-12{letter-spacing:-0.01em;}.cls-13{letter-spacing:0em;}.cls-14,.cls-29{fill:#dbdbdb;}.cls-15{font-size:43.74px;letter-spacing:0.06em;}.cls-16{fill:#db0029;}.cls-17,.cls-18,.cls-19,.cls-20,.cls-22,.cls-23{fill:none;}.cls-17,.cls-18,.cls-19,.cls-26,.cls-27{stroke:#fff;}.cls-17,.cls-18,.cls-19,.cls-23{stroke-linecap:round;}.cls-17,.cls-18,.cls-19,.cls-22,.cls-23{stroke-linejoin:round;}.cls-17{stroke-width:4.6px;}.cls-18{stroke-width:8px;}.cls-19,.cls-27{stroke-width:3px;}.cls-21,.cls-26,.cls-27{fill:#ad0003;}.cls-22,.cls-23,.cls-32{stroke:#000;}.cls-22,.cls-23{stroke-width:6px;}.cls-24{fill:#eb3648;}.cls-25{fill:#fff;}.cls-26,.cls-27,.cls-32{stroke-miterlimit:10;}.cls-26{stroke-width:2px;}.cls-29{opacity:0.6;}.cls-30{opacity:0.6;}.cls-31{opacity:0.7;}.cls-32{stroke-width:4px;}.cls-33{fill:url(#Degradado_sin_nombre_77);}.cls-34{fill:#eb445a;}.cls-35{fill:#2dd36f;}.cls-36{fill:#3dc2ff;}</style><linearGradient id="Degradado_sin_nombre_50" x1="403.17" y1="1044" x2="403.17" gradientUnits="userSpaceOnUse"><stop offset="0" stop-color="#fff" stop-opacity="0"/><stop offset="0.15" stop-color="#e8ebec" stop-opacity="0.5"/><stop offset="0.5" stop-color="#e8ebec" stop-opacity="0.5"/><stop offset="0.85" stop-color="#e8ebec" stop-opacity="0.5"/><stop offset="1" stop-color="#fff" stop-opacity="0"/></linearGradient><linearGradient id="Degradado_sin_nombre_26" x1="329.16" y1="1044" x2="329.16" gradientUnits="userSpaceOnUse"><stop offset="0" stop-color="#fff" stop-opacity="0"/><stop offset="0.15" stop-color="#fff"/><stop offset="0.5" stop-color="#fff"/><stop offset="0.85" stop-color="#fff"/><stop offset="1" stop-color="#fff" stop-opacity="0"/></linearGradient><radialGradient id="Degradado_sin_nombre_77" cx="113.96" cy="890.29" r="100.61" gradientUnits="userSpaceOnUse"><stop offset="0.19" stop-color="#ffc409" stop-opacity="0"/><stop offset="0.64" stop-color="#ffc409" stop-opacity="0"/><stop offset="0.68" stop-color="#ffc409" stop-opacity="0.02"/><stop offset="0.72" stop-color="#ffc409" stop-opacity="0.08"/><stop offset="0.77" stop-color="#ffc409" stop-opacity="0.19"/><stop offset="0.83" stop-color="#ffc409" stop-opacity="0.33"/><stop offset="0.88" stop-color="#ffc409" stop-opacity="0.52"/><stop offset="0.94" stop-color="#ffc409" stop-opacity="0.74"/><stop offset="1" stop-color="#ffc409"/></radialGradient></defs><g id="Capa_2" data-name="Capa 2"><g id="Capa_1-2" data-name="Capa 1"><rect class="cls-1" x="20.91" width="764.51" height="1044"/><rect class="cls-2" x="22.07" width="614.18" height="1044"/><text class="cls-3" transform="translate(193.3 418.06)">M<tspan class="cls-4" x="27.13" y="0">i cue</tspan><tspan class="cls-5" x="91.84" y="0">n</tspan><tspan class="cls-4" x="110.17" y="0">ta</tspan></text><text class="cls-6" transform="translate(193.3 584.32)"><tspan class="cls-7">P</tspan><tspan x="16.83" y="0">ago</tspan></text><text class="cls-6" transform="translate(193.3 736.73)">Di<tspan class="cls-8" x="29.93" y="0">r</tspan><tspan x="40.47" y="0">e</tspan><tspan class="cls-9" x="57.13" y="0">c</tspan><tspan x="71.83" y="0">ciones de e</tspan><tspan class="cls-10" x="227.22" y="0">n</tspan><tspan x="245.24" y="0">vío</tspan></text><text class="cls-6" transform="translate(193.3 889.15)"><tspan class="cls-11">H</tspan><tspan x="22.01" y="0">is</tspan><tspan class="cls-12" x="42.96" y="0">t</tspan><tspan x="53.77" y="0">o</tspan><tspan class="cls-13" x="72.03" y="0">r</tspan><tspan x="83.03" y="0">ial de pedidos</tspan></text><circle class="cls-14" cx="165.54" cy="197" r="57.83"/><circle class="cls-14" cx="327.2" cy="197" r="57.83"/><circle class="cls-14" cx="491.08" cy="197" r="57.83"/><text class="cls-15" transform="translate(314.67 206.52)">0</text><g id="Capa_2-2" data-name="Capa 2"><g id="Layer_1" data-name="Layer 1"><path class="cls-16" d="M88.34,549.4h50.9a7.47,7.47,0,0,1,7.5,7.4v32.9a7.49,7.49,0,0,1-7.5,7.5H88.34a7.41,7.41,0,0,1-7.4-7.5V556.8A7.26,7.26,0,0,1,88.34,549.4Z"/><line class="cls-17" x1="135.74" y1="562.7" x2="90.34" y2="562.7"/><line class="cls-18" x1="131.24" y1="586.3" x2="94.14" y2="586.3"/><line class="cls-19" x1="134.64" y1="569.3" x2="119.74" y2="569.3"/></g></g><g id="Capa_2-3" data-name="Capa 2"><g id="Layer_1-2" data-name="Layer 1"><path class="cls-16" d="M145.38,225.15a9,9,0,0,1-9-9V188a2,2,0,0,1,.85-1.71l27.4-21.49a2,2,0,0,1,2.66,0l26.82,21a2,2,0,0,1,.86,1.72v28.62a9,9,0,0,1-9,9Z"/><path class="cls-20" d="M165.93,166.47l26.82,21v28.62A6.82,6.82,0,0,1,185.9,223H145.38a6.81,6.81,0,0,1-6.84-6.85V188l27.39-21.49m0-4.38a4.57,4.57,0,0,0-2.67.95l-27.48,21.4a4.48,4.48,0,0,0-1.71,3.43V216a11.24,11.24,0,0,0,11.22,11.22H185.8A11.24,11.24,0,0,0,197,216V187.49a4.2,4.2,0,0,0-1.71-3.43l-26.63-21a4.12,4.12,0,0,0-2.76-.95Z"/><path class="cls-16" d="M203.49,191.86l-34.8-28.72a4.42,4.42,0,0,0-6.09,0l-34.91,28.72a4.31,4.31,0,0,0,6.09,6.09h0l31.86-25.78L197.5,198a4.22,4.22,0,0,0,6-.19,4.37,4.37,0,0,0,0-5.9Z"/><path class="cls-21" d="M138.44,190.91a2.15,2.15,0,0,1-2.19-2.19V166.37a4.27,4.27,0,0,1,4.28-4.28H143a4.27,4.27,0,0,1,4.28,4.28h0v22.26a2.16,2.16,0,0,1-2.19,2.19h0l-6.66.09Z"/><path class="cls-20" d="M143,164.37a2.12,2.12,0,0,1,2.09,2.1h0v22.25h-6.56V166.37a2.11,2.11,0,0,1,2.09-2.09h0l2.38.09m0-4.37h-2.48a6.47,6.47,0,0,0-6.46,6.47v22.25a4.42,4.42,0,0,0,4.37,4.38H145a4.43,4.43,0,0,0,4.38-4.38h0V166.37A6.32,6.32,0,0,0,143,160Z"/><path class="cls-21" d="M165.36,166.85,138.44,188v28.15a6.82,6.82,0,0,0,6.85,6.85h20.07Z"/><path class="cls-21" d="M165.36,161.9a4.14,4.14,0,0,0-2.86,1.24l-34.81,28.72a4.31,4.31,0,0,0,6.09,6.09h0l31.58-25.59Z"/></g></g><g id="Capa_2-4" data-name="Capa 2"><g id="Capa_1-2-2" data-name="Capa 1-2"><polyline class="cls-22" points="285.84 186.29 305.31 227 353.07 227 368.45 186.29"/><line class="cls-23" x1="289.58" y1="195.96" x2="282.82" y2="199.22"/><line class="cls-23" x1="364.82" y1="195.96" x2="371.58" y2="199.22"/></g></g><g id="Capa_2-5" data-name="Capa 2"><g id="Layer_1-3" data-name="Layer 1"><path class="cls-21" d="M491.78,175.77a2.88,2.88,0,0,1-2.1-.9l-2.3-2.3a19.16,19.16,0,0,0-27.1,27.1l27.1,27a6.67,6.67,0,0,0,4.2,1.8Z"/><path class="cls-16" d="M491,175.57a2.88,2.88,0,0,0,2.1-.9l2.3-2.3a19.14,19.14,0,0,1,27,27.1l-27.2,27.1a7.38,7.38,0,0,1-4.2,1.9Z"/><path class="cls-17" d="M519.88,189.57a13.82,13.82,0,0,0-5.2-10.2,12.15,12.15,0,0,0-9.9-2.4"/></g></g><g id="Capa_2-6" data-name="Capa 2"><g id="Layer_1-4" data-name="Layer 1"><path class="cls-24" d="M75.54,747.53a2.26,2.26,0,0,1-2.3-2.3v-14.9a13.25,13.25,0,0,1,4.3-9.7l8-7.3a14.43,14.43,0,0,1,9.9-3.8h19.9a2.26,2.26,0,0,1,2.3,2.3v33.4a2.26,2.26,0,0,1-2.3,2.3Z"/><path class="cls-21" d="M115.24,745.23H75.54v-14.9a11.16,11.16,0,0,1,1.7-5.8h38Z"/><path class="cls-25" d="M101.24,726.13H86.74a.94.94,0,0,1-1.1-.8.88.88,0,0,1,.5-1l5-4a8.22,8.22,0,0,1,5.2-1.8h4.3"/><path class="cls-26" d="M87.94,754.93a8.6,8.6,0,1,1,8.6-8.7h0A8.69,8.69,0,0,1,87.94,754.93Z"/><path class="cls-24" d="M117.54,747.73c-10.5,0-13.3-.6-14.5-1.2a2.33,2.33,0,0,1-1.3-2.1v-37.5a9.13,9.13,0,0,1,9.1-9.1h34.5a9.13,9.13,0,0,1,9.1,9.1v31.4a9.13,9.13,0,0,1-9.1,9.1h-17c-.1.1-5.3.3-10.8.3Z"/><path class="cls-21" d="M152,724.53v13.9a6.81,6.81,0,0,1-6.8,6.8h-17s-20.8.8-24.2-.8v-19.9Z"/><path class="cls-17" d="M145.24,718.33v-7.7a3.8,3.8,0,0,0-3.8-3.8h-13.7"/><path class="cls-26" d="M129.44,754.93a8.6,8.6,0,1,1,8.6-8.6h0A8.6,8.6,0,0,1,129.44,754.93Z"/></g></g><g id="Capa_2-7" data-name="Capa 2"><g id="Layer_1-5" data-name="Layer 1"><path class="cls-16" d="M97.24,919.73a7.38,7.38,0,0,1-7.4-7.4v-50.9a7.38,7.38,0,0,1,7.4-7.4h23.5a2.36,2.36,0,0,1,1.6.7l14.6,14.6a2.36,2.36,0,0,1,.7,1.6v41.4a7.41,7.41,0,0,1-7.5,7.4Z"/><path class="cls-27" d="M122.44,853.53a5.66,5.66,0,0,0-1.8.3,4.57,4.57,0,0,0-2.8,4.2v5.7a9.65,9.65,0,0,0,9.7,9.7h5.7a4.65,4.65,0,0,0,4.6-4.6,4.82,4.82,0,0,0-1.3-3.2l-10.9-10.8A4.63,4.63,0,0,0,122.44,853.53Z"/><line class="cls-17" x1="101.94" y1="878.63" x2="125.44" y2="878.63"/><line class="cls-17" x1="101.94" y1="887.33" x2="125.44" y2="887.33"/><line class="cls-17" x1="101.94" y1="895.93" x2="125.44" y2="895.93"/><line class="cls-17" x1="101.94" y1="904.63" x2="125.44" y2="904.63"/></g></g><g id="Capa_2-8" data-name="Capa 2"><g id="Layer_1-6" data-name="Layer 1"><path class="cls-16" d="M113.69,398.08a9.29,9.29,0,0,1-6.7-2.8,9.52,9.52,0,0,1-2.8-6.8,9.29,9.29,0,0,1,2.8-6.7,9.6,9.6,0,0,1,13.5,0,9.47,9.47,0,0,1,2.8,6.7,9.7,9.7,0,0,1-2.8,6.8A9.52,9.52,0,0,1,113.69,398.08Z"/><path class="cls-21" d="M113.69,381.28a7.17,7.17,0,0,0-7.2,7.2,7.34,7.34,0,0,0,2.1,5.2,6.94,6.94,0,0,0,5.1,2.1Z"/><path class="cls-16" d="M113.79,439.58a16.07,16.07,0,0,1-11.9-4.9,16.3,16.3,0,0,1-4.9-12,16.07,16.07,0,0,1,4.9-11.9,16.9,16.9,0,0,1,23.9,0,16.07,16.07,0,0,1,4.9,11.9,16.46,16.46,0,0,1-4.9,12A16.69,16.69,0,0,1,113.79,439.58Z"/><path class="cls-21" d="M113.79,409.88a12.64,12.64,0,0,0-12.8,12.8,12.68,12.68,0,0,0,3.7,9.2,13,13,0,0,0,9.1,3.8Z"/><line class="cls-17" x1="115.59" y1="386.68" x2="113.99" y2="386.68"/><path class="cls-17" d="M117.39,413.78s7.9,5.7,2.9,15.7"/></g></g><rect class="cls-1" x="20.91" width="764.51" height="1044"/><rect class="cls-2" x="22.07" width="614.18" height="1044"/><path class="cls-28" d="M214.72,408.21c-.17-3.12-.37-6.88-.34-9.67h-.1c-.76,2.62-1.69,5.42-2.82,8.51l-4,10.87h-2.19l-3.63-10.67c-1.06-3.16-2-6.05-2.59-8.71H199c-.06,2.79-.23,6.55-.43,9.91l-.6,9.61h-2.76l1.57-22.41h3.69l3.82,10.84c.93,2.75,1.7,5.21,2.26,7.54h.1c.56-2.26,1.36-4.72,2.36-7.54l4-10.84h3.69l1.4,22.41h-2.83Z"/><path class="cls-28" d="M226.12,397.44a1.81,1.81,0,0,1-3.62,0,1.78,1.78,0,0,1,1.83-1.83A1.74,1.74,0,0,1,226.12,397.44Zm-3.25,20.62V402h2.92v16.1Z"/><path class="cls-28" d="M249.17,417.46a10.78,10.78,0,0,1-4.62.93c-4.86,0-8-3.29-8-8.21s3.39-8.55,8.65-8.55a9.74,9.74,0,0,1,4,.83l-.66,2.26a6.8,6.8,0,0,0-3.39-.76c-3.69,0-5.69,2.72-5.69,6.08,0,3.73,2.39,6,5.59,6a8.25,8.25,0,0,0,3.59-.8Z"/><path class="cls-28" d="M266.06,413.67c0,1.66,0,3.12.13,4.39H263.6l-.17-2.63h-.06a6.05,6.05,0,0,1-5.32,3c-2.53,0-5.56-1.39-5.56-7.05V402h2.93v8.91c0,3.06.93,5.12,3.59,5.12a4.23,4.23,0,0,0,3.86-2.66,4.39,4.39,0,0,0,.26-1.49V402h2.93Z"/><path class="cls-28" d="M272.54,410.54c.07,4,2.6,5.59,5.52,5.59a10.69,10.69,0,0,0,4.46-.83l.5,2.09a13,13,0,0,1-5.35,1c-5,0-7.92-3.26-7.92-8.11s2.86-8.68,7.55-8.68c5.25,0,6.65,4.62,6.65,7.58a11.63,11.63,0,0,1-.1,1.36Zm8.58-2.09c0-1.87-.76-4.76-4.05-4.76-3,0-4.26,2.73-4.49,4.76Z"/><path class="cls-28" d="M287.58,406.32c0-1.66,0-3-.14-4.36H290l.16,2.66h.07a5.92,5.92,0,0,1,5.32-3c2.23,0,5.68,1.33,5.68,6.85v9.61h-2.92v-9.28c0-2.59-1-4.76-3.73-4.76a4.17,4.17,0,0,0-3.92,3,4.24,4.24,0,0,0-.2,1.36v9.68h-2.92Z"/><path class="cls-28" d="M309.42,397.34V402h4.19v2.23h-4.19v8.68c0,2,.57,3.12,2.2,3.12a6.44,6.44,0,0,0,1.69-.2l.14,2.2a7.28,7.28,0,0,1-2.6.4,4.06,4.06,0,0,1-3.16-1.23c-.83-.87-1.13-2.3-1.13-4.19v-8.78h-2.49V402h2.49v-3.85Z"/><path class="cls-28" d="M325.82,418.06l-.24-2h-.1a6,6,0,0,1-4.92,2.39,4.58,4.58,0,0,1-4.92-4.62c0-3.89,3.46-6,9.68-6v-.34c0-1.33-.37-3.72-3.66-3.72a7.93,7.93,0,0,0-4.19,1.2L316.8,403a10,10,0,0,1,5.29-1.43c4.92,0,6.12,3.36,6.12,6.58v6a23.75,23.75,0,0,0,.26,3.86Zm-.44-8.22c-3.19-.06-6.81.5-6.81,3.63a2.59,2.59,0,0,0,2.76,2.79,4,4,0,0,0,3.89-2.69,3,3,0,0,0,.16-.93Z"/><path class="cls-28" d="M195.83,562.18a33.94,33.94,0,0,1,5.55-.43c2.86,0,5,.66,6.29,1.86a6,6,0,0,1,2,4.69,6.57,6.57,0,0,1-1.73,4.78,9.28,9.28,0,0,1-6.85,2.47,10.38,10.38,0,0,1-2.33-.2v9h-2.89ZM198.72,573a10,10,0,0,0,2.4.23c3.49,0,5.62-1.7,5.62-4.79s-2.1-4.39-5.29-4.39a12.44,12.44,0,0,0-2.73.23Z"/><path class="cls-28" d="M221.47,584.32l-.23-2h-.1a6,6,0,0,1-4.93,2.4,4.59,4.59,0,0,1-4.92-4.62c0-3.89,3.46-6,9.68-6v-.33c0-1.33-.37-3.72-3.66-3.72a8,8,0,0,0-4.19,1.19l-.66-1.93a10,10,0,0,1,5.28-1.43c4.93,0,6.12,3.36,6.12,6.59v6a22.49,22.49,0,0,0,.27,3.85Zm-.43-8.21c-3.2-.07-6.82.5-6.82,3.63a2.59,2.59,0,0,0,2.76,2.79,4,4,0,0,0,3.89-2.7,3,3,0,0,0,.17-.93Z"/><path class="cls-28" d="M242.45,568.23c-.07,1.16-.13,2.46-.13,4.42V582c0,3.69-.73,6-2.3,7.34a8.49,8.49,0,0,1-5.85,1.93,10.3,10.3,0,0,1-5.35-1.33l.73-2.23a9,9,0,0,0,4.72,1.27c3,0,5.19-1.56,5.19-5.62v-1.8h-.07a5.75,5.75,0,0,1-5.12,2.7c-4,0-6.85-3.4-6.85-7.85,0-5.45,3.56-8.55,7.25-8.55a5.36,5.36,0,0,1,5,2.8h.07l.13-2.43Zm-3,6.35a4.26,4.26,0,0,0-.16-1.33,4.22,4.22,0,0,0-4.09-3.09c-2.79,0-4.79,2.36-4.79,6.08,0,3.16,1.6,5.79,4.75,5.79a4.28,4.28,0,0,0,4.06-3,5,5,0,0,0,.23-1.57Z"/><path class="cls-28" d="M261.74,576.14c0,6-4.13,8.55-8,8.55-4.35,0-7.71-3.19-7.71-8.28,0-5.39,3.52-8.55,8-8.55C258.61,567.86,261.74,571.22,261.74,576.14Zm-12.77.17c0,3.52,2,6.18,4.89,6.18s4.88-2.62,4.88-6.25c0-2.72-1.36-6.18-4.82-6.18S249,573.25,249,576.31Z"/><path class="cls-28" d="M195.83,714.62a42.32,42.32,0,0,1,6.15-.46c4.16,0,7.12,1,9.08,2.79s3.16,4.42,3.16,8a11.84,11.84,0,0,1-3.23,8.71c-2.09,2.09-5.55,3.22-9.91,3.22a48.3,48.3,0,0,1-5.25-.26Zm2.89,19.82a18.61,18.61,0,0,0,2.93.17c6.18,0,9.54-3.46,9.54-9.51,0-5.29-3-8.65-9.08-8.65a16.23,16.23,0,0,0-3.39.3Z"/><path class="cls-28" d="M221.14,716.12a1.82,1.82,0,0,1-3.63,0,1.79,1.79,0,0,1,1.83-1.83A1.74,1.74,0,0,1,221.14,716.12Zm-3.26,20.61V720.64h2.92v16.09Z"/><path class="cls-28" d="M225.66,725.66c0-1.89,0-3.52-.13-5h2.56l.1,3.16h.13a4.82,4.82,0,0,1,4.45-3.52,3.4,3.4,0,0,1,.83.09v2.76a4.65,4.65,0,0,0-1-.1c-2.06,0-3.53,1.57-3.93,3.76a9.1,9.1,0,0,0-.13,1.36v8.58h-2.89Z"/><path class="cls-28" d="M237.83,729.22c.07,4,2.59,5.59,5.52,5.59a10.45,10.45,0,0,0,4.45-.84l.5,2.1a13.1,13.1,0,0,1-5.35,1c-4.95,0-7.91-3.26-7.91-8.12s2.86-8.67,7.54-8.67c5.26,0,6.65,4.62,6.65,7.58a9.9,9.9,0,0,1-.1,1.36Zm8.58-2.1c0-1.86-.77-4.75-4.06-4.75-3,0-4.26,2.73-4.49,4.75Z"/><path class="cls-28" d="M264.33,736.13a10.71,10.71,0,0,1-4.62.94c-4.86,0-8-3.3-8-8.22s3.39-8.54,8.64-8.54a9.79,9.79,0,0,1,4.06.83l-.67,2.26a6.77,6.77,0,0,0-3.39-.76c-3.69,0-5.69,2.72-5.69,6.08,0,3.72,2.4,6,5.59,6a8.25,8.25,0,0,0,3.59-.8Z"/><path class="cls-28" d="M279,736.13a10.75,10.75,0,0,1-4.62.94c-4.86,0-8-3.3-8-8.22s3.4-8.54,8.65-8.54a9.7,9.7,0,0,1,4,.83l-.66,2.26a6.8,6.8,0,0,0-3.39-.76c-3.69,0-5.69,2.72-5.69,6.08,0,3.72,2.4,6,5.59,6a8.25,8.25,0,0,0,3.59-.8Z"/><path class="cls-28" d="M285.71,716.12a1.81,1.81,0,0,1-3.62,0,1.78,1.78,0,0,1,1.83-1.83A1.74,1.74,0,0,1,285.71,716.12Zm-3.25,20.61V720.64h2.92v16.09Z"/><path class="cls-28" d="M304.8,728.55c0,6-4.12,8.55-8,8.55-4.36,0-7.72-3.19-7.72-8.28,0-5.39,3.53-8.54,8-8.54C301.67,720.28,304.8,723.63,304.8,728.55Zm-12.77.17c0,3.52,2,6.18,4.89,6.18s4.89-2.62,4.89-6.25c0-2.72-1.37-6.18-4.82-6.18S292,725.66,292,728.72Z"/><path class="cls-28" d="M308.49,725c0-1.67,0-3-.13-4.36H311l.17,2.66h.06a5.92,5.92,0,0,1,5.33-3c2.22,0,5.68,1.33,5.68,6.84v9.61h-2.93v-9.27c0-2.6-1-4.76-3.72-4.76a4.16,4.16,0,0,0-3.92,3,4.08,4.08,0,0,0-.2,1.37v9.67h-2.93Z"/><path class="cls-28" d="M328.58,729.22c.06,4,2.59,5.59,5.52,5.59a10.49,10.49,0,0,0,4.45-.84l.5,2.1a13.1,13.1,0,0,1-5.35,1c-5,0-7.92-3.26-7.92-8.12s2.86-8.67,7.55-8.67c5.26,0,6.65,4.62,6.65,7.58a11.82,11.82,0,0,1-.1,1.36Zm8.58-2.1c0-1.86-.77-4.75-4.06-4.75-3,0-4.26,2.73-4.49,4.75Z"/><path class="cls-28" d="M343.21,733.74a7.6,7.6,0,0,0,3.86,1.16c2.12,0,3.12-1.06,3.12-2.39s-.83-2.16-3-3c-2.89-1-4.26-2.63-4.26-4.55,0-2.6,2.1-4.72,5.56-4.72a8.06,8.06,0,0,1,3.95,1l-.73,2.13a6.26,6.26,0,0,0-3.29-.93c-1.73,0-2.69,1-2.69,2.19s1,1.93,3.05,2.73c2.8,1.06,4.23,2.46,4.23,4.85,0,2.83-2.2,4.83-6,4.83a9.23,9.23,0,0,1-4.52-1.1Z"/><path class="cls-28" d="M377.72,713.13v19.45c0,1.43,0,3.06.14,4.15h-2.63l-.13-2.79H375a6,6,0,0,1-5.49,3.16c-3.89,0-6.88-3.29-6.88-8.18,0-5.35,3.29-8.64,7.22-8.64a5.36,5.36,0,0,1,4.85,2.46h.07v-9.61Zm-2.92,14.06a5.16,5.16,0,0,0-.14-1.23,4.29,4.29,0,0,0-4.22-3.39c-3,0-4.82,2.66-4.82,6.22,0,3.26,1.6,6,4.76,6a4.39,4.39,0,0,0,4.28-3.49,5.1,5.1,0,0,0,.14-1.27Z"/><path class="cls-28" d="M384.21,729.22c.07,4,2.59,5.59,5.52,5.59a10.45,10.45,0,0,0,4.45-.84l.5,2.1a13.1,13.1,0,0,1-5.35,1c-4.95,0-7.91-3.26-7.91-8.12s2.86-8.67,7.54-8.67c5.26,0,6.65,4.62,6.65,7.58a9.9,9.9,0,0,1-.1,1.36Zm8.58-2.1c0-1.86-.77-4.75-4.06-4.75-3,0-4.26,2.73-4.49,4.75Z"/><path class="cls-28" d="M407.92,729.22c.06,4,2.59,5.59,5.52,5.59a10.45,10.45,0,0,0,4.45-.84l.5,2.1a13.1,13.1,0,0,1-5.35,1c-5,0-7.91-3.26-7.91-8.12s2.85-8.67,7.54-8.67c5.26,0,6.65,4.62,6.65,7.58a9.9,9.9,0,0,1-.1,1.36Zm8.58-2.1c0-1.86-.77-4.75-4.06-4.75-3,0-4.26,2.73-4.49,4.75Z"/><path class="cls-28" d="M423,725c0-1.67,0-3-.13-4.36h2.59l.17,2.66h.06a5.92,5.92,0,0,1,5.32-3c2.23,0,5.69,1.33,5.69,6.84v9.61h-2.93v-9.27c0-2.6-1-4.76-3.72-4.76a4.17,4.17,0,0,0-3.93,3,4.36,4.36,0,0,0-.19,1.37v9.67H423Z"/><path class="cls-28" d="M442.1,720.64l3.16,9a42,42,0,0,1,1.3,4.13h.1c.36-1.33.83-2.66,1.36-4.13l3.13-9h3.06l-6.32,16.09h-2.8L439,720.64Z"/><path class="cls-28" d="M462.92,713.69l-4.06,4.76h-2.09l2.92-4.76Zm-5.95,23V720.64h2.92v16.09Z"/><path class="cls-28" d="M479.31,728.55c0,6-4.12,8.55-8,8.55-4.36,0-7.72-3.19-7.72-8.28,0-5.39,3.53-8.54,8-8.54C476.19,720.28,479.31,723.63,479.31,728.55Zm-12.77.17c0,3.52,2,6.18,4.89,6.18s4.89-2.62,4.89-6.25c0-2.72-1.36-6.18-4.82-6.18S466.54,725.66,466.54,728.72Z"/><path class="cls-28" d="M198.72,866.74v9.37h10.84v-9.37h2.93v22.41h-2.93V878.64H198.72v10.51h-2.89V866.74Z"/><path class="cls-28" d="M221,868.53a1.81,1.81,0,0,1-3.62,0,1.78,1.78,0,0,1,1.83-1.83A1.74,1.74,0,0,1,221,868.53Zm-3.26,20.62v-16.1h2.93v16.1Z"/><path class="cls-28" d="M225.13,886.15a7.59,7.59,0,0,0,3.85,1.17c2.13,0,3.13-1.07,3.13-2.4s-.83-2.16-3-3c-2.9-1-4.26-2.62-4.26-4.55,0-2.59,2.1-4.72,5.55-4.72a8,8,0,0,1,4,1l-.73,2.12a6.26,6.26,0,0,0-3.29-.93c-1.73,0-2.7,1-2.7,2.2s1,1.93,3.06,2.72c2.8,1.07,4.22,2.46,4.22,4.86,0,2.82-2.19,4.82-6,4.82a9.09,9.09,0,0,1-4.52-1.1Z"/><path class="cls-28" d="M242.22,868.43v4.62h4.19v2.23h-4.19V884c0,2,.56,3.12,2.19,3.12a6.62,6.62,0,0,0,1.7-.19l.13,2.19a7.18,7.18,0,0,1-2.59.4,4.06,4.06,0,0,1-3.16-1.23c-.83-.87-1.13-2.3-1.13-4.19v-8.78h-2.49v-2.23h2.49V869.2Z"/><path class="cls-28" d="M264.06,881c0,5.95-4.12,8.54-8,8.54-4.35,0-7.71-3.19-7.71-8.28,0-5.38,3.52-8.54,8-8.54C260.94,872.69,264.06,876.05,264.06,881Zm-12.76.16c0,3.53,2,6.19,4.88,6.19s4.89-2.63,4.89-6.25c0-2.73-1.36-6.19-4.82-6.19S251.3,878.07,251.3,881.13Z"/><path class="cls-28" d="M267.76,878.07c0-1.89,0-3.52-.14-5h2.56l.1,3.16h.14a4.82,4.82,0,0,1,4.45-3.52,3,3,0,0,1,.83.1v2.76a4.14,4.14,0,0,0-1-.1c-2.07,0-3.53,1.56-3.93,3.75a9.11,9.11,0,0,0-.13,1.37v8.58h-2.89Z"/><path class="cls-28" d="M282,868.53a1.81,1.81,0,0,1-3.62,0,1.78,1.78,0,0,1,1.83-1.83A1.74,1.74,0,0,1,282,868.53Zm-3.26,20.62v-16.1h2.93v16.1Z"/><path class="cls-28" d="M295.46,889.15l-.24-2h-.1a6,6,0,0,1-4.92,2.39,4.58,4.58,0,0,1-4.92-4.62c0-3.89,3.46-6,9.68-6v-.34c0-1.33-.37-3.72-3.66-3.72a7.93,7.93,0,0,0-4.19,1.2l-.66-1.93a9.91,9.91,0,0,1,5.28-1.43c4.92,0,6.12,3.36,6.12,6.58v6a22.61,22.61,0,0,0,.27,3.86Zm-.44-8.22c-3.19-.06-6.81.5-6.81,3.63a2.59,2.59,0,0,0,2.76,2.79,4,4,0,0,0,3.89-2.69,3,3,0,0,0,.16-.93Z"/><path class="cls-28" d="M302.57,865.54h2.93v23.61h-2.93Z"/><path class="cls-28" d="M331.37,865.54V885c0,1.43,0,3.06.13,4.16h-2.63l-.13-2.8h-.07a5.92,5.92,0,0,1-5.48,3.16c-3.89,0-6.88-3.29-6.88-8.18,0-5.35,3.29-8.64,7.21-8.64a5.39,5.39,0,0,1,4.86,2.46h.06v-9.61Zm-2.93,14.06a5.2,5.2,0,0,0-.13-1.23,4.3,4.3,0,0,0-4.22-3.39c-3,0-4.82,2.66-4.82,6.22,0,3.26,1.59,5.95,4.75,5.95a4.4,4.4,0,0,0,4.29-3.49,5.08,5.08,0,0,0,.13-1.26Z"/><path class="cls-28" d="M337.85,881.63c.07,4,2.6,5.59,5.52,5.59a10.69,10.69,0,0,0,4.46-.83l.5,2.09a13,13,0,0,1-5.36,1c-5,0-7.91-3.26-7.91-8.11s2.86-8.68,7.55-8.68c5.25,0,6.65,4.62,6.65,7.58a11.63,11.63,0,0,1-.1,1.36Zm8.58-2.09c0-1.86-.76-4.76-4.05-4.76-3,0-4.26,2.73-4.49,4.76Z"/><path class="cls-28" d="M359.93,878.31c0-2.06-.06-3.73-.13-5.26h2.63l.13,2.76h.07a6.32,6.32,0,0,1,5.72-3.12c3.89,0,6.81,3.29,6.81,8.18,0,5.78-3.52,8.64-7.31,8.64a5.67,5.67,0,0,1-5-2.52h-.06v8.74h-2.9Zm2.9,4.29a6.19,6.19,0,0,0,.13,1.19,4.51,4.51,0,0,0,4.39,3.43c3.09,0,4.89-2.53,4.89-6.22,0-3.22-1.7-6-4.79-6a4.65,4.65,0,0,0-4.42,3.62,4.78,4.78,0,0,0-.2,1.2Z"/><path class="cls-28" d="M380.48,881.63c.07,4,2.6,5.59,5.52,5.59a10.69,10.69,0,0,0,4.46-.83l.5,2.09a13,13,0,0,1-5.36,1c-5,0-7.91-3.26-7.91-8.11s2.86-8.68,7.55-8.68c5.25,0,6.65,4.62,6.65,7.58a11.63,11.63,0,0,1-.1,1.36Zm8.58-2.09c0-1.86-.76-4.76-4.05-4.76-3,0-4.26,2.73-4.49,4.76Z"/><path class="cls-28" d="M409.41,865.54V885c0,1.43,0,3.06.14,4.16h-2.63l-.13-2.8h-.07a6,6,0,0,1-5.49,3.16c-3.89,0-6.88-3.29-6.88-8.18,0-5.35,3.29-8.64,7.22-8.64a5.36,5.36,0,0,1,4.85,2.46h.07v-9.61Zm-2.92,14.06a5.22,5.22,0,0,0-.14-1.23,4.29,4.29,0,0,0-4.22-3.39c-3,0-4.82,2.66-4.82,6.22,0,3.26,1.6,5.95,4.75,5.95a4.39,4.39,0,0,0,4.29-3.49,5.07,5.07,0,0,0,.14-1.26Z"/><path class="cls-28" d="M417.53,868.53a1.82,1.82,0,0,1-3.63,0,1.79,1.79,0,0,1,1.83-1.83A1.74,1.74,0,0,1,417.53,868.53Zm-3.26,20.62v-16.1h2.93v16.1Z"/><path class="cls-28" d="M436,865.54V885c0,1.43,0,3.06.13,4.16h-2.62l-.14-2.8h-.06a6,6,0,0,1-5.49,3.16c-3.89,0-6.88-3.29-6.88-8.18,0-5.35,3.29-8.64,7.21-8.64a5.39,5.39,0,0,1,4.86,2.46H433v-9.61ZM433,879.6a5.2,5.2,0,0,0-.13-1.23,4.3,4.3,0,0,0-4.22-3.39c-3,0-4.82,2.66-4.82,6.22,0,3.26,1.59,5.95,4.75,5.95a4.4,4.4,0,0,0,4.29-3.49,5.08,5.08,0,0,0,.13-1.26Z"/><path class="cls-28" d="M455.37,881c0,5.95-4.12,8.54-8,8.54-4.36,0-7.72-3.19-7.72-8.28,0-5.38,3.53-8.54,8-8.54C452.24,872.69,455.37,876.05,455.37,881Zm-12.77.16c0,3.53,2,6.19,4.89,6.19s4.89-2.63,4.89-6.25c0-2.73-1.37-6.19-4.83-6.19S442.6,878.07,442.6,881.13Z"/><path class="cls-28" d="M458.66,886.15a7.66,7.66,0,0,0,3.86,1.17c2.13,0,3.12-1.07,3.12-2.4s-.83-2.16-3-3c-2.89-1-4.25-2.62-4.25-4.55,0-2.59,2.09-4.72,5.55-4.72a8,8,0,0,1,4,1l-.74,2.12a6.23,6.23,0,0,0-3.29-.93c-1.73,0-2.69,1-2.69,2.2s1,1.93,3.06,2.72c2.79,1.07,4.22,2.46,4.22,4.86,0,2.82-2.19,4.82-6,4.82a9.12,9.12,0,0,1-4.52-1.1Z"/><circle class="cls-29" cx="165.54" cy="197" r="57.83"/><circle class="cls-29" cx="327.2" cy="197" r="57.83"/><circle class="cls-29" cx="491.08" cy="197" r="57.83"/><g class="cls-30"><path d="M335.53,192c0,9.67-3.58,15-9.88,15-5.56,0-9.32-5.21-9.41-14.62s4.11-14.78,9.89-14.78C332.12,177.6,335.53,182.94,335.53,192Zm-15.44.44c0,7.39,2.28,11.59,5.78,11.59,3.93,0,5.81-4.59,5.81-11.85,0-7-1.79-11.6-5.77-11.6C322.54,180.57,320.09,184.69,320.09,192.43Z"/></g><g id="Capa_2-9" data-name="Capa 2" class="cls-30"><g id="Capa_1-2-3" data-name="Capa 1-2"><polyline class="cls-22" points="285.84 186.29 305.31 227 353.07 227 368.45 186.29"/><line class="cls-23" x1="289.58" y1="195.96" x2="282.82" y2="199.22"/><line class="cls-23" x1="364.82" y1="195.96" x2="371.58" y2="199.22"/></g></g><g id="Capa_2-10" data-name="Capa 2"><g id="Layer_1-7" data-name="Layer 1"><path class="cls-16" d="M97.24,919.73a7.38,7.38,0,0,1-7.4-7.4v-50.9a7.38,7.38,0,0,1,7.4-7.4h23.5a2.36,2.36,0,0,1,1.6.7l14.6,14.6a2.36,2.36,0,0,1,.7,1.6v41.4a7.41,7.41,0,0,1-7.5,7.4Z"/><path class="cls-27" d="M122.44,853.53a5.66,5.66,0,0,0-1.8.3,4.57,4.57,0,0,0-2.8,4.2v5.7a9.65,9.65,0,0,0,9.7,9.7h5.7a4.65,4.65,0,0,0,4.6-4.6,4.82,4.82,0,0,0-1.3-3.2l-10.9-10.8A4.63,4.63,0,0,0,122.44,853.53Z"/><line class="cls-17" x1="101.94" y1="878.63" x2="125.44" y2="878.63"/><line class="cls-17" x1="101.94" y1="887.33" x2="125.44" y2="887.33"/><line class="cls-17" x1="101.94" y1="895.93" x2="125.44" y2="895.93"/><line class="cls-17" x1="101.94" y1="904.63" x2="125.44" y2="904.63"/></g></g><g id="Capa_2-11" data-name="Capa 2" class="cls-31"><g id="Layer_1-8" data-name="Layer 1"><path class="cls-32" d="M88.05,549H139a7.47,7.47,0,0,1,7.5,7.4v32.9a7.49,7.49,0,0,1-7.5,7.5H88.05a7.41,7.41,0,0,1-7.4-7.5v-32.9A7.26,7.26,0,0,1,88.05,549Z"/><line class="cls-17" x1="135.45" y1="562.33" x2="90.05" y2="562.33"/><line class="cls-18" x1="130.95" y1="585.93" x2="93.85" y2="585.93"/><line class="cls-19" x1="134.35" y1="568.93" x2="119.45" y2="568.93"/></g></g><g id="Capa_2-12" data-name="Capa 2" class="cls-31"><g id="Layer_1-9" data-name="Layer 1"><path class="cls-14" d="M75.25,747.17a2.26,2.26,0,0,1-2.3-2.3V730a13.25,13.25,0,0,1,4.3-9.7l8-7.3a14.43,14.43,0,0,1,9.9-3.8h19.9a2.26,2.26,0,0,1,2.3,2.3v33.4a2.26,2.26,0,0,1-2.3,2.3Z"/><path class="cls-32" d="M115,744.87H75.25V730a11.16,11.16,0,0,1,1.7-5.8h38Z"/><path class="cls-25" d="M101,725.77H86.45a.94.94,0,0,1-1.1-.8.88.88,0,0,1,.5-1l5-4a8.22,8.22,0,0,1,5.2-1.8h4.3"/><path class="cls-32" d="M87.65,754.57a8.6,8.6,0,1,1,8.6-8.7h0A8.69,8.69,0,0,1,87.65,754.57Z"/><path class="cls-14" d="M117.25,747.37c-10.5,0-13.3-.6-14.5-1.2a2.33,2.33,0,0,1-1.3-2.1v-37.5a9.13,9.13,0,0,1,9.1-9.1h34.5a9.13,9.13,0,0,1,9.1,9.1V738a9.13,9.13,0,0,1-9.1,9.1h-17c-.1.1-5.3.3-10.8.3Z"/><path class="cls-32" d="M151.75,724.17v13.9a6.81,6.81,0,0,1-6.8,6.8H128s-20.8.8-24.2-.8v-19.9Z"/><path class="cls-17" d="M145,718v-7.7a3.8,3.8,0,0,0-3.8-3.8h-13.7"/><path class="cls-32" d="M129.15,754.57a8.6,8.6,0,1,1,8.6-8.6h0A8.6,8.6,0,0,1,129.15,754.57Z"/></g></g><g id="Capa_2-13" data-name="Capa 2" class="cls-31"><g id="Layer_1-10" data-name="Layer 1"><path class="cls-14" d="M203.2,197.4a4.22,4.22,0,0,1-6,.19l-2.57-2.08v20.24a9,9,0,0,1-9,9H145.09a9,9,0,0,1-9-9V195.52l-2.56,2.07a4.31,4.31,0,1,1-6.09-6.09l34.9-28.72a4.42,4.42,0,0,1,6.09,0L203.2,191.5A4.39,4.39,0,0,1,203.2,197.4Z"/><path d="M165.06,161.54V224.6H143a6.81,6.81,0,0,1-6.84-6.85V195.81l-2.66,1.78a4.31,4.31,0,1,1-6.09-6.09l8.56-7.06V166a4.26,4.26,0,0,1,4.28-4.28h2.47A4.26,4.26,0,0,1,147,166v9.33l15.22-12.56A4.13,4.13,0,0,1,165.06,161.54Z"/></g></g><g id="Capa_2-14" data-name="Capa 2" class="cls-31"><g id="Layer_1-11" data-name="Layer 1"><path d="M491.48,175.41a2.88,2.88,0,0,1-2.1-.9l-2.3-2.3a19.16,19.16,0,1,0-27.1,27.1l27.1,27a6.67,6.67,0,0,0,4.2,1.8Z"/><path class="cls-14" d="M490.68,175.21a2.88,2.88,0,0,0,2.1-.9l2.3-2.3a19.14,19.14,0,0,1,27,27.1l-27.2,27.1a7.38,7.38,0,0,1-4.2,1.9Z"/><path class="cls-17" d="M519.58,189.21a13.82,13.82,0,0,0-5.2-10.2,12.15,12.15,0,0,0-9.9-2.4"/></g></g><g id="Capa_2-15" data-name="Capa 2" class="cls-31"><g id="Layer_1-12" data-name="Layer 1"><path class="cls-14" d="M114.4,397.72a9.29,9.29,0,0,1-6.7-2.8,9.52,9.52,0,0,1-2.8-6.8,9.29,9.29,0,0,1,2.8-6.7,9.6,9.6,0,0,1,13.5,0,9.47,9.47,0,0,1,2.8,6.7,9.7,9.7,0,0,1-2.8,6.8A9.52,9.52,0,0,1,114.4,397.72Z"/><path class="cls-32" d="M114.4,380.92a7.17,7.17,0,0,0-7.2,7.2,7.34,7.34,0,0,0,2.1,5.2,6.94,6.94,0,0,0,5.1,2.1Z"/><path class="cls-14" d="M114.5,439.22a16.07,16.07,0,0,1-11.9-4.9,16.3,16.3,0,0,1-4.9-12,16.07,16.07,0,0,1,4.9-11.9,16.9,16.9,0,0,1,23.9,0,16.07,16.07,0,0,1,4.9,11.9,16.46,16.46,0,0,1-4.9,12A16.69,16.69,0,0,1,114.5,439.22Z"/><path class="cls-32" d="M114.65,407.21a14.89,14.89,0,0,0-15.1,15.1,14.94,14.94,0,0,0,4.36,10.85,15.31,15.31,0,0,0,10.74,4.48Z"/><line class="cls-17" x1="116.3" y1="386.32" x2="114.7" y2="386.32"/><path class="cls-17" d="M118.1,413.42s7.9,5.7,2.9,15.7"/></g></g><circle class="cls-33" cx="113.96" cy="890.29" r="100.61"/><rect class="cls-34" x="610.84" y="179" width="9.9" height="9.9" transform="translate(921.15 749.45) rotate(-135)"/><rect class="cls-35" x="287.73" y="938.78" width="8.34" height="8.34" transform="translate(-168.47 1816.11) rotate(-135)"/><rect class="cls-36" x="1.73" y="208.78" width="8.34" height="8.34" transform="translate(-140.51 367.69) rotate(-135)"/></g></g></svg>