<svg xmlns="http://www.w3.org/2000/svg" xmlns:xlink="http://www.w3.org/1999/xlink" viewBox="0 0 839.59 1044"><defs><style>.cls-1,.cls-4{opacity:0.5;}.cls-1{fill:url(#Degradado_sin_nombre_50);}.cls-2{fill:url(#Degradado_sin_nombre_26);}.cls-3{fill:#c4c4c4;}.cls-11,.cls-4{fill:#dbdbdb;}.cls-5{opacity:0.6;}.cls-6{fill:#db0029;}.cls-10,.cls-12,.cls-14,.cls-15,.cls-7,.cls-9{fill:none;}.cls-8{fill:#ad0003;}.cls-10,.cls-13,.cls-9{stroke:#000;}.cls-10,.cls-12,.cls-14,.cls-15,.cls-9{stroke-linejoin:round;}.cls-10,.cls-9{stroke-width:6px;}.cls-10,.cls-12,.cls-14,.cls-15{stroke-linecap:round;}.cls-12,.cls-14,.cls-15{stroke:#fff;}.cls-12{stroke-width:4.6px;}.cls-13{stroke-miterlimit:10;stroke-width:4px;}.cls-14{stroke-width:8px;}.cls-15{stroke-width:3px;}.cls-16{fill:#fff;}.cls-17{fill:url(#Degradado_sin_nombre_77);}.cls-18{fill:#eb445a;}.cls-19{fill:#2dd36f;}.cls-20{fill:#3dc2ff;}</style><linearGradient id="Degradado_sin_nombre_50" x1="457.33" y1="1044" x2="457.33" gradientUnits="userSpaceOnUse"><stop offset="0" stop-color="#fff" stop-opacity="0"/><stop offset="0.15" stop-color="#e8ebec" stop-opacity="0.5"/><stop offset="0.5" stop-color="#e8ebec" stop-opacity="0.5"/><stop offset="0.85" stop-color="#e8ebec" stop-opacity="0.5"/><stop offset="1" stop-color="#fff" stop-opacity="0"/></linearGradient><linearGradient id="Degradado_sin_nombre_26" x1="383.33" y1="1044" x2="383.33" gradientUnits="userSpaceOnUse"><stop offset="0" stop-color="#fff" stop-opacity="0"/><stop offset="0.15" stop-color="#fff"/><stop offset="0.5" stop-color="#fff"/><stop offset="0.85" stop-color="#fff"/><stop offset="1" stop-color="#fff" stop-opacity="0"/></linearGradient><radialGradient id="Degradado_sin_nombre_77" cx="220.85" cy="194.71" r="100.61" gradientUnits="userSpaceOnUse"><stop offset="0.19" stop-color="#ffc409" stop-opacity="0"/><stop offset="0.64" stop-color="#ffc409" stop-opacity="0"/><stop offset="0.68" stop-color="#ffc409" stop-opacity="0.02"/><stop offset="0.72" stop-color="#ffc409" stop-opacity="0.08"/><stop offset="0.77" stop-color="#ffc409" stop-opacity="0.19"/><stop offset="0.83" stop-color="#ffc409" stop-opacity="0.33"/><stop offset="0.88" stop-color="#ffc409" stop-opacity="0.52"/><stop offset="0.94" stop-color="#ffc409" stop-opacity="0.74"/><stop offset="1" stop-color="#ffc409"/></radialGradient></defs><g id="Capa_2" data-name="Capa 2"><g id="Capa_1-2" data-name="Capa 1"><rect class="cls-1" x="75.08" width="764.51" height="1044"/><rect class="cls-2" x="76.24" width="614.18" height="1044"/><path class="cls-3" d="M268.88,408.21c-.16-3.12-.36-6.88-.33-9.67h-.1c-.76,2.63-1.69,5.42-2.82,8.51l-4,10.87h-2.2l-3.62-10.67c-1.06-3.16-2-6.05-2.59-8.71h-.07c-.07,2.79-.23,6.55-.43,9.91l-.6,9.61H249.4L251,395.65h3.69l3.83,10.84c.93,2.75,1.69,5.22,2.26,7.54h.1c.56-2.26,1.36-4.72,2.36-7.54l4-10.84h3.69l1.39,22.41h-2.82Z"/><path class="cls-3" d="M280.29,397.44a1.81,1.81,0,0,1-3.62,0,1.78,1.78,0,0,1,1.83-1.83A1.74,1.74,0,0,1,280.29,397.44ZM277,418.06V402H280v16.1Z"/><path class="cls-3" d="M303.33,417.46a10.74,10.74,0,0,1-4.62.93c-4.85,0-8-3.29-8-8.21s3.39-8.55,8.64-8.55a9.79,9.79,0,0,1,4.06.83l-.66,2.26a6.81,6.81,0,0,0-3.4-.76c-3.69,0-5.68,2.72-5.68,6.08,0,3.73,2.39,6,5.58,6a8.3,8.3,0,0,0,3.6-.8Z"/><path class="cls-3" d="M320.23,413.67c0,1.66,0,3.12.13,4.39h-2.59l-.17-2.63h-.07a6,6,0,0,1-5.32,3c-2.52,0-5.55-1.39-5.55-7.05V402h2.93v8.91c0,3.06.93,5.12,3.59,5.12a4.21,4.21,0,0,0,3.85-2.66,4.16,4.16,0,0,0,.27-1.49V402h2.93Z"/><path class="cls-3" d="M326.71,410.54c.07,4,2.6,5.59,5.52,5.59a10.69,10.69,0,0,0,4.46-.83l.5,2.09a13,13,0,0,1-5.36,1c-4.95,0-7.91-3.26-7.91-8.11s2.86-8.68,7.55-8.68c5.25,0,6.65,4.62,6.65,7.58a11.63,11.63,0,0,1-.1,1.36Zm8.58-2.09c0-1.86-.76-4.76-4.06-4.76-3,0-4.25,2.73-4.48,4.76Z"/><path class="cls-3" d="M341.74,406.32c0-1.66,0-3-.13-4.36h2.59l.17,2.66h.07a5.9,5.9,0,0,1,5.32-3c2.22,0,5.68,1.33,5.68,6.85v9.61h-2.92v-9.28c0-2.59-1-4.76-3.73-4.76a4.16,4.16,0,0,0-3.92,3,4,4,0,0,0-.2,1.36v9.68h-2.93Z"/><path class="cls-3" d="M363.59,397.34V402h4.19v2.23h-4.19v8.68c0,2,.56,3.12,2.19,3.12a7.1,7.1,0,0,0,1.7-.19l.13,2.19a7.18,7.18,0,0,1-2.59.4,4.06,4.06,0,0,1-3.16-1.23c-.83-.87-1.13-2.3-1.13-4.19v-8.78h-2.49V402h2.49v-3.85Z"/><path class="cls-3" d="M380,418.06l-.23-2h-.1a6,6,0,0,1-4.92,2.39,4.58,4.58,0,0,1-4.92-4.62c0-3.89,3.46-6,9.67-6v-.34c0-1.33-.36-3.72-3.65-3.72a7.93,7.93,0,0,0-4.19,1.2L371,403a10,10,0,0,1,5.29-1.43c4.92,0,6.12,3.36,6.12,6.58v6a22.68,22.68,0,0,0,.26,3.86Zm-.43-8.22c-3.19-.06-6.82.5-6.82,3.63a2.59,2.59,0,0,0,2.76,2.79,4,4,0,0,0,3.89-2.69,3,3,0,0,0,.17-.93Z"/><path class="cls-3" d="M250,562.18a33.74,33.74,0,0,1,5.55-.43c2.86,0,4.95.66,6.28,1.86a6,6,0,0,1,2,4.69,6.61,6.61,0,0,1-1.73,4.79,9.33,9.33,0,0,1-6.85,2.46,10.32,10.32,0,0,1-2.33-.2v9H250ZM252.89,573a10,10,0,0,0,2.39.23c3.5,0,5.62-1.7,5.62-4.79s-2.09-4.39-5.28-4.39a12.37,12.37,0,0,0-2.73.23Z"/><path class="cls-3" d="M275.64,584.32l-.24-2h-.1a6,6,0,0,1-4.92,2.39,4.58,4.58,0,0,1-4.92-4.62c0-3.89,3.46-6,9.68-6v-.33c0-1.33-.37-3.72-3.66-3.72a8,8,0,0,0-4.19,1.19l-.66-1.92a9.91,9.91,0,0,1,5.28-1.43c4.92,0,6.12,3.35,6.12,6.58v6a22.49,22.49,0,0,0,.27,3.85Zm-.44-8.21c-3.19-.07-6.81.5-6.81,3.63a2.59,2.59,0,0,0,2.76,2.79,4,4,0,0,0,3.89-2.7,3,3,0,0,0,.16-.93Z"/><path class="cls-3" d="M296.62,568.23c-.07,1.16-.14,2.46-.14,4.42V582c0,3.69-.73,6-2.29,7.34a8.49,8.49,0,0,1-5.85,1.93,10.3,10.3,0,0,1-5.35-1.33l.73-2.22a9.09,9.09,0,0,0,4.72,1.26c3,0,5.19-1.56,5.19-5.62v-1.8h-.07a5.75,5.75,0,0,1-5.12,2.7c-4,0-6.85-3.39-6.85-7.85,0-5.45,3.56-8.54,7.25-8.54a5.36,5.36,0,0,1,5,2.79h.06l.14-2.43Zm-3,6.35a4.26,4.26,0,0,0-4.25-4.42c-2.8,0-4.79,2.36-4.79,6.08,0,3.16,1.59,5.79,4.75,5.79a4.28,4.28,0,0,0,4.06-3,5,5,0,0,0,.23-1.57Z"/><path class="cls-3" d="M315.9,576.14c0,6-4.12,8.55-8,8.55-4.35,0-7.71-3.19-7.71-8.28,0-5.39,3.52-8.54,8-8.54C312.78,567.87,315.9,571.22,315.9,576.14Zm-12.76.17c0,3.52,2,6.18,4.88,6.18s4.89-2.62,4.89-6.25c0-2.72-1.36-6.18-4.82-6.18S303.14,573.25,303.14,576.31Z"/><path class="cls-3" d="M250,714.62a42.32,42.32,0,0,1,6.15-.46c4.16,0,7.11,1,9.08,2.79s3.15,4.42,3.15,8a11.87,11.87,0,0,1-3.22,8.71c-2.09,2.09-5.55,3.22-9.91,3.22a48.3,48.3,0,0,1-5.25-.26Zm2.89,19.82a18.61,18.61,0,0,0,2.93.17c6.18,0,9.54-3.46,9.54-9.51,0-5.29-3-8.65-9.08-8.65a16.23,16.23,0,0,0-3.39.3Z"/><path class="cls-3" d="M275.3,716.12a1.71,1.71,0,0,1-1.86,1.79,1.73,1.73,0,0,1-1.76-1.79,1.78,1.78,0,0,1,1.83-1.83A1.73,1.73,0,0,1,275.3,716.12ZM272,736.73V720.64H275v16.09Z"/><path class="cls-3" d="M279.83,725.66c0-1.89,0-3.52-.14-5h2.56l.1,3.16h.14a4.82,4.82,0,0,1,4.45-3.52,3,3,0,0,1,.83.1v2.75a4.82,4.82,0,0,0-1-.1c-2.06,0-3.52,1.57-3.92,3.76a9.11,9.11,0,0,0-.13,1.37v8.57h-2.89Z"/><path class="cls-3" d="M292,729.22c.06,4,2.59,5.59,5.52,5.59A10.49,10.49,0,0,0,302,734l.5,2.1a13.1,13.1,0,0,1-5.35,1c-5,0-7.92-3.26-7.92-8.12s2.86-8.67,7.55-8.67c5.25,0,6.65,4.62,6.65,7.58a11.82,11.82,0,0,1-.1,1.36Zm8.57-2.1c0-1.86-.76-4.75-4.05-4.75-3,0-4.26,2.73-4.49,4.75Z"/><path class="cls-3" d="M318.5,736.13a10.75,10.75,0,0,1-4.62.94c-4.86,0-8-3.3-8-8.22s3.39-8.54,8.65-8.54a9.7,9.7,0,0,1,4.05.83l-.66,2.26a6.8,6.8,0,0,0-3.39-.76c-3.69,0-5.69,2.72-5.69,6.08,0,3.72,2.4,6,5.59,6a8.25,8.25,0,0,0,3.59-.8Z"/><path class="cls-3" d="M333.2,736.13a10.77,10.77,0,0,1-4.63.94c-4.85,0-8-3.3-8-8.22s3.39-8.54,8.65-8.54a9.74,9.74,0,0,1,4.05.83l-.66,2.26a6.8,6.8,0,0,0-3.39-.76c-3.69,0-5.69,2.72-5.69,6.08,0,3.72,2.39,6,5.59,6a8.25,8.25,0,0,0,3.59-.8Z"/><path class="cls-3" d="M339.88,716.12a1.81,1.81,0,0,1-3.62,0,1.78,1.78,0,0,1,1.83-1.83A1.74,1.74,0,0,1,339.88,716.12Zm-3.26,20.61V720.64h2.93v16.09Z"/><path class="cls-3" d="M359,728.55c0,6-4.13,8.55-8,8.55-4.35,0-7.71-3.19-7.71-8.28,0-5.39,3.52-8.54,8-8.54C355.84,720.28,359,723.63,359,728.55Zm-12.77.17c0,3.52,2,6.18,4.89,6.18s4.88-2.62,4.88-6.25c0-2.72-1.36-6.18-4.82-6.18S346.2,725.66,346.2,728.72Z"/><path class="cls-3" d="M362.66,725c0-1.67,0-3-.13-4.36h2.59l.17,2.66h.06a5.92,5.92,0,0,1,5.32-3c2.23,0,5.69,1.33,5.69,6.84v9.61h-2.93v-9.27c0-2.6-1-4.76-3.72-4.76a4.17,4.17,0,0,0-3.93,3,4.36,4.36,0,0,0-.19,1.37v9.67h-2.93Z"/><path class="cls-3" d="M382.74,729.22c.07,4,2.6,5.59,5.52,5.59a10.51,10.51,0,0,0,4.46-.84l.5,2.1a13.16,13.16,0,0,1-5.36,1c-4.95,0-7.91-3.26-7.91-8.12s2.86-8.67,7.55-8.67c5.25,0,6.65,4.62,6.65,7.58a11.82,11.82,0,0,1-.1,1.36Zm8.58-2.1c0-1.86-.76-4.75-4.05-4.75-3,0-4.26,2.73-4.49,4.75Z"/><path class="cls-3" d="M397.38,733.74a7.59,7.59,0,0,0,3.85,1.16c2.13,0,3.13-1.06,3.13-2.39s-.83-2.16-3-3c-2.9-1-4.26-2.63-4.26-4.55,0-2.6,2.09-4.72,5.55-4.72a8.08,8.08,0,0,1,4,1l-.73,2.13a6.26,6.26,0,0,0-3.29-.93c-1.73,0-2.7,1-2.7,2.19s1,1.93,3.06,2.73c2.79,1.06,4.22,2.46,4.22,4.85,0,2.83-2.19,4.83-6,4.83a9.24,9.24,0,0,1-4.53-1.1Z"/><path class="cls-3" d="M431.89,713.13v19.45c0,1.43,0,3.06.13,4.15H429.4l-.14-2.79h-.06a6,6,0,0,1-5.49,3.16c-3.89,0-6.88-3.29-6.88-8.18,0-5.35,3.29-8.64,7.21-8.64a5.38,5.38,0,0,1,4.86,2.46H429v-9.61ZM429,727.19a5.2,5.2,0,0,0-.13-1.23,4.3,4.3,0,0,0-4.22-3.39c-3,0-4.82,2.66-4.82,6.22,0,3.26,1.59,6,4.75,6a4.4,4.4,0,0,0,4.29-3.49A5.11,5.11,0,0,0,429,730Z"/><path class="cls-3" d="M438.38,729.22c.06,4,2.59,5.59,5.52,5.59a10.49,10.49,0,0,0,4.45-.84l.5,2.1a13.1,13.1,0,0,1-5.35,1c-5,0-7.92-3.26-7.92-8.12s2.86-8.67,7.55-8.67c5.25,0,6.65,4.62,6.65,7.58a11.82,11.82,0,0,1-.1,1.36Zm8.57-2.1c0-1.86-.76-4.75-4.05-4.75-3,0-4.26,2.73-4.49,4.75Z"/><path class="cls-3" d="M462.09,729.22c.06,4,2.59,5.59,5.52,5.59a10.49,10.49,0,0,0,4.45-.84l.5,2.1a13.1,13.1,0,0,1-5.35,1c-5,0-7.92-3.26-7.92-8.12s2.86-8.67,7.55-8.67c5.25,0,6.65,4.62,6.65,7.58a11.82,11.82,0,0,1-.1,1.36Zm8.57-2.1c0-1.86-.76-4.75-4.05-4.75-3,0-4.26,2.73-4.49,4.75Z"/><path class="cls-3" d="M477.12,725c0-1.67,0-3-.14-4.36h2.6l.16,2.66h.07a5.92,5.92,0,0,1,5.32-3c2.23,0,5.69,1.33,5.69,6.84v9.61h-2.93v-9.27c0-2.6-1-4.76-3.73-4.76a4.17,4.17,0,0,0-3.92,3,4.35,4.35,0,0,0-.2,1.37v9.67h-2.92Z"/><path class="cls-3" d="M496.27,720.64l3.16,9c.53,1.47,1,2.8,1.3,4.13h.09c.37-1.33.84-2.66,1.37-4.13l3.12-9h3.06l-6.31,16.09h-2.8l-6.11-16.09Z"/><path class="cls-3" d="M517.09,713.69,513,718.45h-2.1l2.93-4.76Zm-6,23V720.64h2.93v16.09Z"/><path class="cls-3" d="M533.48,728.55c0,6-4.12,8.55-8,8.55-4.36,0-7.72-3.19-7.72-8.28,0-5.39,3.53-8.54,8-8.54C530.35,720.28,533.48,723.63,533.48,728.55Zm-12.77.17c0,3.52,2,6.18,4.89,6.18s4.89-2.62,4.89-6.25c0-2.72-1.37-6.18-4.83-6.18S520.71,725.66,520.71,728.72Z"/><path class="cls-3" d="M252.89,866.74v9.37h10.84v-9.37h2.93v22.41h-2.93V878.64H252.89v10.51H250V866.74Z"/><path class="cls-3" d="M275.17,868.53a1.81,1.81,0,0,1-3.62,0,1.78,1.78,0,0,1,1.83-1.83A1.74,1.74,0,0,1,275.17,868.53Zm-3.26,20.62v-16.1h2.93v16.1Z"/><path class="cls-3" d="M279.29,886.15a7.66,7.66,0,0,0,3.86,1.17c2.13,0,3.13-1.07,3.13-2.4s-.83-2.16-3-2.95c-2.89-1-4.25-2.63-4.25-4.56,0-2.59,2.09-4.72,5.55-4.72a8,8,0,0,1,4,1l-.73,2.12a6.4,6.4,0,0,0-3.3-.93c-1.72,0-2.69,1-2.69,2.2s1,1.93,3.06,2.72c2.79,1.07,4.22,2.46,4.22,4.86,0,2.82-2.19,4.82-6,4.82a9.12,9.12,0,0,1-4.52-1.1Z"/><path class="cls-3" d="M296.39,868.43v4.62h4.19v2.23h-4.19V884c0,2,.56,3.13,2.19,3.13a6.53,6.53,0,0,0,1.7-.2l.13,2.19a7.22,7.22,0,0,1-2.59.4,4,4,0,0,1-3.16-1.23c-.83-.87-1.13-2.29-1.13-4.19v-8.78H291v-2.23h2.5V869.2Z"/><path class="cls-3" d="M318.23,881c0,5.95-4.12,8.54-8,8.54-4.36,0-7.71-3.19-7.71-8.28,0-5.38,3.52-8.54,8-8.54C315.11,872.69,318.23,876.05,318.23,881Zm-12.77.16c0,3.53,2,6.19,4.89,6.19s4.89-2.63,4.89-6.25c0-2.73-1.36-6.19-4.82-6.19S305.46,878.07,305.46,881.13Z"/><path class="cls-3" d="M321.92,878.07c0-1.89,0-3.52-.13-5h2.56l.1,3.16h.13a4.84,4.84,0,0,1,4.46-3.52,3,3,0,0,1,.83.1v2.76a4.22,4.22,0,0,0-1-.1c-2.06,0-3.52,1.56-3.92,3.76a7.75,7.75,0,0,0-.13,1.36v8.58h-2.9Z"/><path class="cls-3" d="M336.19,868.53a1.81,1.81,0,0,1-3.62,0,1.78,1.78,0,0,1,1.82-1.83A1.74,1.74,0,0,1,336.19,868.53Zm-3.26,20.62v-16.1h2.93v16.1Z"/><path class="cls-3" d="M349.62,889.15l-.23-2h-.1a6,6,0,0,1-4.92,2.39,4.58,4.58,0,0,1-4.92-4.62c0-3.89,3.46-6,9.68-6v-.34c0-1.33-.37-3.72-3.66-3.72a7.93,7.93,0,0,0-4.19,1.2l-.67-1.93a10,10,0,0,1,5.29-1.43c4.92,0,6.12,3.36,6.12,6.58v6a22.68,22.68,0,0,0,.26,3.86Zm-.43-8.22c-3.19-.06-6.81.5-6.81,3.63a2.59,2.59,0,0,0,2.75,2.79,4,4,0,0,0,3.89-2.69,2.77,2.77,0,0,0,.17-.93Z"/><path class="cls-3" d="M356.74,865.54h2.93v23.61h-2.93Z"/><path class="cls-3" d="M385.54,865.54V885c0,1.43,0,3.06.13,4.16H383l-.13-2.8h-.07a6,6,0,0,1-5.48,3.16c-3.89,0-6.89-3.29-6.89-8.18,0-5.35,3.3-8.64,7.22-8.64a5.36,5.36,0,0,1,4.85,2.46h.07v-9.61Zm-2.93,14.06a5.2,5.2,0,0,0-.13-1.23,4.31,4.31,0,0,0-4.23-3.39c-3,0-4.82,2.66-4.82,6.22,0,3.26,1.6,5.95,4.76,5.95a4.41,4.41,0,0,0,4.29-3.49,5.08,5.08,0,0,0,.13-1.26Z"/><path class="cls-3" d="M392,881.63c.07,4,2.59,5.59,5.52,5.59a10.69,10.69,0,0,0,4.46-.83l.49,2.09a12.93,12.93,0,0,1-5.35,1c-4.95,0-7.91-3.26-7.91-8.11s2.86-8.68,7.55-8.68c5.25,0,6.65,4.62,6.65,7.58a11.63,11.63,0,0,1-.1,1.36Zm8.58-2.09c0-1.86-.77-4.76-4.06-4.76-3,0-4.25,2.73-4.48,4.76Z"/><path class="cls-3" d="M414.1,878.31c0-2.06-.07-3.73-.13-5.26h2.63l.13,2.76h.06a6.34,6.34,0,0,1,5.72-3.12c3.89,0,6.82,3.29,6.82,8.18,0,5.78-3.52,8.64-7.32,8.64a5.65,5.65,0,0,1-4.95-2.52H417v8.74H414.1ZM417,882.6a6.16,6.16,0,0,0,.14,1.19,4.51,4.51,0,0,0,4.39,3.43c3.09,0,4.88-2.53,4.88-6.22,0-3.22-1.69-6-4.78-6a4.68,4.68,0,0,0-4.43,3.62,4.78,4.78,0,0,0-.2,1.2Z"/><path class="cls-3" d="M434.65,881.63c.07,4,2.59,5.59,5.52,5.59a10.69,10.69,0,0,0,4.46-.83l.49,2.09a12.93,12.93,0,0,1-5.35,1c-4.95,0-7.91-3.26-7.91-8.11s2.86-8.68,7.55-8.68c5.25,0,6.65,4.62,6.65,7.58a11.63,11.63,0,0,1-.1,1.36Zm8.58-2.09c0-1.86-.77-4.76-4.06-4.76-3,0-4.25,2.73-4.48,4.76Z"/><path class="cls-3" d="M463.58,865.54V885c0,1.43,0,3.06.13,4.16h-2.62l-.14-2.8h-.06a6,6,0,0,1-5.49,3.16c-3.89,0-6.88-3.29-6.88-8.18,0-5.35,3.29-8.64,7.21-8.64a5.38,5.38,0,0,1,4.86,2.46h.06v-9.61Zm-2.93,14.06a5.2,5.2,0,0,0-.13-1.23A4.3,4.3,0,0,0,456.3,875c-3,0-4.82,2.66-4.82,6.22,0,3.26,1.59,5.95,4.75,5.95a4.4,4.4,0,0,0,4.29-3.49,5.08,5.08,0,0,0,.13-1.26Z"/><path class="cls-3" d="M471.69,868.53a1.72,1.72,0,0,1-1.86,1.8,1.74,1.74,0,0,1-1.76-1.8,1.79,1.79,0,0,1,1.83-1.83A1.73,1.73,0,0,1,471.69,868.53Zm-3.25,20.62v-16.1h2.92v16.1Z"/><path class="cls-3" d="M490.12,865.54V885c0,1.43,0,3.06.13,4.16h-2.63l-.13-2.8h-.07a6,6,0,0,1-5.48,3.16c-3.89,0-6.89-3.29-6.89-8.18,0-5.35,3.3-8.64,7.22-8.64a5.36,5.36,0,0,1,4.85,2.46h.07v-9.61Zm-2.93,14.06a5.2,5.2,0,0,0-.13-1.23,4.31,4.31,0,0,0-4.23-3.39c-3,0-4.82,2.66-4.82,6.22,0,3.26,1.6,5.95,4.76,5.95a4.41,4.41,0,0,0,4.29-3.49,5.08,5.08,0,0,0,.13-1.26Z"/><path class="cls-3" d="M509.54,881c0,5.95-4.13,8.54-8,8.54-4.35,0-7.71-3.19-7.71-8.28,0-5.38,3.52-8.54,8-8.54C506.41,872.69,509.54,876.05,509.54,881Zm-12.77.16c0,3.53,2,6.19,4.89,6.19s4.88-2.63,4.88-6.25c0-2.73-1.36-6.19-4.82-6.19S496.77,878.07,496.77,881.13Z"/><path class="cls-3" d="M512.83,886.15a7.6,7.6,0,0,0,3.86,1.17c2.12,0,3.12-1.07,3.12-2.4s-.83-2.16-3-2.95c-2.89-1-4.26-2.63-4.26-4.56,0-2.59,2.1-4.72,5.56-4.72a7.89,7.89,0,0,1,4,1l-.73,2.12a6.32,6.32,0,0,0-3.29-.93c-1.73,0-2.69,1-2.69,2.2s1,1.93,3.06,2.72c2.79,1.07,4.22,2.46,4.22,4.86,0,2.82-2.2,4.82-6,4.82a9.12,9.12,0,0,1-4.52-1.1Z"/><circle class="cls-4" cx="219.71" cy="197" r="57.83"/><circle class="cls-4" cx="381.36" cy="197" r="57.83"/><circle class="cls-4" cx="545.25" cy="197" r="57.83"/><g class="cls-5"><path d="M389.7,192c0,9.67-3.59,15-9.89,15-5.55,0-9.31-5.21-9.4-14.62s4.11-14.78,9.89-14.78C386.29,177.6,389.7,182.94,389.7,192Zm-15.44.44c0,7.39,2.27,11.59,5.77,11.59,3.94,0,5.82-4.59,5.82-11.85,0-7-1.79-11.6-5.77-11.6C376.71,180.57,374.26,184.69,374.26,192.43Z"/></g><g id="Capa_2-2" data-name="Capa 2"><g id="Layer_1" data-name="Layer 1"><path class="cls-6" d="M199.55,225.15a9,9,0,0,1-9-9V188a2,2,0,0,1,.85-1.71l27.39-21.49a2,2,0,0,1,2.67,0l26.82,21a2,2,0,0,1,.85,1.72v28.62a9,9,0,0,1-9,9Z"/><path class="cls-7" d="M220.09,166.47l26.83,21v28.62a6.82,6.82,0,0,1-6.85,6.85H199.55a6.82,6.82,0,0,1-6.85-6.85V188l27.39-21.49m0-4.38a4.54,4.54,0,0,0-2.66.95l-27.49,21.4a4.51,4.51,0,0,0-1.71,3.43V216a11.24,11.24,0,0,0,11.23,11.22H240A11.24,11.24,0,0,0,251.19,216V187.49a4.2,4.2,0,0,0-1.71-3.43l-26.63-21a4.09,4.09,0,0,0-2.76-.95Z"/><path class="cls-6" d="M257.66,191.86l-34.81-28.72a4.41,4.41,0,0,0-6.08,0l-34.91,28.72A4.31,4.31,0,0,0,188,198h0l31.86-25.78L251.67,198a4.22,4.22,0,0,0,6-.19,4.39,4.39,0,0,0,0-5.9Z"/><path class="cls-8" d="M192.61,190.91a2.15,2.15,0,0,1-2.19-2.19V166.37a4.26,4.26,0,0,1,4.28-4.28h2.47a4.26,4.26,0,0,1,4.28,4.28h0v22.26a2.16,2.16,0,0,1-2.18,2.19h0l-6.66.09Z"/><path class="cls-7" d="M197.17,164.37a2.13,2.13,0,0,1,2.1,2.1h0v22.25H192.7V166.37a2.11,2.11,0,0,1,2.1-2.09h0l2.37.09m0-4.37H194.7a6.47,6.47,0,0,0-6.47,6.47v22.25a4.43,4.43,0,0,0,4.38,4.38h6.56a4.43,4.43,0,0,0,4.38-4.38h0V166.37a6.32,6.32,0,0,0-6.38-6.37Z"/><path class="cls-8" d="M219.52,166.85,192.61,188v28.15a6.82,6.82,0,0,0,6.85,6.85h20.06Z"/><path class="cls-8" d="M219.52,161.9a4.13,4.13,0,0,0-2.85,1.24l-34.81,28.72A4.31,4.31,0,0,0,188,198h0l31.57-25.59Z"/></g></g><g id="Capa_2-3" data-name="Capa 2" class="cls-5"><g id="Capa_1-2-2" data-name="Capa 1-2"><polyline class="cls-9" points="340 186.29 359.47 227 407.23 227 422.61 186.29"/><line class="cls-10" x1="343.74" y1="195.96" x2="336.98" y2="199.22"/><line class="cls-10" x1="418.98" y1="195.96" x2="425.74" y2="199.22"/></g></g><g id="Capa_2-4" data-name="Capa 2" class="cls-5"><g id="Layer_1-2" data-name="Layer 1"><path d="M546,175.77a2.88,2.88,0,0,1-2.1-.9l-2.3-2.3a19.16,19.16,0,0,0-27.1,27.1l27.1,27a6.67,6.67,0,0,0,4.2,1.8Z"/><path class="cls-11" d="M545.15,175.57a2.88,2.88,0,0,0,2.1-.9l2.3-2.3a19.14,19.14,0,0,1,27,27.1l-27.2,27.1a7.38,7.38,0,0,1-4.2,1.9Z"/><path class="cls-12" d="M574.05,189.57a13.82,13.82,0,0,0-5.2-10.2A12.15,12.15,0,0,0,559,177"/></g></g><g id="Capa_2-5" data-name="Capa 2" class="cls-5"><g id="Layer_1-3" data-name="Layer 1"><path class="cls-13" d="M143.51,549.4h50.9a7.47,7.47,0,0,1,7.5,7.4v32.9a7.49,7.49,0,0,1-7.5,7.5h-50.9a7.41,7.41,0,0,1-7.4-7.5V556.8A7.26,7.26,0,0,1,143.51,549.4Z"/><line class="cls-12" x1="190.91" y1="562.7" x2="145.51" y2="562.7"/><line class="cls-14" x1="186.41" y1="586.3" x2="149.31" y2="586.3"/><line class="cls-15" x1="189.81" y1="569.3" x2="174.91" y2="569.3"/></g></g><g id="Capa_2-6" data-name="Capa 2" class="cls-5"><g id="Layer_1-4" data-name="Layer 1"><path class="cls-11" d="M129.71,747.53a2.26,2.26,0,0,1-2.3-2.3v-14.9a13.25,13.25,0,0,1,4.3-9.7l8-7.3a14.43,14.43,0,0,1,9.9-3.8h19.9a2.26,2.26,0,0,1,2.3,2.3v33.4a2.26,2.26,0,0,1-2.3,2.3Z"/><path class="cls-13" d="M169.41,745.23h-39.7v-14.9a11.16,11.16,0,0,1,1.7-5.8h38Z"/><path class="cls-16" d="M155.41,726.13h-14.5a.94.94,0,0,1-1.1-.8.88.88,0,0,1,.5-1l5-4a8.22,8.22,0,0,1,5.2-1.8h4.3"/><path class="cls-13" d="M142.11,754.93a8.6,8.6,0,1,1,8.6-8.7h0A8.69,8.69,0,0,1,142.11,754.93Z"/><path class="cls-11" d="M171.71,747.73c-10.5,0-13.3-.6-14.5-1.2a2.33,2.33,0,0,1-1.3-2.1v-37.5a9.13,9.13,0,0,1,9.1-9.1h34.5a9.13,9.13,0,0,1,9.1,9.1v31.4a9.13,9.13,0,0,1-9.1,9.1h-17c-.1.1-5.3.3-10.8.3Z"/><path class="cls-13" d="M206.21,724.53v13.9a6.81,6.81,0,0,1-6.8,6.8h-17s-20.8.8-24.2-.8v-19.9Z"/><path class="cls-12" d="M199.41,718.33v-7.7a3.8,3.8,0,0,0-3.8-3.8h-13.7"/><path class="cls-13" d="M183.61,754.93a8.6,8.6,0,1,1,8.6-8.6h0A8.6,8.6,0,0,1,183.61,754.93Z"/></g></g><g id="Capa_2-7" data-name="Capa 2" class="cls-5"><g id="Layer_1-5" data-name="Layer 1"><path class="cls-13" d="M153.41,918.73a7.38,7.38,0,0,1-7.4-7.4v-50.9a7.38,7.38,0,0,1,7.4-7.4h23.5a2.36,2.36,0,0,1,1.6.7l14.6,14.6a2.36,2.36,0,0,1,.7,1.6v41.4a7.41,7.41,0,0,1-7.5,7.4Z"/><path class="cls-11" d="M178.61,852.53a5.66,5.66,0,0,0-1.8.3A4.57,4.57,0,0,0,174,857v5.7a9.65,9.65,0,0,0,9.7,9.7h5.7a4.65,4.65,0,0,0,4.6-4.6,4.82,4.82,0,0,0-1.3-3.2l-10.9-10.8A4.63,4.63,0,0,0,178.61,852.53Z"/><line class="cls-12" x1="158.11" y1="877.63" x2="181.61" y2="877.63"/><line class="cls-12" x1="158.11" y1="886.33" x2="181.61" y2="886.33"/><line class="cls-12" x1="158.11" y1="894.93" x2="181.61" y2="894.93"/><line class="cls-12" x1="158.11" y1="903.63" x2="181.61" y2="903.63"/></g></g><g id="Capa_2-8" data-name="Capa 2" class="cls-5"><g id="Layer_1-6" data-name="Layer 1"><path class="cls-11" d="M167.86,398.08a9.29,9.29,0,0,1-6.7-2.8,9.52,9.52,0,0,1-2.8-6.8,9.29,9.29,0,0,1,2.8-6.7,9.6,9.6,0,0,1,13.5,0,9.47,9.47,0,0,1,2.8,6.7,9.7,9.7,0,0,1-2.8,6.8A9.52,9.52,0,0,1,167.86,398.08Z"/><path class="cls-13" d="M167.86,381.28a7.17,7.17,0,0,0-7.2,7.2,7.34,7.34,0,0,0,2.1,5.2,6.94,6.94,0,0,0,5.1,2.1Z"/><path class="cls-11" d="M168,439.58a16.07,16.07,0,0,1-11.9-4.9,16.3,16.3,0,0,1-4.9-12,16.07,16.07,0,0,1,4.9-11.9,16.9,16.9,0,0,1,23.9,0,16.07,16.07,0,0,1,4.9,11.9,16.46,16.46,0,0,1-4.9,12A16.69,16.69,0,0,1,168,439.58Z"/><path class="cls-13" d="M168.11,407.57a14.91,14.91,0,0,0-15.1,15.1,15,15,0,0,0,4.37,10.85A15.27,15.27,0,0,0,168.11,438Z"/><line class="cls-12" x1="169.76" y1="386.68" x2="168.16" y2="386.68"/><path class="cls-12" d="M171.56,413.78s7.9,5.7,2.9,15.7"/></g></g><circle class="cls-17" cx="220.85" cy="194.71" r="100.61"/><rect class="cls-18" x="2.05" y="294.06" width="9.9" height="9.9" transform="translate(223.38 505.48) rotate(135)"/><rect class="cls-19" x="761.83" y="618.73" width="8.34" height="8.34" transform="translate(1748.1 521.71) rotate(135)"/><rect class="cls-20" x="31.83" y="904.73" width="8.34" height="8.34" transform="translate(704.15 1526.14) rotate(135)"/></g></g></svg>