<svg xmlns="http://www.w3.org/2000/svg" xmlns:xlink="http://www.w3.org/1999/xlink" viewBox="0 0 812.57 1044"><defs><style>.cls-1{opacity:0.5;fill:url(#Degradado_sin_nombre_50);}.cls-2{fill:url(#Degradado_sin_nombre_26);}.cls-3{fill:#c4c4c4;}.cls-14,.cls-4{fill:#dbdbdb;}.cls-4{opacity:0.6;}.cls-5{font-size:43.74px;font-family:MyriadPro-Regular, Myriad Pro;letter-spacing:0.06em;}.cls-6{fill:#db0029;}.cls-11,.cls-12,.cls-7,.cls-8,.cls-9{fill:none;stroke-linejoin:round;}.cls-7,.cls-8,.cls-9{stroke:#fff;}.cls-12,.cls-7,.cls-8,.cls-9{stroke-linecap:round;}.cls-7{stroke-width:4.6px;}.cls-8{stroke-width:8px;}.cls-9{stroke-width:3px;}.cls-10{opacity:0.6;}.cls-11,.cls-12,.cls-15{stroke:#000;}.cls-11,.cls-12{stroke-width:6px;}.cls-13{opacity:0.7;}.cls-15{stroke-miterlimit:10;stroke-width:4px;}.cls-16{fill:#fff;}.cls-17{fill:url(#Degradado_sin_nombre_77);}.cls-18{fill:#eb445a;}.cls-19{fill:#2dd36f;}.cls-20{fill:#3dc2ff;}</style><linearGradient id="Degradado_sin_nombre_50" x1="430.31" y1="1044" x2="430.31" gradientUnits="userSpaceOnUse"><stop offset="0" stop-color="#fff" stop-opacity="0"/><stop offset="0.15" stop-color="#e8ebec" stop-opacity="0.5"/><stop offset="0.5" stop-color="#e8ebec" stop-opacity="0.5"/><stop offset="0.85" stop-color="#e8ebec" stop-opacity="0.5"/><stop offset="1" stop-color="#fff" stop-opacity="0"/></linearGradient><linearGradient id="Degradado_sin_nombre_26" x1="356.3" y1="1044" x2="356.3" gradientUnits="userSpaceOnUse"><stop offset="0" stop-color="#fff" stop-opacity="0"/><stop offset="0.15" stop-color="#fff"/><stop offset="0.5" stop-color="#fff"/><stop offset="0.85" stop-color="#fff"/><stop offset="1" stop-color="#fff" stop-opacity="0"/></linearGradient><radialGradient id="Degradado_sin_nombre_77" cx="139.5" cy="570.88" r="100.61" gradientUnits="userSpaceOnUse"><stop offset="0.19" stop-color="#ffc409" stop-opacity="0"/><stop offset="0.64" stop-color="#ffc409" stop-opacity="0"/><stop offset="0.68" stop-color="#ffc409" stop-opacity="0.02"/><stop offset="0.72" stop-color="#ffc409" stop-opacity="0.08"/><stop offset="0.77" stop-color="#ffc409" stop-opacity="0.19"/><stop offset="0.83" stop-color="#ffc409" stop-opacity="0.33"/><stop offset="0.88" stop-color="#ffc409" stop-opacity="0.52"/><stop offset="0.94" stop-color="#ffc409" stop-opacity="0.74"/><stop offset="1" stop-color="#ffc409"/></radialGradient></defs><g id="Capa_2" data-name="Capa 2"><g id="Capa_1-2" data-name="Capa 1"><rect class="cls-1" x="48.05" width="764.51" height="1044"/><rect class="cls-2" x="49.22" width="614.18" height="1044"/><path class="cls-3" d="M241.86,408.21c-.17-3.12-.37-6.88-.33-9.67h-.1c-.77,2.63-1.7,5.42-2.83,8.51l-4,10.87h-2.19l-3.63-10.67c-1.06-3.16-2-6.05-2.59-8.71h-.07c-.06,2.79-.23,6.55-.43,9.91l-.6,9.61h-2.76l1.57-22.41h3.69l3.82,10.84c.93,2.75,1.7,5.22,2.26,7.54h.1c.57-2.26,1.37-4.72,2.36-7.54l4-10.84h3.69l1.4,22.41h-2.83Z"/><path class="cls-3" d="M253.27,397.44a1.82,1.82,0,0,1-3.63,0,1.79,1.79,0,0,1,1.83-1.83A1.74,1.74,0,0,1,253.27,397.44ZM250,418.06V402h2.92v16.1Z"/><path class="cls-3" d="M276.31,417.46a10.78,10.78,0,0,1-4.62.93c-4.86,0-8-3.29-8-8.21s3.4-8.55,8.65-8.55a9.79,9.79,0,0,1,4.06.83l-.67,2.26a6.8,6.8,0,0,0-3.39-.76c-3.69,0-5.69,2.72-5.69,6.08,0,3.73,2.4,6,5.59,6a8.25,8.25,0,0,0,3.59-.8Z"/><path class="cls-3" d="M293.2,413.67c0,1.66,0,3.12.13,4.39h-2.59l-.17-2.63h-.06a6.05,6.05,0,0,1-5.32,3c-2.53,0-5.55-1.39-5.55-7.05V402h2.92v8.91c0,3.06.93,5.12,3.59,5.12a4.23,4.23,0,0,0,3.86-2.66,4.16,4.16,0,0,0,.27-1.49V402h2.92Z"/><path class="cls-3" d="M299.69,410.54c.06,4,2.59,5.59,5.52,5.59a10.67,10.67,0,0,0,4.45-.83l.5,2.09a12.93,12.93,0,0,1-5.35,1c-5,0-7.92-3.26-7.92-8.11s2.86-8.68,7.55-8.68c5.26,0,6.65,4.62,6.65,7.58a11.63,11.63,0,0,1-.1,1.36Zm8.58-2.09c0-1.86-.77-4.76-4.06-4.76-3,0-4.26,2.73-4.49,4.76Z"/><path class="cls-3" d="M314.72,406.32c0-1.66,0-3-.14-4.36h2.6l.16,2.66h.07a5.92,5.92,0,0,1,5.32-3c2.23,0,5.69,1.33,5.69,6.85v9.61h-2.93v-9.28c0-2.59-1-4.76-3.72-4.76a4.17,4.17,0,0,0-3.93,3,4.24,4.24,0,0,0-.2,1.36v9.68h-2.92Z"/><path class="cls-3" d="M336.57,397.34V402h4.18v2.23h-4.18v8.68c0,2,.56,3.12,2.19,3.12a7,7,0,0,0,1.69-.19l.14,2.19a7.28,7.28,0,0,1-2.6.4,4,4,0,0,1-3.15-1.23c-.84-.87-1.13-2.3-1.13-4.19v-8.78h-2.5V402h2.5v-3.85Z"/><path class="cls-3" d="M353,418.06l-.23-2h-.1a6,6,0,0,1-4.93,2.39,4.59,4.59,0,0,1-4.92-4.62c0-3.89,3.46-6,9.68-6v-.34c0-1.33-.37-3.72-3.66-3.72a8,8,0,0,0-4.19,1.2L344,403a9.93,9.93,0,0,1,5.28-1.43c4.93,0,6.12,3.36,6.12,6.58v6a22.61,22.61,0,0,0,.27,3.86Zm-.43-8.22c-3.2-.06-6.82.5-6.82,3.63a2.59,2.59,0,0,0,2.76,2.79,4,4,0,0,0,3.89-2.69,3,3,0,0,0,.17-.93Z"/><path class="cls-3" d="M223,562.18a34,34,0,0,1,5.56-.43c2.86,0,4.95.66,6.28,1.86a6,6,0,0,1,2,4.69,6.61,6.61,0,0,1-1.73,4.79,9.32,9.32,0,0,1-6.85,2.46,10.23,10.23,0,0,1-2.32-.2v9H223Zm2.9,10.81a10,10,0,0,0,2.39.23c3.49,0,5.62-1.7,5.62-4.79s-2.1-4.39-5.29-4.39a12.26,12.26,0,0,0-2.72.23Z"/><path class="cls-3" d="M248.61,584.32l-.23-2h-.1a6,6,0,0,1-4.92,2.39,4.58,4.58,0,0,1-4.92-4.62c0-3.89,3.45-6,9.67-6v-.33c0-1.33-.36-3.72-3.66-3.72a8.07,8.07,0,0,0-4.19,1.19l-.66-1.92a10,10,0,0,1,5.29-1.43c4.92,0,6.11,3.35,6.11,6.58v6a22.49,22.49,0,0,0,.27,3.85Zm-.43-8.21c-3.19-.07-6.82.5-6.82,3.63a2.59,2.59,0,0,0,2.76,2.79,4,4,0,0,0,3.89-2.7,3,3,0,0,0,.17-.93Z"/><path class="cls-3" d="M269.59,568.23c-.06,1.16-.13,2.46-.13,4.42V582c0,3.69-.73,6-2.3,7.34a8.49,8.49,0,0,1-5.85,1.93,10.35,10.35,0,0,1-5.35-1.33l.73-2.22a9.15,9.15,0,0,0,4.72,1.26c3,0,5.19-1.56,5.19-5.62v-1.8h-.07a5.72,5.72,0,0,1-5.12,2.7c-4,0-6.85-3.39-6.85-7.85,0-5.45,3.56-8.54,7.25-8.54a5.34,5.34,0,0,1,5,2.79h.07l.13-2.43Zm-3,6.35a4.29,4.29,0,0,0-4.26-4.42c-2.79,0-4.79,2.36-4.79,6.08,0,3.16,1.6,5.79,4.76,5.79a4.27,4.27,0,0,0,4.05-3,5,5,0,0,0,.24-1.57Z"/><path class="cls-3" d="M288.88,576.14c0,6-4.12,8.55-8,8.55-4.36,0-7.72-3.19-7.72-8.28,0-5.39,3.53-8.54,8-8.54C285.75,567.87,288.88,571.22,288.88,576.14Zm-12.77.17c0,3.52,2,6.18,4.89,6.18s4.89-2.62,4.89-6.25c0-2.72-1.37-6.18-4.82-6.18S276.11,573.25,276.11,576.31Z"/><path class="cls-3" d="M223,714.62a42.43,42.43,0,0,1,6.15-.46c4.16,0,7.12,1,9.08,2.79s3.16,4.42,3.16,8a11.84,11.84,0,0,1-3.23,8.71c-2.09,2.09-5.55,3.22-9.9,3.22a48.5,48.5,0,0,1-5.26-.26Zm2.9,19.82a18.48,18.48,0,0,0,2.92.17c6.19,0,9.54-3.46,9.54-9.51,0-5.29-3-8.65-9.07-8.65a16.09,16.09,0,0,0-3.39.3Z"/><path class="cls-3" d="M248.28,716.12a1.82,1.82,0,0,1-3.63,0,1.79,1.79,0,0,1,1.83-1.83A1.74,1.74,0,0,1,248.28,716.12ZM245,736.73V720.64H248v16.09Z"/><path class="cls-3" d="M252.8,725.66c0-1.89,0-3.52-.13-5h2.56l.1,3.16h.13a4.82,4.82,0,0,1,4.46-3.52,3,3,0,0,1,.83.1v2.75a4.82,4.82,0,0,0-1-.1c-2.06,0-3.52,1.57-3.92,3.76a7.92,7.92,0,0,0-.14,1.37v8.57H252.8Z"/><path class="cls-3" d="M265,729.22c.07,4,2.6,5.59,5.52,5.59A10.54,10.54,0,0,0,275,734l.49,2.1a13.1,13.1,0,0,1-5.35,1c-4.95,0-7.91-3.26-7.91-8.12s2.86-8.67,7.55-8.67c5.25,0,6.65,4.62,6.65,7.58a11.82,11.82,0,0,1-.1,1.36Zm8.58-2.1c0-1.86-.77-4.75-4.06-4.75-3,0-4.25,2.73-4.49,4.75Z"/><path class="cls-3" d="M291.47,736.13a10.71,10.71,0,0,1-4.62.94c-4.85,0-8-3.3-8-8.22s3.39-8.54,8.64-8.54a9.79,9.79,0,0,1,4.06.83l-.67,2.26a6.74,6.74,0,0,0-3.39-.76c-3.69,0-5.68,2.72-5.68,6.08,0,3.72,2.39,6,5.58,6a8.21,8.21,0,0,0,3.59-.8Z"/><path class="cls-3" d="M306.17,736.13a10.71,10.71,0,0,1-4.62.94c-4.86,0-8-3.3-8-8.22s3.39-8.54,8.64-8.54a9.79,9.79,0,0,1,4.06.83l-.67,2.26a6.77,6.77,0,0,0-3.39-.76c-3.69,0-5.69,2.72-5.69,6.08,0,3.72,2.4,6,5.59,6a8.25,8.25,0,0,0,3.59-.8Z"/><path class="cls-3" d="M312.86,716.12a1.82,1.82,0,0,1-3.63,0,1.79,1.79,0,0,1,1.83-1.83A1.74,1.74,0,0,1,312.86,716.12Zm-3.26,20.61V720.64h2.92v16.09Z"/><path class="cls-3" d="M331.94,728.55c0,6-4.12,8.55-8,8.55-4.36,0-7.71-3.19-7.71-8.28,0-5.39,3.52-8.54,8-8.54C328.82,720.28,331.94,723.63,331.94,728.55Zm-12.77.17c0,3.52,2,6.18,4.89,6.18s4.89-2.62,4.89-6.25c0-2.72-1.36-6.18-4.82-6.18S319.17,725.66,319.17,728.72Z"/><path class="cls-3" d="M335.63,725c0-1.67,0-3-.13-4.36h2.59l.17,2.66h.07a5.92,5.92,0,0,1,5.32-3c2.23,0,5.68,1.33,5.68,6.84v9.61h-2.92v-9.27c0-2.6-1-4.76-3.73-4.76a4.16,4.16,0,0,0-3.92,3,4.35,4.35,0,0,0-.2,1.37v9.67h-2.93Z"/><path class="cls-3" d="M355.72,729.22c.07,4,2.59,5.59,5.52,5.59a10.45,10.45,0,0,0,4.45-.84l.5,2.1a13.1,13.1,0,0,1-5.35,1c-4.95,0-7.91-3.26-7.91-8.12s2.86-8.67,7.54-8.67c5.26,0,6.65,4.62,6.65,7.58a9.9,9.9,0,0,1-.1,1.36Zm8.58-2.1c0-1.86-.77-4.75-4.06-4.75-3,0-4.25,2.73-4.49,4.75Z"/><path class="cls-3" d="M370.35,733.74a7.63,7.63,0,0,0,3.86,1.16c2.13,0,3.12-1.06,3.12-2.39s-.83-2.16-3-3c-2.89-1-4.26-2.63-4.26-4.55,0-2.6,2.1-4.72,5.56-4.72a8,8,0,0,1,3.95,1l-.73,2.13a6.23,6.23,0,0,0-3.29-.93c-1.73,0-2.69,1-2.69,2.19s1,1.93,3.06,2.73c2.79,1.06,4.22,2.46,4.22,4.85,0,2.83-2.2,4.83-6,4.83a9.23,9.23,0,0,1-4.52-1.1Z"/><path class="cls-3" d="M404.87,713.13v19.45c0,1.43,0,3.06.13,4.15h-2.63l-.13-2.79h-.07a6,6,0,0,1-5.48,3.16c-3.89,0-6.89-3.29-6.89-8.18,0-5.35,3.3-8.64,7.22-8.64a5.36,5.36,0,0,1,4.85,2.46h.07v-9.61Zm-2.93,14.06a5.2,5.2,0,0,0-.13-1.23,4.31,4.31,0,0,0-4.23-3.39c-3,0-4.82,2.66-4.82,6.22,0,3.26,1.6,6,4.76,6a4.41,4.41,0,0,0,4.29-3.49,5.11,5.11,0,0,0,.13-1.27Z"/><path class="cls-3" d="M411.35,729.22c.07,4,2.6,5.59,5.52,5.59a10.51,10.51,0,0,0,4.46-.84l.49,2.1a13.1,13.1,0,0,1-5.35,1c-5,0-7.91-3.26-7.91-8.12s2.86-8.67,7.55-8.67c5.25,0,6.65,4.62,6.65,7.58a11.82,11.82,0,0,1-.1,1.36Zm8.58-2.1c0-1.86-.77-4.75-4.06-4.75-3,0-4.25,2.73-4.48,4.75Z"/><path class="cls-3" d="M435.06,729.22c.07,4,2.59,5.59,5.52,5.59A10.45,10.45,0,0,0,445,734l.5,2.1a13.1,13.1,0,0,1-5.35,1c-4.95,0-7.91-3.26-7.91-8.12s2.86-8.67,7.55-8.67c5.25,0,6.64,4.62,6.64,7.58a12.31,12.31,0,0,1-.09,1.36Zm8.58-2.1c0-1.86-.77-4.75-4.06-4.75-3,0-4.25,2.73-4.49,4.75Z"/><path class="cls-3" d="M450.09,725c0-1.67,0-3-.13-4.36h2.59l.17,2.66h.06a5.92,5.92,0,0,1,5.32-3c2.23,0,5.69,1.33,5.69,6.84v9.61h-2.93v-9.27c0-2.6-1-4.76-3.72-4.76a4.16,4.16,0,0,0-3.92,3,4.08,4.08,0,0,0-.2,1.37v9.67h-2.93Z"/><path class="cls-3" d="M469.24,720.64l3.16,9a39.47,39.47,0,0,1,1.3,4.13h.1c.37-1.33.83-2.66,1.36-4.13l3.13-9h3.06L475,736.73h-2.79l-6.12-16.09Z"/><path class="cls-3" d="M490.06,713.69,486,718.45h-2.09l2.92-4.76Zm-5.95,23V720.64H487v16.09Z"/><path class="cls-3" d="M506.45,728.55c0,6-4.12,8.55-8,8.55-4.36,0-7.71-3.19-7.71-8.28,0-5.39,3.52-8.54,8-8.54C503.33,720.28,506.45,723.63,506.45,728.55Zm-12.76.17c0,3.52,2,6.18,4.88,6.18s4.89-2.62,4.89-6.25c0-2.72-1.36-6.18-4.82-6.18S493.69,725.66,493.69,728.72Z"/><path class="cls-3" d="M225.87,866.74v9.37H236.7v-9.37h2.93v22.41H236.7V878.64H225.87v10.51H223V866.74Z"/><path class="cls-3" d="M248.15,868.53a1.82,1.82,0,0,1-3.63,0,1.79,1.79,0,0,1,1.83-1.83A1.74,1.74,0,0,1,248.15,868.53Zm-3.26,20.62v-16.1h2.92v16.1Z"/><path class="cls-3" d="M252.27,886.15a7.6,7.6,0,0,0,3.86,1.17c2.12,0,3.12-1.07,3.12-2.4s-.83-2.16-3-2.95c-2.89-1-4.26-2.63-4.26-4.56,0-2.59,2.1-4.72,5.56-4.72a8,8,0,0,1,3.95,1l-.73,2.12a6.32,6.32,0,0,0-3.29-.93c-1.73,0-2.69,1-2.69,2.2s1,1.93,3.05,2.72c2.8,1.07,4.23,2.46,4.23,4.86,0,2.82-2.2,4.82-6,4.82a9.12,9.12,0,0,1-4.52-1.1Z"/><path class="cls-3" d="M269.36,868.43v4.62h4.19v2.23h-4.19V884c0,2,.57,3.13,2.2,3.13a6.44,6.44,0,0,0,1.69-.2l.13,2.19a7.18,7.18,0,0,1-2.59.4,4.06,4.06,0,0,1-3.16-1.23c-.83-.87-1.13-2.29-1.13-4.19v-8.78H264v-2.23h2.49V869.2Z"/><path class="cls-3" d="M291.21,881c0,5.95-4.13,8.54-8,8.54-4.35,0-7.71-3.19-7.71-8.28,0-5.38,3.52-8.54,8-8.54C288.08,872.69,291.21,876.05,291.21,881Zm-12.77.16c0,3.53,2,6.19,4.89,6.19s4.88-2.63,4.88-6.25c0-2.73-1.36-6.19-4.82-6.19S278.44,878.07,278.44,881.13Z"/><path class="cls-3" d="M294.9,878.07c0-1.89,0-3.52-.13-5h2.56l.1,3.16h.13a4.82,4.82,0,0,1,4.45-3.52,3.07,3.07,0,0,1,.84.1v2.76a4.22,4.22,0,0,0-1-.1c-2.06,0-3.53,1.56-3.93,3.76a8.85,8.85,0,0,0-.13,1.36v8.58H294.9Z"/><path class="cls-3" d="M309.16,868.53a1.72,1.72,0,0,1-1.86,1.8,1.74,1.74,0,0,1-1.76-1.8,1.79,1.79,0,0,1,1.83-1.83A1.73,1.73,0,0,1,309.16,868.53Zm-3.25,20.62v-16.1h2.92v16.1Z"/><path class="cls-3" d="M322.6,889.15l-.23-2h-.1a6,6,0,0,1-4.93,2.39,4.59,4.59,0,0,1-4.92-4.62c0-3.89,3.46-6,9.68-6v-.34c0-1.33-.37-3.72-3.66-3.72a8,8,0,0,0-4.19,1.2l-.66-1.93a9.93,9.93,0,0,1,5.28-1.43c4.93,0,6.12,3.36,6.12,6.58v6a22.61,22.61,0,0,0,.27,3.86Zm-.43-8.22c-3.2-.06-6.82.5-6.82,3.63a2.59,2.59,0,0,0,2.76,2.79,4,4,0,0,0,3.89-2.69,3,3,0,0,0,.17-.93Z"/><path class="cls-3" d="M329.72,865.54h2.92v23.61h-2.92Z"/><path class="cls-3" d="M358.51,865.54V885c0,1.43,0,3.06.13,4.16H356l-.14-2.8h-.06a6,6,0,0,1-5.49,3.16c-3.89,0-6.88-3.29-6.88-8.18,0-5.35,3.29-8.64,7.21-8.64a5.38,5.38,0,0,1,4.86,2.46h.06v-9.61Zm-2.93,14.06a5.2,5.2,0,0,0-.13-1.23,4.3,4.3,0,0,0-4.22-3.39c-3,0-4.82,2.66-4.82,6.22,0,3.26,1.59,5.95,4.75,5.95a4.4,4.4,0,0,0,4.29-3.49,5.08,5.08,0,0,0,.13-1.26Z"/><path class="cls-3" d="M365,881.63c.06,4,2.59,5.59,5.52,5.59a10.67,10.67,0,0,0,4.45-.83l.5,2.09a12.93,12.93,0,0,1-5.35,1c-5,0-7.92-3.26-7.92-8.11s2.86-8.68,7.55-8.68c5.25,0,6.65,4.62,6.65,7.58a11.63,11.63,0,0,1-.1,1.36Zm8.57-2.09c0-1.86-.76-4.76-4.05-4.76-3,0-4.26,2.73-4.49,4.76Z"/><path class="cls-3" d="M387.08,878.31c0-2.06-.07-3.73-.14-5.26h2.63l.13,2.76h.07a6.33,6.33,0,0,1,5.72-3.12c3.89,0,6.81,3.29,6.81,8.18,0,5.78-3.52,8.64-7.31,8.64A5.64,5.64,0,0,1,390,887H390v8.74h-2.89ZM390,882.6a7.1,7.1,0,0,0,.13,1.19,4.52,4.52,0,0,0,4.39,3.43c3.09,0,4.89-2.53,4.89-6.22,0-3.22-1.7-6-4.79-6a4.67,4.67,0,0,0-4.42,3.62,4.78,4.78,0,0,0-.2,1.2Z"/><path class="cls-3" d="M407.63,881.63c.06,4,2.59,5.59,5.52,5.59a10.67,10.67,0,0,0,4.45-.83l.5,2.09a12.93,12.93,0,0,1-5.35,1c-5,0-7.92-3.26-7.92-8.11s2.86-8.68,7.55-8.68c5.25,0,6.65,4.62,6.65,7.58a11.63,11.63,0,0,1-.1,1.36Zm8.57-2.09c0-1.86-.76-4.76-4.05-4.76-3,0-4.26,2.73-4.49,4.76Z"/><path class="cls-3" d="M436.56,865.54V885c0,1.43,0,3.06.13,4.16h-2.63l-.13-2.8h-.07a6,6,0,0,1-5.48,3.16c-3.89,0-6.89-3.29-6.89-8.18,0-5.35,3.29-8.64,7.22-8.64a5.36,5.36,0,0,1,4.85,2.46h.07v-9.61Zm-2.93,14.06a5.2,5.2,0,0,0-.13-1.23,4.31,4.31,0,0,0-4.23-3.39c-3,0-4.82,2.66-4.82,6.22,0,3.26,1.6,5.95,4.76,5.95a4.41,4.41,0,0,0,4.29-3.49,5.08,5.08,0,0,0,.13-1.26Z"/><path class="cls-3" d="M444.67,868.53a1.81,1.81,0,0,1-3.62,0,1.78,1.78,0,0,1,1.82-1.83A1.74,1.74,0,0,1,444.67,868.53Zm-3.26,20.62v-16.1h2.93v16.1Z"/><path class="cls-3" d="M463.09,865.54V885c0,1.43,0,3.06.13,4.16H460.6l-.14-2.8h-.06a6,6,0,0,1-5.49,3.16c-3.89,0-6.88-3.29-6.88-8.18,0-5.35,3.29-8.64,7.21-8.64a5.38,5.38,0,0,1,4.86,2.46h.06v-9.61Zm-2.93,14.06a5.2,5.2,0,0,0-.13-1.23,4.3,4.3,0,0,0-4.22-3.39c-3,0-4.82,2.66-4.82,6.22,0,3.26,1.59,5.95,4.75,5.95a4.4,4.4,0,0,0,4.29-3.49,5.08,5.08,0,0,0,.13-1.26Z"/><path class="cls-3" d="M482.51,881c0,5.95-4.12,8.54-8,8.54-4.36,0-7.72-3.19-7.72-8.28,0-5.38,3.53-8.54,8-8.54C479.39,872.69,482.51,876.05,482.51,881Zm-12.77.16c0,3.53,2,6.19,4.89,6.19s4.89-2.63,4.89-6.25c0-2.73-1.36-6.19-4.82-6.19S469.74,878.07,469.74,881.13Z"/><path class="cls-3" d="M485.8,886.15a7.66,7.66,0,0,0,3.86,1.17c2.13,0,3.13-1.07,3.13-2.4s-.83-2.16-3-2.95c-2.89-1-4.25-2.63-4.25-4.56,0-2.59,2.09-4.72,5.55-4.72a8,8,0,0,1,4,1l-.73,2.12a6.4,6.4,0,0,0-3.3-.93c-1.72,0-2.69,1-2.69,2.2s1,1.93,3.06,2.72c2.79,1.07,4.22,2.46,4.22,4.86,0,2.82-2.19,4.82-6,4.82a9.12,9.12,0,0,1-4.52-1.1Z"/><circle class="cls-4" cx="192.68" cy="197" r="57.83"/><circle class="cls-4" cx="354.34" cy="197" r="57.83"/><circle class="cls-4" cx="518.23" cy="197" r="57.83"/><text class="cls-5" transform="translate(341.81 206.52)">0</text><g id="Capa_2-2" data-name="Capa 2"><g id="Layer_1" data-name="Layer 1"><path class="cls-6" d="M115.49,549.4h50.9a7.47,7.47,0,0,1,7.5,7.4v32.9a7.49,7.49,0,0,1-7.5,7.5h-50.9a7.41,7.41,0,0,1-7.4-7.5V556.8A7.26,7.26,0,0,1,115.49,549.4Z"/><line class="cls-7" x1="162.89" y1="562.7" x2="117.49" y2="562.7"/><line class="cls-8" x1="158.39" y1="586.3" x2="121.29" y2="586.3"/><line class="cls-9" x1="161.79" y1="569.3" x2="146.89" y2="569.3"/></g></g><g id="Capa_2-3" data-name="Capa 2" class="cls-10"><g id="Capa_1-2-2" data-name="Capa 1-2"><polyline class="cls-11" points="312.98 186.29 332.45 227 380.21 227 395.59 186.29"/><line class="cls-12" x1="316.72" y1="195.96" x2="309.96" y2="199.22"/><line class="cls-12" x1="391.96" y1="195.96" x2="398.72" y2="199.22"/></g></g><g id="Capa_2-4" data-name="Capa 2" class="cls-13"><g id="Layer_1-2" data-name="Layer 1"><path class="cls-14" d="M102.86,747.51a2.26,2.26,0,0,1-2.3-2.3v-14.9a13.25,13.25,0,0,1,4.3-9.7l8-7.3a14.43,14.43,0,0,1,9.9-3.8h19.9a2.26,2.26,0,0,1,2.3,2.3v33.4a2.26,2.26,0,0,1-2.3,2.3Z"/><path class="cls-15" d="M142.56,745.21h-39.7v-14.9a11.16,11.16,0,0,1,1.7-5.8h38Z"/><path class="cls-16" d="M128.56,726.11h-14.5a.94.94,0,0,1-1.1-.8.88.88,0,0,1,.5-1l5-4a8.22,8.22,0,0,1,5.2-1.8H128"/><path class="cls-15" d="M115.26,754.91a8.6,8.6,0,1,1,8.6-8.7h0A8.69,8.69,0,0,1,115.26,754.91Z"/><path class="cls-14" d="M144.86,747.71c-10.5,0-13.3-.6-14.5-1.2a2.33,2.33,0,0,1-1.3-2.1v-37.5a9.13,9.13,0,0,1,9.1-9.1h34.5a9.13,9.13,0,0,1,9.1,9.1v31.4a9.13,9.13,0,0,1-9.1,9.1h-17c-.1.1-5.3.3-10.8.3Z"/><path class="cls-15" d="M179.36,724.51v13.9a6.81,6.81,0,0,1-6.8,6.8h-17s-20.8.8-24.2-.8v-19.9Z"/><path class="cls-7" d="M172.56,718.31v-7.7a3.8,3.8,0,0,0-3.8-3.8h-13.7"/><path class="cls-15" d="M156.76,754.91a8.6,8.6,0,1,1,8.6-8.6h0A8.6,8.6,0,0,1,156.76,754.91Z"/></g></g><g id="Capa_2-5" data-name="Capa 2" class="cls-13"><g id="Layer_1-3" data-name="Layer 1"><path class="cls-15" d="M124.56,919.71a7.38,7.38,0,0,1-7.4-7.4v-50.9a7.38,7.38,0,0,1,7.4-7.4h23.5a2.36,2.36,0,0,1,1.6.7l14.6,14.6a2.36,2.36,0,0,1,.7,1.6v41.4a7.41,7.41,0,0,1-7.5,7.4Z"/><path class="cls-14" d="M149.76,853.51a5.66,5.66,0,0,0-1.8.3,4.57,4.57,0,0,0-2.8,4.2v5.7a9.65,9.65,0,0,0,9.7,9.7h5.7a4.65,4.65,0,0,0,4.6-4.6,4.82,4.82,0,0,0-1.3-3.2L153,854.81A4.63,4.63,0,0,0,149.76,853.51Z"/><line class="cls-7" x1="129.26" y1="878.61" x2="152.76" y2="878.61"/><line class="cls-7" x1="129.26" y1="887.31" x2="152.76" y2="887.31"/><line class="cls-7" x1="129.26" y1="895.91" x2="152.76" y2="895.91"/><line class="cls-7" x1="129.26" y1="904.61" x2="152.76" y2="904.61"/></g></g><g id="Capa_2-6" data-name="Capa 2" class="cls-13"><g id="Layer_1-4" data-name="Layer 1"><path class="cls-14" d="M230.81,197.74a4.22,4.22,0,0,1-6,.19l-2.57-2.08v20.24a9,9,0,0,1-9,9H172.7a9,9,0,0,1-9-9V195.86l-2.56,2.07a4.31,4.31,0,0,1-6.09-6.09l34.9-28.72a4.42,4.42,0,0,1,6.09,0l34.81,28.72A4.39,4.39,0,0,1,230.81,197.74Z"/><path d="M192.67,161.88v63.06H170.6a6.81,6.81,0,0,1-6.84-6.85V196.15l-2.66,1.78a4.31,4.31,0,0,1-6.09-6.09l8.56-7.06V166.35a4.26,4.26,0,0,1,4.28-4.28h2.47a4.26,4.26,0,0,1,4.28,4.28v9.33l15.22-12.56A4.13,4.13,0,0,1,192.67,161.88Z"/></g></g><g id="Capa_2-7" data-name="Capa 2" class="cls-13"><g id="Layer_1-5" data-name="Layer 1"><path d="M519.09,175.75a2.88,2.88,0,0,1-2.1-.9l-2.3-2.3a19.16,19.16,0,1,0-27.1,27.1l27.1,27a6.67,6.67,0,0,0,4.2,1.8Z"/><path class="cls-14" d="M518.29,175.55a2.88,2.88,0,0,0,2.1-.9l2.3-2.3a19.14,19.14,0,0,1,27,27.1l-27.2,27.1a7.38,7.38,0,0,1-4.2,1.9Z"/><path class="cls-7" d="M547.19,189.55a13.82,13.82,0,0,0-5.2-10.2,12.15,12.15,0,0,0-9.9-2.4"/></g></g><g id="Capa_2-8" data-name="Capa 2" class="cls-13"><g id="Layer_1-6" data-name="Layer 1"><path class="cls-14" d="M142,398.06a9.29,9.29,0,0,1-6.7-2.8,9.52,9.52,0,0,1-2.8-6.8,9.29,9.29,0,0,1,2.8-6.7,9.6,9.6,0,0,1,13.5,0,9.47,9.47,0,0,1,2.8,6.7,9.7,9.7,0,0,1-2.8,6.8A9.52,9.52,0,0,1,142,398.06Z"/><path class="cls-15" d="M142,381.26a7.17,7.17,0,0,0-7.2,7.2,7.34,7.34,0,0,0,2.1,5.2,6.94,6.94,0,0,0,5.1,2.1Z"/><path class="cls-14" d="M142.11,439.56a16.07,16.07,0,0,1-11.9-4.9,16.3,16.3,0,0,1-4.9-12,16.07,16.07,0,0,1,4.9-11.9,16.9,16.9,0,0,1,23.9,0,16.07,16.07,0,0,1,4.9,11.9,16.46,16.46,0,0,1-4.9,12A16.69,16.69,0,0,1,142.11,439.56Z"/><path class="cls-15" d="M142.26,407.55a14.89,14.89,0,0,0-15.1,15.09,15,15,0,0,0,4.36,10.86A15.3,15.3,0,0,0,142.26,438Z"/><line class="cls-7" x1="143.91" y1="386.66" x2="142.31" y2="386.66"/><path class="cls-7" d="M145.71,413.76s7.9,5.7,2.9,15.7"/></g></g><circle class="cls-17" cx="139.5" cy="570.88" r="100.61"/><rect class="cls-18" x="764.94" y="476.01" width="9.9" height="9.9" transform="translate(288.93 1250.85) rotate(-90)"/><rect class="cls-19" y="784.46" width="8.34" height="8.34" transform="translate(-784.46 792.8) rotate(-90)"/><rect class="cls-20" x="313.96" y="66.04" width="8.34" height="8.34" transform="translate(247.92 388.33) rotate(-90)"/></g></g></svg>